<svg width="533" height="318" viewBox="0 0 533 318" fill="none" xmlns="http://www.w3.org/2000/svg">
<path d="M533 320.04H0L39.6304 302.816H493.37L533 320.04Z" fill="url(#paint0_linear_225_296)"/>
<mask id="mask0_225_296" style="mask-type:luminance" maskUnits="userSpaceOnUse" x="56" y="217" width="52" height="88">
<path d="M107.728 304.236H56.4748L79.6009 219.155C79.7535 218.609 80.0805 218.128 80.5319 217.784C80.9833 217.441 81.5345 217.255 82.1015 217.254C82.6694 217.252 83.2222 217.437 83.6743 217.78C84.1264 218.124 84.4525 218.607 84.6022 219.155L107.728 304.236Z" fill="white"/>
</mask>
<g mask="url(#mask0_225_296)">
<path d="M107.728 304.236H56.4748L79.6009 219.155C79.7535 218.609 80.0805 218.128 80.5319 217.784C80.9833 217.441 81.5345 217.255 82.1015 217.254C82.6694 217.252 83.2222 217.437 83.6743 217.78C84.1264 218.124 84.4525 218.607 84.6022 219.155L107.728 304.236Z" fill="url(#paint1_linear_225_296)"/>
<path d="M99.9663 234.679H63.3566V246.302H99.9663V234.679Z" fill="white"/>
<path d="M99.9663 257.304H63.3566V268.927H99.9663V257.304Z" fill="white"/>
<path d="M107.468 279.91H55.8547V291.533H107.468V279.91Z" fill="white"/>
</g>
<path d="M118.911 301.855H44.4117V312.218H118.911V301.855Z" fill="url(#paint2_linear_225_296)"/>
<path d="M339.729 296.514H223.539L234.702 254.444H328.566L339.729 296.514Z" fill="url(#paint3_linear_225_296)"/>
<path style="mix-blend-mode:multiply" d="M339.729 296.514H223.539L234.702 254.444H328.566L339.729 296.514Z" fill="url(#paint4_linear_225_296)"/>
<path d="M367.917 298.415H195.331L200.433 286.712H362.815L367.917 298.415Z" fill="url(#paint5_linear_225_296)"/>
<path d="M450.018 260.645H112.57C110.072 260.64 107.679 259.645 105.913 257.88C104.147 256.114 103.152 253.72 103.147 251.223L103.787 9.44233C103.803 6.93947 104.806 4.54394 106.577 2.77599C108.349 1.00804 110.747 0.0104888 113.25 0H450.698C453.198 0.0105619 455.591 1.00939 457.356 2.77847C459.122 4.54754 460.116 6.94314 460.121 9.44233L459.481 251.223C459.46 253.722 458.455 256.113 456.684 257.876C454.912 259.64 452.518 260.635 450.018 260.645Z" fill="#4E5683"/>
<path d="M450.278 260.645H112.83C110.332 260.64 107.939 259.645 106.173 257.88C104.407 256.114 103.412 253.72 103.407 251.223L103.527 211.373H459.841V251.223C459.82 253.74 458.801 256.145 457.008 257.912C455.215 259.678 452.795 260.661 450.278 260.645Z" fill="url(#paint6_linear_225_296)"/>
<path style="mix-blend-mode:overlay" opacity="0.7" d="M450.278 261.245H112.83C110.332 261.24 107.939 260.246 106.173 258.48C104.407 256.714 103.412 254.32 103.407 251.823L103.527 211.973H459.841V251.823C459.82 254.34 458.801 256.745 457.008 258.512C455.215 260.278 452.795 261.261 450.278 261.245Z" fill="url(#paint7_radial_225_296)"/>
<mask id="mask1_225_296" style="mask-type:luminance" maskUnits="userSpaceOnUse" x="115" y="12" width="333" height="188">
<path d="M115.61 199.99L116.11 12.4431H447.658L447.157 199.99H115.61Z" fill="white"/>
</mask>
<g mask="url(#mask1_225_296)">
<path d="M115.61 199.99L116.09 12.4231H447.658L447.157 199.99H115.61Z" fill="white"/>
<path d="M184.949 203.311H56.1348C56.3282 198.528 57.9985 193.922 60.916 190.128C63.2192 186.872 66.2462 184.194 69.7591 182.306C73.272 180.417 77.175 179.37 81.1613 179.245C93.6246 178.945 106.548 187.647 117.771 182.226C122.552 179.925 125.773 175.424 129.774 171.803C133.775 168.182 139.137 165.221 144.158 166.982C150.56 169.242 152.82 178.885 158.722 182.246C163.603 185.006 173.205 179.925 182.488 184.886C184.026 185.799 185.337 187.049 186.323 188.541C187.31 190.033 187.945 191.73 188.182 193.502C188.418 195.275 188.25 197.079 187.691 198.778C187.131 200.476 186.193 202.026 184.949 203.311Z" fill="url(#paint8_linear_225_296)"/>
<path d="M121.152 208.632C122.262 209.228 123.467 209.627 124.713 209.812H270.431C270.239 205.37 268.682 201.094 265.97 197.569C263.831 194.548 261.023 192.062 257.764 190.306C254.505 188.55 250.885 187.572 247.185 187.447C235.622 187.187 223.619 195.269 213.176 190.228C208.715 188.087 205.654 183.926 202.053 180.545C198.452 177.164 193.351 174.424 188.69 176.064C182.688 178.165 180.888 186.067 175.406 189.187C170.865 191.748 165.163 190.368 160.322 188.407C155.481 186.447 150.58 183.926 145.378 184.406C142.673 184.703 140.116 185.794 138.029 187.542C135.943 189.29 134.421 191.617 133.655 194.229C132.395 199.41 116.751 205.411 121.152 208.632Z" fill="url(#paint9_linear_225_296)"/>
<path d="M491.629 199.77C491.629 199.77 482.247 183.346 480.726 181.645C471.064 170.963 458.26 170.843 445.237 173.543C441.456 174.324 431.473 179.545 427.852 178.845C425.032 178.285 421.631 167.542 412.608 168.122C403.586 168.702 403.026 179.405 403.026 179.405C403.026 179.405 397.364 166.942 388.342 168.102C379.32 169.262 379.3 177.664 386.081 183.886C376.628 181.457 366.631 182.296 357.714 186.267C343.71 192.948 350.412 201.73 350.412 201.73L491.629 199.77Z" fill="url(#paint10_linear_225_296)"/>
<path d="M493.13 203.271H242.904C242.904 203.271 270.011 191.408 293.297 192.268C316.583 193.128 340.709 194.269 365.316 192.268C389.922 190.268 402.146 179.185 433.054 184.266C463.962 189.347 463.962 195.269 472.844 195.269C481.727 195.269 493.13 203.271 493.13 203.271Z" fill="url(#paint11_linear_225_296)"/>
<path d="M233.601 203.271H95.5652C95.5652 203.271 111.229 193.048 129.854 193.088C148.479 193.128 145.858 197.409 165.003 195.749C184.148 194.089 187.009 186.347 208.195 190.988C217.445 193.215 226.11 197.404 233.601 203.271Z" fill="url(#paint12_linear_225_296)"/>
<path d="M109.789 186.627C106.288 182.826 100.927 179.565 96.1653 181.585C92.6444 183.086 90.7239 186.967 87.423 188.847C82.4017 191.688 76.12 189.127 70.3585 189.567C63.9568 190.027 56.1348 203.111 56.1348 203.111H134.995C134.995 203.111 125.853 198.91 120.672 196.829C116.01 194.929 113.07 190.148 109.789 186.627Z" fill="url(#paint13_linear_225_296)"/>
<path d="M325.385 208.392H241.824C241.94 205.291 243.024 202.304 244.924 199.85C246.414 197.734 248.374 195.992 250.652 194.763C252.929 193.534 255.461 192.851 258.048 192.768C266.05 192.588 274.532 198.23 281.794 194.769C284.915 193.268 287.055 190.368 289.576 188.007C292.097 185.646 295.578 183.726 298.919 184.886C303.06 186.347 304.52 192.608 308.361 194.789C311.522 196.569 317.743 193.288 323.785 196.489C324.772 197.085 325.612 197.894 326.245 198.858C326.877 199.821 327.285 200.915 327.439 202.057C327.592 203.199 327.488 204.361 327.132 205.458C326.777 206.554 326.18 207.557 325.385 208.392Z" fill="url(#paint14_linear_225_296)"/>
</g>
<path d="M433.814 304.276H126.753L159.802 282.271H400.785L433.834 304.276H433.814Z" fill="url(#paint15_linear_225_296)"/>
<path d="M433.814 304.276H126.753V313.458H433.814V304.276Z" fill="url(#paint16_linear_225_296)"/>
<path style="mix-blend-mode:multiply" d="M433.814 304.276H126.753V313.458H433.814V304.276Z" fill="url(#paint17_linear_225_296)"/>
<g style="mix-blend-mode:overlay" opacity="0.7">
<path d="M176.506 285.931H166.404C165.744 285.931 165.484 285.731 165.824 285.491L166.944 284.691C167.476 284.395 168.076 284.243 168.684 284.251H178.687C179.327 284.251 179.607 284.451 179.327 284.691L178.347 285.491C177.788 285.811 177.149 285.964 176.506 285.931Z" fill="url(#paint18_linear_225_296)"/>
<path d="M192.811 285.932H182.668C182.028 285.932 181.728 285.731 182.008 285.491L182.968 284.691C183.468 284.388 184.044 284.235 184.629 284.251H194.631C195.271 284.251 195.591 284.451 195.351 284.691L194.531 285.491C194.017 285.813 193.416 285.967 192.811 285.932Z" fill="url(#paint19_linear_225_296)"/>
<path d="M209.095 285.931H198.972C198.312 285.931 197.972 285.731 198.212 285.491L199.012 284.691C199.48 284.382 200.033 284.228 200.593 284.251H210.595C211.236 284.251 211.596 284.451 211.396 284.691L210.735 285.491C210.258 285.828 209.677 285.984 209.095 285.931Z" fill="url(#paint20_linear_225_296)"/>
<path d="M225.379 285.931H215.257C214.616 285.931 214.236 285.731 214.436 285.491L215.057 284.691C215.498 284.374 216.035 284.218 216.577 284.251H226.42C227.08 284.251 227.46 284.451 227.32 284.691L226.8 285.491C226.395 285.805 225.89 285.961 225.379 285.931Z" fill="url(#paint21_linear_225_296)"/>
<path d="M241.683 285.931H231.561C230.901 285.931 230.481 285.731 230.641 285.491L231.121 284.691C231.52 284.367 232.029 284.21 232.541 284.251H242.544C243.184 284.251 243.604 284.451 243.504 284.691L243.144 285.491C242.964 285.731 242.424 285.931 241.683 285.931Z" fill="url(#paint22_linear_225_296)"/>
<path d="M257.968 285.931H247.845C247.205 285.931 246.745 285.731 246.845 285.491L247.165 284.691C247.165 284.451 247.865 284.251 248.505 284.251H258.508C259.148 284.251 259.608 284.451 259.548 284.691L259.348 285.491C259.208 285.731 258.628 285.931 257.968 285.931Z" fill="url(#paint23_linear_225_296)"/>
<path d="M274.272 285.931H264.149C263.489 285.931 262.989 285.731 263.049 285.491L263.209 284.691C263.209 284.451 263.829 284.251 264.47 284.251H274.472C275.112 284.251 275.612 284.451 275.612 284.691V285.491C275.472 285.731 274.932 285.931 274.272 285.931Z" fill="url(#paint24_linear_225_296)"/>
<path d="M290.556 285.931H280.434C279.773 285.931 279.253 285.731 279.253 285.491V284.651C279.253 284.411 279.773 284.211 280.414 284.211H290.416C291.056 284.211 291.597 284.411 291.637 284.651V285.451C291.717 285.731 291.216 285.931 290.556 285.931Z" fill="url(#paint25_linear_225_296)"/>
<path d="M306.861 285.931H296.738C296.078 285.931 295.518 285.731 295.458 285.491L295.318 284.691C295.318 284.451 295.758 284.251 296.398 284.251H306.4C307.041 284.251 307.621 284.451 307.701 284.691L307.981 285.491C307.981 285.731 307.501 285.931 306.861 285.931Z" fill="url(#paint26_linear_225_296)"/>
<path d="M323.145 285.931H313.022C312.362 285.931 311.762 285.731 311.662 285.491L311.362 284.691C311.362 284.451 311.722 284.251 312.362 284.251H322.365C322.87 284.215 323.371 284.372 323.765 284.691L324.185 285.491C324.225 285.731 323.805 285.931 323.145 285.931Z" fill="url(#paint27_linear_225_296)"/>
<path d="M339.449 285.932H329.326C328.807 285.978 328.29 285.82 327.886 285.491L327.426 284.691C327.286 284.451 327.686 284.251 328.326 284.251H338.329C338.859 284.214 339.385 284.37 339.809 284.691L340.389 285.491C340.449 285.731 340.089 285.932 339.449 285.932Z" fill="url(#paint28_linear_225_296)"/>
<path d="M355.733 285.931H345.611C345.068 285.971 344.528 285.815 344.09 285.491L343.47 284.691C343.29 284.451 343.65 284.251 344.29 284.251H354.293C354.847 284.223 355.395 284.378 355.854 284.691L356.594 285.491C356.734 285.731 356.454 285.931 355.733 285.931Z" fill="url(#paint29_linear_225_296)"/>
<path d="M375.759 285.932H361.895C361.329 285.955 360.769 285.801 360.295 285.491L359.515 284.691C359.294 284.451 359.614 284.251 360.275 284.251H373.838C374.423 284.235 374.999 284.388 375.499 284.691L376.439 285.491C376.719 285.731 376.459 285.932 375.759 285.932Z" fill="url(#paint30_linear_225_296)"/>
<path d="M395.864 285.931H381.86C381.258 285.943 380.663 285.791 380.14 285.491L379.18 284.691C378.899 284.451 379.18 284.251 379.82 284.251H393.483C394.098 284.243 394.705 284.395 395.244 284.691L396.384 285.491C396.784 285.731 396.464 285.931 395.864 285.931Z" fill="url(#paint31_linear_225_296)"/>
<path d="M156.401 302.116H144.398C143.618 302.116 143.358 301.815 143.838 301.475L148.299 298.235C148.955 297.854 149.701 297.654 150.46 297.654H161.983C162.743 297.654 163.023 297.914 162.623 298.235L158.622 301.475C157.956 301.892 157.187 302.114 156.401 302.116Z" fill="url(#paint32_linear_225_296)"/>
<path d="M175.926 302.116H163.923C163.143 302.116 162.843 301.815 163.263 301.475L167.084 298.235C167.682 297.856 168.376 297.654 169.084 297.654H180.627C181.368 297.654 181.708 297.914 181.368 298.235L178.027 301.475C177.413 301.908 176.677 302.133 175.926 302.116Z" fill="url(#paint33_linear_225_296)"/>
<path d="M195.351 302.116H183.348C182.568 302.116 182.208 301.815 182.548 301.475L185.749 298.235C186.332 297.822 187.036 297.618 187.749 297.654H199.292C200.033 297.654 200.433 297.914 200.153 298.235L197.452 301.475C196.858 301.946 196.107 302.175 195.351 302.116Z" fill="url(#paint34_linear_225_296)"/>
<path d="M214.796 302.116H202.793C202.013 302.116 201.613 301.815 201.893 301.475L204.454 298.235C204.962 297.825 205.603 297.619 206.254 297.654H217.797C218.537 297.654 218.978 297.914 218.778 298.235L216.777 301.475C216.513 301.719 216.199 301.903 215.857 302.013C215.515 302.124 215.153 302.159 214.796 302.116Z" fill="url(#paint35_linear_225_296)"/>
<path d="M292.017 302.116H222.679C221.618 302.116 220.858 301.895 221.018 301.655L223.139 298.074C223.786 297.722 224.526 297.575 225.259 297.654H291.497C292.517 297.654 293.377 297.834 293.497 298.074L293.997 301.655C293.937 301.895 293.097 302.116 292.017 302.116Z" fill="url(#paint36_linear_225_296)"/>
<path d="M311.982 302.116H299.979C299.199 302.116 298.518 301.815 298.458 301.475L297.858 298.235C297.858 297.914 298.358 297.654 299.099 297.654H310.642C311.382 297.654 312.082 297.914 312.182 298.235L313.262 301.475C313.302 301.815 312.762 302.116 311.982 302.116Z" fill="url(#paint37_linear_225_296)"/>
<path d="M331.407 302.116H319.404C318.624 302.116 317.884 301.815 317.744 301.475L316.523 298.235C316.403 297.914 316.903 297.654 317.663 297.654H329.187C329.489 297.618 329.796 297.652 330.084 297.752C330.372 297.853 330.633 298.018 330.847 298.235L332.547 301.475C332.687 301.815 332.187 302.116 331.407 302.116Z" fill="url(#paint38_linear_225_296)"/>
<path d="M350.852 302.116H338.849C338.524 302.139 338.198 302.094 337.891 301.983C337.585 301.873 337.304 301.7 337.069 301.475L335.228 298.235C335.048 297.914 335.488 297.654 336.248 297.654H347.791C348.431 297.617 349.06 297.825 349.552 298.235L351.892 301.475C352.052 301.815 351.632 302.116 350.852 302.116Z" fill="url(#paint39_linear_225_296)"/>
<path d="M395.224 302.116H381.66C380.942 302.12 380.242 301.896 379.66 301.475L379.14 300.955C378.799 300.615 379.139 300.335 379.92 300.335H393.243C393.996 300.327 394.734 300.543 395.364 300.955L395.944 301.475C396.324 301.815 396.024 302.116 395.224 302.116Z" fill="url(#paint40_linear_225_296)"/>
<path d="M416.609 302.116H403.046C402.272 302.117 401.515 301.895 400.865 301.475L400.245 300.955C399.825 300.615 400.105 300.335 400.885 300.335H414.209C414.997 300.344 415.769 300.558 416.449 300.955L417.15 301.475C417.63 301.815 417.39 302.116 416.609 302.116Z" fill="url(#paint41_linear_225_296)"/>
<path d="M373.858 302.116H360.295C359.571 302.161 358.857 301.933 358.294 301.475L357.894 300.955C357.634 300.615 358.034 300.335 358.794 300.335H372.118C372.836 300.307 373.542 300.526 374.118 300.955L374.618 301.475C374.999 301.815 374.638 302.116 373.858 302.116Z" fill="url(#paint42_linear_225_296)"/>
<path d="M392.023 299.315H378.84C378.125 299.341 377.421 299.13 376.839 298.715L376.359 298.235C376.039 297.914 376.359 297.654 377.119 297.654H390.082C390.791 297.654 391.485 297.856 392.083 298.235L392.643 298.715C393.083 299.055 392.783 299.315 392.023 299.315Z" fill="url(#paint43_linear_225_296)"/>
<path d="M172.405 289.252H161.882C161.202 289.252 160.942 289.032 161.302 288.772L163.603 287.092C164.159 286.782 164.787 286.623 165.423 286.632H175.646C176.306 286.632 176.586 286.832 176.286 287.092L174.286 288.772C173.716 289.105 173.065 289.272 172.405 289.252Z" fill="url(#paint44_linear_225_296)"/>
<path d="M189.33 289.252H178.807C178.127 289.252 177.827 289.032 178.147 288.772L180.147 287.092C180.671 286.773 181.275 286.613 181.888 286.632H192.091C192.751 286.632 193.071 286.832 192.811 287.092L191.09 288.772C190.566 289.107 189.952 289.275 189.33 289.252Z" fill="url(#paint45_linear_225_296)"/>
<path d="M206.274 289.252H195.751C195.071 289.252 194.731 289.032 194.991 288.772L196.652 287.092C197.134 286.764 197.71 286.603 198.292 286.632H208.415C209.075 286.632 209.455 286.832 209.235 287.092L207.835 288.772C207.38 289.097 206.833 289.265 206.274 289.252Z" fill="url(#paint46_linear_225_296)"/>
<path d="M223.219 289.252H212.696C212.016 289.252 211.636 289.032 211.836 288.772L213.156 287.092C213.604 286.757 214.158 286.593 214.716 286.632H224.919C225.599 286.632 225.999 286.832 225.839 287.092L224.759 288.772C224.326 289.123 223.775 289.295 223.219 289.252Z" fill="url(#paint47_linear_225_296)"/>
<path d="M240.143 289.252H229.62C228.94 289.252 228.52 289.032 228.68 288.772L229.68 287.092C229.882 286.923 230.114 286.795 230.365 286.716C230.615 286.638 230.879 286.609 231.141 286.632H241.363C242.023 286.632 242.464 286.832 242.344 287.092L241.603 288.772C241.483 289.032 240.823 289.252 240.143 289.252Z" fill="url(#paint48_linear_225_296)"/>
<path d="M257.088 289.252H246.565C245.885 289.252 245.424 289.032 245.524 288.772L246.205 287.092C246.305 286.832 246.925 286.632 247.585 286.632H257.788C258.448 286.632 258.928 286.832 258.868 287.092L258.448 288.772C258.428 289.032 257.768 289.252 257.088 289.252Z" fill="url(#paint49_linear_225_296)"/>
<path d="M274.032 289.252H263.509C262.829 289.252 262.309 289.032 262.369 288.772L262.709 287.092C262.709 286.832 263.349 286.632 264.009 286.632H274.212C274.872 286.632 275.392 286.832 275.392 287.092L275.292 288.772C275.272 289.032 274.712 289.252 274.032 289.252Z" fill="url(#paint50_linear_225_296)"/>
<path d="M290.976 289.252H280.434C279.753 289.252 279.213 289.032 279.213 288.772V287.092C279.213 286.832 279.753 286.632 280.414 286.632H290.616C291.297 286.632 291.857 286.832 291.877 287.092L292.117 288.772C292.177 289.032 291.657 289.252 290.976 289.252Z" fill="url(#paint51_linear_225_296)"/>
<path d="M307.901 289.252H297.378C296.698 289.252 296.118 289.032 296.058 288.772L295.758 287.092C295.758 286.832 296.198 286.632 296.858 286.632H307.081C307.741 286.632 308.341 286.832 308.421 287.092L308.981 288.772C309.061 289.032 308.581 289.252 307.901 289.252Z" fill="url(#paint52_linear_225_296)"/>
<path d="M324.845 289.252H314.323C313.642 289.252 313.002 289.032 312.902 288.772L312.282 287.092C312.282 286.832 312.642 286.632 313.302 286.632H323.505C323.764 286.604 324.025 286.631 324.273 286.711C324.521 286.79 324.75 286.92 324.945 287.092L325.826 288.772C325.966 289.032 325.526 289.252 324.845 289.252Z" fill="url(#paint53_linear_225_296)"/>
<path d="M341.79 289.252H331.267C330.994 289.281 330.719 289.253 330.457 289.17C330.195 289.088 329.954 288.952 329.747 288.772L328.786 287.092C328.646 286.832 329.067 286.632 329.727 286.632H339.929C340.476 286.588 341.019 286.753 341.45 287.092L342.67 288.772C342.87 289.032 342.45 289.252 341.79 289.252Z" fill="url(#paint54_linear_225_296)"/>
<path d="M358.714 289.252H348.191C347.618 289.289 347.05 289.119 346.591 288.772L345.311 287.092C345.111 286.832 345.491 286.632 346.151 286.632H356.454C357.031 286.595 357.603 286.757 358.074 287.092L359.615 288.772C359.755 289.032 359.394 289.252 358.714 289.252Z" fill="url(#paint55_linear_225_296)"/>
<path d="M379.54 289.252H365.136C364.533 289.276 363.937 289.108 363.435 288.772L361.835 287.092C361.575 286.832 361.835 286.632 362.595 286.632H376.599C377.205 286.613 377.803 286.773 378.319 287.092L380.32 288.772C380.46 289.032 380.22 289.252 379.54 289.252Z" fill="url(#paint56_linear_225_296)"/>
<path d="M400.465 289.252H385.961C385.328 289.264 384.704 289.098 384.161 288.772L382.16 287.092C381.86 286.832 382.16 286.632 382.821 286.632H396.824C397.467 286.623 398.101 286.782 398.665 287.092L401.005 288.772C401.385 289.032 401.125 289.252 400.465 289.252Z" fill="url(#paint57_linear_225_296)"/>
<path d="M176.066 292.853H157.461C156.501 292.853 155.941 292.673 156.221 292.473L159.102 290.373C159.801 290.097 160.552 289.975 161.302 290.012H179.307C180.247 290.012 180.827 290.173 180.607 290.373L178.227 292.473C177.548 292.774 176.807 292.904 176.066 292.853Z" fill="url(#paint58_linear_225_296)"/>
<path d="M202.753 292.853H184.148C183.168 292.853 182.568 292.693 182.788 292.473L185.049 290.373C185.68 290.103 186.364 289.98 187.049 290.012H205.054C205.994 290.012 206.614 290.173 206.454 290.373L204.714 292.473C204.1 292.756 203.428 292.886 202.753 292.853Z" fill="url(#paint59_linear_225_296)"/>
<path d="M220.858 292.853H209.895C209.195 292.853 208.795 292.613 209.035 292.333L210.475 290.513C210.935 290.151 211.512 289.973 212.096 290.012H222.719C223.399 290.012 223.819 290.232 223.639 290.513L222.478 292.333C222.028 292.713 221.445 292.9 220.858 292.853Z" fill="url(#paint60_linear_225_296)"/>
<path d="M238.423 292.853H227.46C226.74 292.853 226.319 292.613 226.479 292.333L227.56 290.513C227.767 290.326 228.012 290.186 228.277 290.1C228.542 290.014 228.823 289.984 229.1 290.012H239.723C240.403 290.012 240.863 290.233 240.743 290.513L239.923 292.333C239.883 292.653 239.203 292.853 238.423 292.853Z" fill="url(#paint61_linear_225_296)"/>
<path d="M256.127 292.853H245.184C244.464 292.853 243.984 292.613 244.104 292.333L244.824 290.513C244.944 290.233 245.584 290.012 246.265 290.012H256.887C257.568 290.012 258.068 290.233 258.008 290.513L257.548 292.333C257.468 292.653 256.847 292.853 256.127 292.853Z" fill="url(#paint62_linear_225_296)"/>
<path d="M273.772 292.853H262.809C262.109 292.853 261.569 292.613 261.629 292.333L262.009 290.513C262.009 290.233 262.669 290.012 263.349 290.012H273.972C274.652 290.012 275.212 290.233 275.192 290.513V292.333C275.072 292.653 274.432 292.853 273.772 292.853Z" fill="url(#paint63_linear_225_296)"/>
<path d="M291.417 292.853H280.434C279.713 292.853 279.153 292.613 279.153 292.333V290.513C279.153 290.233 279.713 290.012 280.414 290.012H291.016C291.717 290.012 292.297 290.233 292.337 290.513L292.577 292.333C292.657 292.653 292.117 292.853 291.417 292.853Z" fill="url(#paint64_linear_225_296)"/>
<path d="M309.041 292.853H298.078C297.378 292.853 296.758 292.613 296.698 292.333L296.378 290.513C296.378 290.233 296.838 290.012 297.538 290.012H308.141C308.841 290.012 309.461 290.233 309.561 290.513L310.161 292.333C310.241 292.653 309.761 292.853 309.041 292.853Z" fill="url(#paint65_linear_225_296)"/>
<path d="M326.686 292.853H315.723C315.023 292.853 314.343 292.613 314.243 292.333L313.562 290.513C313.562 290.233 313.923 290.012 314.623 290.012H325.225C325.926 290.012 326.586 290.233 326.726 290.513L327.686 292.333C327.846 292.653 327.386 292.853 326.686 292.853Z" fill="url(#paint66_linear_225_296)"/>
<path d="M344.31 292.853H333.368C333.082 292.885 332.793 292.855 332.521 292.765C332.248 292.675 331.998 292.528 331.787 292.333L330.747 290.513C330.587 290.233 331.007 290.012 331.707 290.012H342.31C342.888 289.968 343.461 290.147 343.91 290.513L345.231 292.333C345.431 292.653 345.031 292.853 344.31 292.853Z" fill="url(#paint67_linear_225_296)"/>
<path d="M361.955 292.853H350.992C350.388 292.885 349.792 292.701 349.312 292.333L347.911 290.513C347.711 290.233 348.091 290.012 348.792 290.012H359.394C360.002 289.978 360.603 290.155 361.095 290.513L362.755 292.333C363.015 292.653 362.655 292.853 361.955 292.853Z" fill="url(#paint68_linear_225_296)"/>
<path d="M379.2 292.833H368.237C367.602 292.862 366.975 292.679 366.456 292.313L364.716 290.493C364.456 290.233 364.716 290.012 365.496 290.012H376.099C376.733 289.995 377.358 290.162 377.899 290.493L379.9 292.313C380.22 292.653 379.9 292.833 379.2 292.833Z" fill="url(#paint69_linear_225_296)"/>
<path d="M404.926 292.853H386.602C385.848 292.904 385.093 292.774 384.401 292.473L381.98 290.473C381.76 290.273 382.34 290.113 383.281 290.113H401.025C401.776 290.075 402.526 290.197 403.226 290.473L406.147 292.573C406.467 292.653 405.887 292.853 404.926 292.853Z" fill="url(#paint70_linear_225_296)"/>
<path d="M181.508 296.754H151.68C150.94 296.754 150.7 296.494 151.12 296.194L153.84 294.194C154.448 293.841 155.138 293.655 155.841 293.653H184.689C185.409 293.653 185.749 293.893 185.429 294.194L183.428 296.194C182.861 296.574 182.19 296.769 181.508 296.754Z" fill="url(#paint71_linear_225_296)"/>
<path d="M199.913 296.754H188.41C187.689 296.754 187.329 296.494 187.629 296.194L189.63 294.194C190.16 293.817 190.8 293.627 191.45 293.653H202.513C203.213 293.653 203.593 293.893 203.353 294.194L201.693 296.194C201.182 296.58 200.553 296.778 199.913 296.754Z" fill="url(#paint72_linear_225_296)"/>
<path d="M218.297 296.754H206.874C206.134 296.754 205.734 296.494 205.974 296.194L207.555 294.193C208.035 293.809 208.641 293.616 209.255 293.653H220.418C221.138 293.653 221.558 293.893 221.378 294.193L220.098 296.194C219.852 296.405 219.565 296.564 219.255 296.66C218.946 296.756 218.62 296.788 218.297 296.754Z" fill="url(#paint73_linear_225_296)"/>
<path d="M236.702 296.754H225.279C224.539 296.754 224.079 296.494 224.259 296.194L225.439 294.193C225.658 293.998 225.915 293.849 226.194 293.756C226.472 293.664 226.767 293.629 227.06 293.653H238.122C238.843 293.653 239.303 293.893 239.183 294.193L238.283 296.194C238.143 296.494 237.442 296.754 236.702 296.754Z" fill="url(#paint74_linear_225_296)"/>
<path d="M255.087 296.754H243.664C242.924 296.754 242.424 296.494 242.544 296.194L243.344 294.194C243.464 293.893 244.144 293.653 244.864 293.653H255.907C256.627 293.653 257.148 293.893 257.067 294.194L256.567 296.194C256.427 296.494 255.827 296.754 255.087 296.754Z" fill="url(#paint75_linear_225_296)"/>
<path d="M273.492 296.754H262.069C261.329 296.754 260.769 296.494 260.829 296.194L261.249 294.194C261.249 293.893 261.929 293.653 262.649 293.653H273.712C274.432 293.653 274.992 293.893 274.972 294.194L274.852 296.194C274.852 296.494 274.232 296.754 273.492 296.754Z" fill="url(#paint76_linear_225_296)"/>
<path d="M291.877 296.754H280.434C279.693 296.754 279.093 296.494 279.113 296.194V294.194C279.113 293.893 279.693 293.653 280.414 293.653H291.477C292.177 293.653 292.797 293.893 292.837 294.194L293.117 296.194C293.197 296.494 292.617 296.754 291.877 296.754Z" fill="url(#paint77_linear_225_296)"/>
<path d="M310.281 296.754H298.859C298.118 296.754 297.458 296.494 297.418 296.194L297.058 294.194C297.058 293.893 297.538 293.653 298.238 293.653H309.301C310.021 293.653 310.682 293.893 310.782 294.194L311.442 296.194C311.542 296.494 311.022 296.754 310.281 296.754Z" fill="url(#paint78_linear_225_296)"/>
<path d="M328.666 296.754H317.243C316.503 296.754 315.803 296.494 315.703 296.194L314.943 294.193C314.943 293.893 315.323 293.653 316.043 293.653H327.106C327.393 293.624 327.682 293.657 327.955 293.751C328.228 293.844 328.477 293.995 328.686 294.193L329.727 296.194C329.887 296.494 329.406 296.754 328.666 296.754Z" fill="url(#paint79_linear_225_296)"/>
<path d="M347.071 296.754H335.648C335.348 296.779 335.045 296.743 334.76 296.646C334.474 296.55 334.211 296.396 333.988 296.194L332.847 294.193C332.687 293.893 333.127 293.653 333.848 293.653H344.89C345.499 293.609 346.102 293.803 346.571 294.193L348.011 296.194C348.231 296.494 347.811 296.754 347.071 296.754Z" fill="url(#paint80_linear_225_296)"/>
<path d="M365.476 296.754H354.033C353.398 296.787 352.772 296.588 352.272 296.194L350.752 294.193C350.532 293.893 350.912 293.653 351.632 293.653H362.695C363.333 293.622 363.963 293.813 364.476 294.193L366.296 296.194C366.576 296.494 366.216 296.754 365.476 296.754Z" fill="url(#paint81_linear_225_296)"/>
<path d="M410.788 296.754H372.458C371.787 296.773 371.128 296.577 370.577 296.194L368.677 294.194C368.377 293.893 368.677 293.653 369.457 293.653H406.467C407.169 293.655 407.859 293.841 408.467 294.194L411.228 296.194C411.768 296.494 411.528 296.754 410.788 296.754Z" fill="url(#paint82_linear_225_296)"/>
</g>
<path d="M146.398 133.013L235.382 128.472C236.1 128.446 236.797 128.227 237.402 127.839C238.006 127.45 238.494 126.906 238.816 126.263C239.137 125.62 239.279 124.903 239.228 124.187C239.176 123.47 238.933 122.781 238.523 122.191L190.21 50.5926C189.825 50.0127 189.296 49.5431 188.675 49.2302C188.053 48.9172 187.361 48.7718 186.666 48.8081C185.971 48.8445 185.298 49.0614 184.713 49.4375C184.127 49.8136 183.65 50.3359 183.328 50.9527L142.597 126.972C142.217 127.606 142.02 128.333 142.028 129.072C142.036 129.811 142.249 130.534 142.642 131.16C143.036 131.786 143.595 132.29 144.258 132.617C144.922 132.945 145.662 133.082 146.398 133.013Z" fill="url(#paint83_linear_225_296)"/>
<path d="M171.045 156.179C168.609 153.602 166.437 150.787 164.563 147.777C161.943 143.215 160.46 138.089 160.242 132.833L156.241 133.953C156.241 133.953 158.242 148.177 160.402 153.678C162.563 159.18 170.405 164.221 170.405 164.221L171.045 156.179Z" fill="#F8D2A1"/>
<path d="M200.573 154.419C203.495 152.371 206.075 149.872 208.215 147.017C210.665 142.445 212.803 137.713 214.616 132.853L218.417 134.614C218.417 134.614 214.416 148.417 211.476 153.538C208.535 158.66 200.173 162.581 200.173 162.581L200.573 154.419Z" fill="#F8D2A1"/>
<path d="M200.673 153.958C206.387 148.631 210.92 142.164 213.976 134.974L217.977 136.974C217.557 149.817 206.594 163.081 197.972 167.882C192.851 170.703 190.49 169.042 190.49 169.042L189.07 159.34C193.339 158.585 197.338 156.73 200.673 153.958Z" fill="url(#paint84_linear_225_296)"/>
<path d="M214.196 129.952C214.316 127.832 214.636 126.412 215.397 126.312C216.157 126.212 215.517 128.132 215.857 129.092C216.667 128.266 217.204 127.212 217.397 126.072C217.617 124.611 218.257 123.651 219.198 124.071C220.138 124.491 221.558 125.431 221.438 126.372C221.318 127.312 220.198 130.793 219.978 132.053C219.758 133.313 218.537 134.173 218.337 134.854C218.137 135.534 214.796 134.854 214.796 134.854C214.796 134.534 214.616 132.853 214.616 132.853C214.539 132.311 214.419 131.776 214.256 131.253C214.171 130.825 214.151 130.386 214.196 129.952Z" fill="#F8D2A1"/>
<path d="M187.009 264.406H191.81C191.81 264.406 191.81 265.266 194.531 265.806C195.354 266.043 196.098 266.497 196.686 267.12C197.274 267.743 197.683 268.512 197.872 269.347H187.009V264.406Z" fill="url(#paint85_linear_225_296)"/>
<path d="M174.406 258.925C174.606 259.265 174.406 265.806 174.406 265.806H179.207V258.645L174.406 258.925Z" fill="#F8D2A1"/>
<path d="M174.406 264.406H179.207C179.207 264.406 179.207 265.266 181.928 265.806C182.751 266.043 183.495 266.497 184.083 267.12C184.67 267.743 185.08 268.512 185.269 269.347H174.406V264.406Z" fill="url(#paint86_linear_225_296)"/>
<path d="M193.071 150.618C193.071 151.758 191.79 151.138 191.65 151.578C191.51 152.018 192.531 154.199 191.65 154.939C190.77 155.679 188.349 155.839 187.989 156.619C188.004 158.194 188.281 159.756 188.81 161.24L179.947 161.6L180.367 154.299C180.043 152.024 180.2 149.707 180.828 147.497C181.888 143.636 189.03 141.155 189.03 141.155C189.35 140.955 189.77 139.415 190.33 139.995C191.21 140.875 191.53 143.996 191.81 145.496C192.09 146.997 193.011 149.437 193.071 150.618Z" fill="#F8D2A1"/>
<path d="M193.071 150.618C193.071 151.758 191.79 151.138 191.65 151.578L191.81 145.576C192.09 146.997 193.011 149.437 193.071 150.618Z" fill="#DBA87B"/>
<path d="M191.31 140.855C191.15 141.595 188.99 142.155 188.85 143.836C188.788 144.841 188.981 145.846 189.41 146.757C189.293 147.621 189.119 148.476 188.89 149.317C188.89 149.317 188.67 147.217 187.729 147.157C186.789 147.097 186.009 147.777 186.949 149.417C187.372 150.008 187.584 150.723 187.551 151.449C187.518 152.174 187.243 152.868 186.769 153.418C186.29 154.204 186.079 155.123 186.169 156.039L180.167 156.319C179.227 153.478 178.047 151.558 177.167 149.037C177.511 147.391 177.771 145.729 177.947 144.056C177.947 142.896 176.746 142.756 177.427 141.415C178.331 140.053 179.589 138.961 181.065 138.256C182.541 137.552 184.18 137.261 185.809 137.414C187.954 137.966 189.876 139.168 191.31 140.855Z" fill="url(#paint87_linear_225_296)"/>
<path d="M180.407 196.989C180.283 202.721 181.303 208.42 183.408 213.753C186.429 222.556 186.989 255.544 186.989 255.544H192.411C192.411 255.544 193.091 234.159 194.171 221.275C194.801 213.192 194.801 205.072 194.171 196.989H180.407Z" fill="url(#paint88_linear_225_296)"/>
<path d="M181.168 160.4C181.168 160.4 170.065 156.499 166.184 149.857C163.615 145.738 161.97 141.111 161.362 136.294L156.641 137.134C156.641 137.134 156.141 148.897 162.223 157.919C168.304 166.942 182.468 172.723 182.468 172.723L181.168 160.4Z" fill="url(#paint89_linear_225_296)"/>
<path d="M155.041 131.293C155.041 130.032 154.401 126.392 154.421 125.471C154.441 124.551 155.961 123.811 156.961 123.471C157.962 123.131 158.442 124.211 158.462 125.691C158.471 126.963 158.932 128.189 159.762 129.152C160.282 128.012 160.202 126.792 160.762 127.152C161.322 127.512 161.302 128.492 161.062 130.073C161.057 130.51 160.975 130.943 160.822 131.353C160.588 131.843 160.394 132.352 160.242 132.873C160.242 132.873 159.842 134.514 159.782 134.874C159.782 134.874 156.361 135.074 156.261 134.374C156.161 133.673 155.081 132.613 155.041 131.293Z" fill="#F8D2A1"/>
<path d="M170.505 196.149C170.279 202.032 170.573 207.923 171.385 213.753C173.045 226.036 173.826 255.544 173.826 255.544H179.187C179.187 255.544 181.068 234.159 182.128 221.275C182.878 213.057 184.391 204.927 186.649 196.989L170.505 196.149Z" fill="url(#paint90_linear_225_296)"/>
<path d="M169.344 200.63C169.344 200.63 170.005 193.508 170.965 182.086C171.883 174.103 173.902 166.287 176.967 158.86C176.967 158.86 179.447 158.86 180.968 158.86C183.208 158.86 189.37 158.86 189.37 158.86C191.374 161.684 192.69 164.938 193.211 168.362C193.791 173.543 195.211 201.79 195.211 201.79C190.464 203.923 185.311 205.001 180.107 204.951C171.045 205.051 169.344 200.63 169.344 200.63Z" fill="url(#paint91_linear_225_296)"/>
<path d="M177.447 149.177C177.447 149.177 173.446 140.435 179.927 137.174C185.449 134.374 189.77 137.714 191.93 139.915L196.172 141.275C196.172 141.275 194.311 144.956 182.168 148.577C180.651 149.094 179.045 149.298 177.447 149.177Z" fill="url(#paint92_linear_225_296)"/>
<path d="M176.786 266.867L179.187 264.406V255.544H173.826L174.386 264.406L176.786 266.867Z" fill="url(#paint93_linear_225_296)"/>
<path d="M187.009 255.544V265.806H191.81L192.431 255.544H187.009Z" fill="url(#paint94_linear_225_296)"/>
<path d="M165.464 313.678H222.478V271.408H165.464V313.678Z" stroke="#97A3CC" stroke-width="1.11" stroke-miterlimit="10"/>
<path d="M165.463 313.678L222.478 271.408" stroke="#97A3CC" stroke-width="1.11" stroke-miterlimit="10"/>
<path d="M165.463 271.408L222.478 313.678" stroke="#97A3CC" stroke-width="1.11" stroke-miterlimit="10"/>
<path d="M142.517 313.678H165.463V271.408H142.517V313.678Z" stroke="#97A3CC" stroke-width="1.11" stroke-miterlimit="10"/>
<path d="M142.537 313.678L165.463 271.408" stroke="#97A3CC" stroke-width="1.11" stroke-miterlimit="10"/>
<path d="M142.537 271.408L165.463 313.678" stroke="#97A3CC" stroke-width="1.11" stroke-miterlimit="10"/>
<path d="M165.463 271.408V313.678" stroke="#97A3CC" stroke-width="2.23" stroke-miterlimit="10"/>
<path d="M222.939 314.559L222.478 271.408H142.537V314.559" stroke="#97A3CC" stroke-width="2.23" stroke-miterlimit="10"/>
<path d="M188.135 78.4853C189.307 78.4267 190.182 78.6767 190.76 79.2351C191.337 79.757 191.657 80.6405 191.719 81.8856C191.787 83.2406 191.697 86.2187 191.45 90.8202C191.201 95.385 190.912 100.264 190.585 105.457L188.387 105.566C187.543 100.432 186.77 95.6065 186.067 91.0893C185.362 86.5355 184.975 83.5811 184.907 82.2261C184.845 80.981 185.075 80.0701 185.597 79.4933C186.117 78.8799 186.963 78.5439 188.135 78.4853ZM189.684 109.467C190.856 109.408 191.788 109.692 192.48 110.318C193.17 110.908 193.545 111.807 193.606 113.015C193.666 114.224 193.383 115.174 192.757 115.866C192.129 116.522 191.229 116.879 190.057 116.937C188.885 116.996 187.954 116.73 187.264 116.141C186.572 115.515 186.196 114.597 186.135 113.389C186.075 112.18 186.359 111.248 186.987 110.593C187.613 109.901 188.512 109.525 189.684 109.467Z" fill="#231F20"/>
<path d="M155.081 123.511L225.679 119.91L187.389 63.1758L155.081 123.511Z" stroke="#231F20" stroke-width="1.43" stroke-linecap="round" stroke-linejoin="round"/>
<path d="M410.682 65H254.921C253.308 65 252 66.3077 252 67.9207V126.375C252 127.988 253.308 129.296 254.921 129.296H410.682C412.295 129.296 413.602 127.988 413.602 126.375V67.9207C413.602 66.3077 412.295 65 410.682 65Z" fill="#4E5683"/>
<path d="M310.978 103.018L310.974 110.081L278.193 110.064L277.758 104.595L296.743 74.5109L303.899 74.5146L296.142 87.4793L286.697 103.006L310.978 103.018ZM305.837 74.5156L305.813 120.016L296.813 120.011L296.837 74.5109L305.837 74.5156ZM346.483 93.2869L346.479 101.162C346.477 104.579 346.111 107.526 345.381 110.005C344.65 112.463 343.597 114.483 342.221 116.066C340.866 117.628 339.251 118.783 337.376 119.532C335.5 120.281 333.417 120.655 331.125 120.654C329.292 120.653 327.583 120.423 326 119.964C324.417 119.484 322.991 118.743 321.72 117.743C320.471 116.742 319.388 115.481 318.472 113.96C317.577 112.418 316.891 110.584 316.413 108.459C315.935 106.333 315.696 103.896 315.698 101.146L315.702 93.2708C315.704 89.8541 316.07 86.9272 316.8 84.4901C317.551 82.0322 318.605 80.0223 319.96 78.4605C321.335 76.8987 322.961 75.7538 324.836 75.0256C326.712 74.2766 328.795 73.9026 331.087 73.9038C332.92 73.9048 334.618 74.1453 336.18 74.6253C337.763 75.0844 339.19 75.8039 340.46 76.7838C341.731 77.7636 342.813 79.0246 343.709 80.5667C344.604 82.088 345.29 83.9113 345.768 86.0365C346.246 88.141 346.485 90.5577 346.483 93.2869ZM337.447 102.345L337.452 92.0634C337.453 90.4176 337.36 88.98 337.174 87.7508C337.007 86.5215 336.748 85.4797 336.394 84.6254C336.04 83.7502 335.603 83.0416 335.083 82.4997C334.562 81.9577 333.968 81.5616 333.302 81.3113C332.635 81.0609 331.896 80.9355 331.083 80.9351C330.062 80.9346 329.156 81.132 328.364 81.5274C327.593 81.9229 326.937 82.5579 326.395 83.4326C325.852 84.2865 325.435 85.4321 325.143 86.8695C324.871 88.286 324.735 90.0151 324.734 92.0568L324.728 102.338C324.728 103.984 324.81 105.432 324.976 106.682C325.163 107.932 325.433 109.005 325.787 109.901C326.161 110.776 326.599 111.495 327.098 112.058C327.619 112.6 328.212 112.996 328.879 113.246C329.566 113.497 330.316 113.622 331.129 113.623C332.129 113.623 333.014 113.426 333.785 113.03C334.577 112.614 335.244 111.969 335.786 111.094C336.349 110.198 336.767 109.032 337.038 107.594C337.31 106.157 337.446 104.407 337.447 102.345ZM374.555 74.4579L374.532 120.052L365.532 120.047L365.55 84.8281L354.736 88.26L354.739 81.1662L373.587 74.4573L374.555 74.4579Z" fill="white"/>
<path d="M408.507 71.958C409.623 71.958 410.528 71.0534 410.528 69.9375C410.528 68.8216 409.623 67.917 408.507 67.917C407.391 67.917 406.487 68.8216 406.487 69.9375C406.487 71.0534 407.391 71.958 408.507 71.958Z" fill="white"/>
<path d="M408.507 125.791C409.623 125.791 410.528 124.887 410.528 123.771C410.528 122.655 409.623 121.75 408.507 121.75C407.391 121.75 406.487 122.655 406.487 123.771C406.487 124.887 407.391 125.791 408.507 125.791Z" fill="white"/>
<path d="M259.708 69.9375C259.708 70.3332 259.591 70.7199 259.371 71.0489C259.151 71.3778 258.839 71.6343 258.473 71.7857C258.108 71.9371 257.705 71.9767 257.317 71.8995C256.929 71.8223 256.573 71.6318 256.293 71.352C256.013 71.0723 255.823 70.7158 255.746 70.3277C255.668 69.9397 255.708 69.5375 255.859 69.1719C256.011 68.8064 256.267 68.4939 256.596 68.2741C256.925 68.0543 257.312 67.937 257.708 67.937C258.238 67.937 258.747 68.1477 259.122 68.5229C259.497 68.8981 259.708 69.4069 259.708 69.9375Z" fill="white"/>
<path d="M259.708 123.771C259.708 124.167 259.591 124.553 259.371 124.882C259.151 125.211 258.839 125.468 258.473 125.619C258.108 125.771 257.705 125.81 257.317 125.733C256.929 125.656 256.573 125.465 256.293 125.185C256.013 124.906 255.823 124.549 255.746 124.161C255.668 123.773 255.708 123.371 255.859 123.005C256.011 122.64 256.267 122.327 256.596 122.108C256.925 121.888 257.312 121.77 257.708 121.77C258.238 121.77 258.747 121.981 259.122 122.356C259.497 122.732 259.708 123.24 259.708 123.771Z" fill="white"/>
<mask id="mask2_225_296" style="mask-type:luminance" maskUnits="userSpaceOnUse" x="438" y="217" width="53" height="88">
<path d="M490.149 304.236H438.895L462.021 219.155C462.171 218.607 462.497 218.124 462.949 217.78C463.401 217.437 463.954 217.252 464.522 217.254C465.088 217.258 465.638 217.446 466.089 217.788C466.539 218.131 466.867 218.61 467.023 219.155L490.149 304.236Z" fill="white"/>
</mask>
<g mask="url(#mask2_225_296)">
<path d="M490.149 304.236H438.895L462.021 219.155C462.171 218.607 462.497 218.124 462.949 217.78C463.401 217.437 463.954 217.252 464.522 217.254C465.088 217.258 465.638 217.446 466.089 217.788C466.539 218.131 466.867 218.61 467.023 219.155L490.149 304.236Z" fill="url(#paint95_linear_225_296)"/>
<path d="M482.387 234.679H445.777V246.302H482.387V234.679Z" fill="white"/>
<path d="M482.387 257.304H445.777V268.927H482.387V257.304Z" fill="white"/>
<path d="M489.889 279.91H438.275V291.533H489.889V279.91Z" fill="white"/>
</g>
<path d="M501.332 301.855H426.832V312.218H501.332V301.855Z" fill="url(#paint96_linear_225_296)"/>
<defs>
<linearGradient id="paint0_linear_225_296" x1="0" y1="311.418" x2="533" y2="311.418" gradientUnits="userSpaceOnUse">
<stop stop-color="#EEF4FB"/>
<stop offset="0.31" stop-color="#E3EDF8"/>
<stop offset="1" stop-color="#CFE1F3"/>
</linearGradient>
<linearGradient id="paint1_linear_225_296" x1="82.1015" y1="217.254" x2="82.1015" y2="304.236" gradientUnits="userSpaceOnUse">
<stop stop-color="#FC9D00"/>
<stop offset="1" stop-color="#F3510F"/>
</linearGradient>
<linearGradient id="paint2_linear_225_296" x1="81.6614" y1="301.855" x2="81.6614" y2="312.198" gradientUnits="userSpaceOnUse">
<stop stop-color="#FC9D00"/>
<stop offset="1" stop-color="#F3510F"/>
</linearGradient>
<linearGradient id="paint3_linear_225_296" x1="282.154" y1="305.836" x2="279.694" y2="262.386" gradientUnits="userSpaceOnUse">
<stop stop-color="#EEF4FB"/>
<stop offset="0.31" stop-color="#E3EDF8"/>
<stop offset="1" stop-color="#CFE1F3"/>
</linearGradient>
<linearGradient id="paint4_linear_225_296" x1="282.354" y1="250.503" x2="281.534" y2="302.296" gradientUnits="userSpaceOnUse">
<stop stop-color="#75769A"/>
<stop offset="0.97" stop-color="white" stop-opacity="0"/>
</linearGradient>
<linearGradient id="paint5_linear_225_296" x1="281.634" y1="285.251" x2="281.634" y2="295.854" gradientUnits="userSpaceOnUse">
<stop stop-color="#EEF4FB"/>
<stop offset="0.31" stop-color="#E3EDF8"/>
<stop offset="1" stop-color="#CFE1F3"/>
</linearGradient>
<linearGradient id="paint6_linear_225_296" x1="282.534" y1="186.467" x2="281.094" y2="258.004" gradientUnits="userSpaceOnUse">
<stop stop-color="#EEF4FB"/>
<stop offset="0.31" stop-color="#E3EDF8"/>
<stop offset="1" stop-color="#CFE1F3"/>
</linearGradient>
<radialGradient id="paint7_radial_225_296" cx="0" cy="0" r="1" gradientUnits="userSpaceOnUse" gradientTransform="translate(255.26 197.342) scale(224.579 53.8982)">
<stop stop-color="white"/>
<stop offset="1" stop-color="white" stop-opacity="0"/>
</radialGradient>
<linearGradient id="paint8_linear_225_296" x1="128.934" y1="163.261" x2="118.591" y2="218.095" gradientUnits="userSpaceOnUse">
<stop stop-color="#ACED86"/>
<stop offset="0.05" stop-color="#96ED8D"/>
<stop offset="0.16" stop-color="#5EED9F"/>
<stop offset="0.21" stop-color="#41EDA9"/>
<stop offset="1" stop-color="#4D6191"/>
</linearGradient>
<linearGradient id="paint9_linear_225_296" x1="189.25" y1="175.144" x2="198.852" y2="226.057" gradientUnits="userSpaceOnUse">
<stop stop-color="#ACED86"/>
<stop offset="0.05" stop-color="#96ED8D"/>
<stop offset="0.16" stop-color="#5EED9F"/>
<stop offset="0.21" stop-color="#41EDA9"/>
<stop offset="1" stop-color="#4D6191"/>
</linearGradient>
<linearGradient id="paint10_linear_225_296" x1="420.23" y1="168.022" x2="420.23" y2="201.73" gradientUnits="userSpaceOnUse">
<stop stop-color="#ACED86"/>
<stop offset="0.05" stop-color="#96ED8D"/>
<stop offset="0.16" stop-color="#5EED9F"/>
<stop offset="0.21" stop-color="#41EDA9"/>
<stop offset="1" stop-color="#4D6191"/>
</linearGradient>
<linearGradient id="paint11_linear_225_296" x1="368.017" y1="182.886" x2="368.017" y2="203.271" gradientUnits="userSpaceOnUse">
<stop stop-color="#ACED86"/>
<stop offset="0.05" stop-color="#96ED8D"/>
<stop offset="0.16" stop-color="#5EED9F"/>
<stop offset="0.21" stop-color="#41EDA9"/>
<stop offset="1" stop-color="#4D6191"/>
</linearGradient>
<linearGradient id="paint12_linear_225_296" x1="164.583" y1="189.527" x2="164.583" y2="203.271" gradientUnits="userSpaceOnUse">
<stop stop-color="#ACED86"/>
<stop offset="0.05" stop-color="#96ED8D"/>
<stop offset="0.16" stop-color="#5EED9F"/>
<stop offset="0.21" stop-color="#41EDA9"/>
<stop offset="1" stop-color="#4D6191"/>
</linearGradient>
<linearGradient id="paint13_linear_225_296" x1="92.7043" y1="180.865" x2="96.1251" y2="207.352" gradientUnits="userSpaceOnUse">
<stop stop-color="#ACED86"/>
<stop offset="0.05" stop-color="#96ED8D"/>
<stop offset="0.16" stop-color="#5EED9F"/>
<stop offset="0.21" stop-color="#41EDA9"/>
<stop offset="1" stop-color="#4D6191"/>
</linearGradient>
<linearGradient id="paint14_linear_225_296" x1="289.036" y1="182.406" x2="282.334" y2="217.975" gradientUnits="userSpaceOnUse">
<stop stop-color="#ACED86"/>
<stop offset="0.05" stop-color="#96ED8D"/>
<stop offset="0.16" stop-color="#5EED9F"/>
<stop offset="0.21" stop-color="#41EDA9"/>
<stop offset="1" stop-color="#4D6191"/>
</linearGradient>
<linearGradient id="paint15_linear_225_296" x1="280.294" y1="282.291" x2="280.294" y2="304.276" gradientUnits="userSpaceOnUse">
<stop stop-color="#EEF4FB"/>
<stop offset="0.31" stop-color="#E3EDF8"/>
<stop offset="1" stop-color="#CFE1F3"/>
</linearGradient>
<linearGradient id="paint16_linear_225_296" x1="280.294" y1="313.458" x2="280.294" y2="304.276" gradientUnits="userSpaceOnUse">
<stop stop-color="#EEF4FB"/>
<stop offset="0.31" stop-color="#E3EDF8"/>
<stop offset="1" stop-color="#CFE1F3"/>
</linearGradient>
<linearGradient id="paint17_linear_225_296" x1="280.734" y1="278.49" x2="279.954" y2="331.183" gradientUnits="userSpaceOnUse">
<stop stop-color="#75769A"/>
<stop offset="0.97" stop-color="white" stop-opacity="0"/>
</linearGradient>
<linearGradient id="paint18_linear_225_296" x1="172.505" y1="284.251" x2="172.505" y2="285.931" gradientUnits="userSpaceOnUse">
<stop stop-color="white"/>
<stop offset="1" stop-color="white" stop-opacity="0"/>
</linearGradient>
<linearGradient id="paint19_linear_225_296" x1="188.63" y1="284.251" x2="188.63" y2="285.932" gradientUnits="userSpaceOnUse">
<stop stop-color="white"/>
<stop offset="1" stop-color="white" stop-opacity="0"/>
</linearGradient>
<linearGradient id="paint20_linear_225_296" x1="204.754" y1="284.251" x2="204.754" y2="285.931" gradientUnits="userSpaceOnUse">
<stop stop-color="white"/>
<stop offset="1" stop-color="white" stop-opacity="0"/>
</linearGradient>
<linearGradient id="paint21_linear_225_296" x1="220.898" y1="284.251" x2="220.898" y2="285.931" gradientUnits="userSpaceOnUse">
<stop stop-color="white"/>
<stop offset="1" stop-color="white" stop-opacity="0"/>
</linearGradient>
<linearGradient id="paint22_linear_225_296" x1="237.022" y1="284.251" x2="237.022" y2="285.931" gradientUnits="userSpaceOnUse">
<stop stop-color="white"/>
<stop offset="1" stop-color="white" stop-opacity="0"/>
</linearGradient>
<linearGradient id="paint23_linear_225_296" x1="253.147" y1="284.251" x2="253.147" y2="285.931" gradientUnits="userSpaceOnUse">
<stop stop-color="white"/>
<stop offset="1" stop-color="white" stop-opacity="0"/>
</linearGradient>
<linearGradient id="paint24_linear_225_296" x1="269.291" y1="284.251" x2="269.291" y2="285.931" gradientUnits="userSpaceOnUse">
<stop stop-color="white"/>
<stop offset="1" stop-color="white" stop-opacity="0"/>
</linearGradient>
<linearGradient id="paint25_linear_225_296" x1="285.475" y1="284.251" x2="285.475" y2="285.931" gradientUnits="userSpaceOnUse">
<stop stop-color="white"/>
<stop offset="1" stop-color="white" stop-opacity="0"/>
</linearGradient>
<linearGradient id="paint26_linear_225_296" x1="301.599" y1="284.251" x2="301.599" y2="285.931" gradientUnits="userSpaceOnUse">
<stop stop-color="white"/>
<stop offset="1" stop-color="white" stop-opacity="0"/>
</linearGradient>
<linearGradient id="paint27_linear_225_296" x1="317.743" y1="284.251" x2="317.743" y2="285.931" gradientUnits="userSpaceOnUse">
<stop stop-color="white"/>
<stop offset="1" stop-color="white" stop-opacity="0"/>
</linearGradient>
<linearGradient id="paint28_linear_225_296" x1="333.868" y1="284.251" x2="333.868" y2="285.932" gradientUnits="userSpaceOnUse">
<stop stop-color="white"/>
<stop offset="1" stop-color="white" stop-opacity="0"/>
</linearGradient>
<linearGradient id="paint29_linear_225_296" x1="349.992" y1="284.251" x2="349.992" y2="285.931" gradientUnits="userSpaceOnUse">
<stop stop-color="white"/>
<stop offset="1" stop-color="white" stop-opacity="0"/>
</linearGradient>
<linearGradient id="paint30_linear_225_296" x1="367.997" y1="284.251" x2="367.997" y2="285.932" gradientUnits="userSpaceOnUse">
<stop stop-color="white"/>
<stop offset="1" stop-color="white" stop-opacity="0"/>
</linearGradient>
<linearGradient id="paint31_linear_225_296" x1="387.862" y1="284.251" x2="387.862" y2="285.931" gradientUnits="userSpaceOnUse">
<stop stop-color="white"/>
<stop offset="1" stop-color="white" stop-opacity="0"/>
</linearGradient>
<linearGradient id="paint32_linear_225_296" x1="153.22" y1="297.654" x2="153.22" y2="302.116" gradientUnits="userSpaceOnUse">
<stop stop-color="white"/>
<stop offset="1" stop-color="white" stop-opacity="0"/>
</linearGradient>
<linearGradient id="paint33_linear_225_296" x1="172.225" y1="297.654" x2="172.225" y2="302.116" gradientUnits="userSpaceOnUse">
<stop stop-color="white"/>
<stop offset="1" stop-color="white" stop-opacity="0"/>
</linearGradient>
<linearGradient id="paint34_linear_225_296" x1="191.23" y1="297.654" x2="191.23" y2="302.115" gradientUnits="userSpaceOnUse">
<stop stop-color="white"/>
<stop offset="1" stop-color="white" stop-opacity="0"/>
</linearGradient>
<linearGradient id="paint35_linear_225_296" x1="210.235" y1="297.654" x2="210.235" y2="302.116" gradientUnits="userSpaceOnUse">
<stop stop-color="white"/>
<stop offset="1" stop-color="white" stop-opacity="0"/>
</linearGradient>
<linearGradient id="paint36_linear_225_296" x1="257.448" y1="297.654" x2="257.448" y2="302.116" gradientUnits="userSpaceOnUse">
<stop stop-color="white"/>
<stop offset="1" stop-color="white" stop-opacity="0"/>
</linearGradient>
<linearGradient id="paint37_linear_225_296" x1="305.48" y1="297.654" x2="305.48" y2="302.116" gradientUnits="userSpaceOnUse">
<stop stop-color="white"/>
<stop offset="1" stop-color="white" stop-opacity="0"/>
</linearGradient>
<linearGradient id="paint38_linear_225_296" x1="324.485" y1="297.654" x2="324.485" y2="302.116" gradientUnits="userSpaceOnUse">
<stop stop-color="white"/>
<stop offset="1" stop-color="white" stop-opacity="0"/>
</linearGradient>
<linearGradient id="paint39_linear_225_296" x1="343.49" y1="297.654" x2="343.49" y2="302.116" gradientUnits="userSpaceOnUse">
<stop stop-color="white"/>
<stop offset="1" stop-color="white" stop-opacity="0"/>
</linearGradient>
<linearGradient id="paint40_linear_225_296" x1="387.542" y1="300.335" x2="387.542" y2="302.116" gradientUnits="userSpaceOnUse">
<stop stop-color="white"/>
<stop offset="1" stop-color="white" stop-opacity="0"/>
</linearGradient>
<linearGradient id="paint41_linear_225_296" x1="408.727" y1="300.335" x2="408.727" y2="302.116" gradientUnits="userSpaceOnUse">
<stop stop-color="white"/>
<stop offset="1" stop-color="white" stop-opacity="0"/>
</linearGradient>
<linearGradient id="paint42_linear_225_296" x1="366.336" y1="300.335" x2="366.336" y2="302.116" gradientUnits="userSpaceOnUse">
<stop stop-color="white"/>
<stop offset="1" stop-color="white" stop-opacity="0"/>
</linearGradient>
<linearGradient id="paint43_linear_225_296" x1="384.561" y1="297.654" x2="384.561" y2="299.315" gradientUnits="userSpaceOnUse">
<stop stop-color="white"/>
<stop offset="1" stop-color="white" stop-opacity="0"/>
</linearGradient>
<linearGradient id="paint44_linear_225_296" x1="168.764" y1="286.632" x2="168.764" y2="289.252" gradientUnits="userSpaceOnUse">
<stop stop-color="white"/>
<stop offset="1" stop-color="white" stop-opacity="0"/>
</linearGradient>
<linearGradient id="paint45_linear_225_296" x1="185.449" y1="286.632" x2="185.449" y2="289.252" gradientUnits="userSpaceOnUse">
<stop stop-color="white"/>
<stop offset="1" stop-color="white" stop-opacity="0"/>
</linearGradient>
<linearGradient id="paint46_linear_225_296" x1="202.133" y1="286.632" x2="202.133" y2="289.252" gradientUnits="userSpaceOnUse">
<stop stop-color="white"/>
<stop offset="1" stop-color="white" stop-opacity="0"/>
</linearGradient>
<linearGradient id="paint47_linear_225_296" x1="218.818" y1="286.632" x2="218.818" y2="289.252" gradientUnits="userSpaceOnUse">
<stop stop-color="white"/>
<stop offset="1" stop-color="white" stop-opacity="0"/>
</linearGradient>
<linearGradient id="paint48_linear_225_296" x1="235.502" y1="286.632" x2="235.502" y2="289.252" gradientUnits="userSpaceOnUse">
<stop stop-color="white"/>
<stop offset="1" stop-color="white" stop-opacity="0"/>
</linearGradient>
<linearGradient id="paint49_linear_225_296" x1="252.186" y1="286.632" x2="252.186" y2="289.252" gradientUnits="userSpaceOnUse">
<stop stop-color="white"/>
<stop offset="1" stop-color="white" stop-opacity="0"/>
</linearGradient>
<linearGradient id="paint50_linear_225_296" x1="268.871" y1="286.632" x2="268.871" y2="289.252" gradientUnits="userSpaceOnUse">
<stop stop-color="white"/>
<stop offset="1" stop-color="white" stop-opacity="0"/>
</linearGradient>
<linearGradient id="paint51_linear_225_296" x1="285.675" y1="286.632" x2="285.675" y2="289.252" gradientUnits="userSpaceOnUse">
<stop stop-color="white"/>
<stop offset="1" stop-color="white" stop-opacity="0"/>
</linearGradient>
<linearGradient id="paint52_linear_225_296" x1="302.379" y1="286.632" x2="302.379" y2="289.252" gradientUnits="userSpaceOnUse">
<stop stop-color="white"/>
<stop offset="1" stop-color="white" stop-opacity="0"/>
</linearGradient>
<linearGradient id="paint53_linear_225_296" x1="319.064" y1="286.632" x2="319.064" y2="289.252" gradientUnits="userSpaceOnUse">
<stop stop-color="white"/>
<stop offset="1" stop-color="white" stop-opacity="0"/>
</linearGradient>
<linearGradient id="paint54_linear_225_296" x1="335.748" y1="286.632" x2="335.748" y2="289.252" gradientUnits="userSpaceOnUse">
<stop stop-color="white"/>
<stop offset="1" stop-color="white" stop-opacity="0"/>
</linearGradient>
<linearGradient id="paint55_linear_225_296" x1="352.433" y1="286.632" x2="352.433" y2="289.252" gradientUnits="userSpaceOnUse">
<stop stop-color="white"/>
<stop offset="1" stop-color="white" stop-opacity="0"/>
</linearGradient>
<linearGradient id="paint56_linear_225_296" x1="371.037" y1="286.632" x2="371.037" y2="289.252" gradientUnits="userSpaceOnUse">
<stop stop-color="white"/>
<stop offset="1" stop-color="white" stop-opacity="0"/>
</linearGradient>
<linearGradient id="paint57_linear_225_296" x1="391.583" y1="286.632" x2="391.583" y2="289.252" gradientUnits="userSpaceOnUse">
<stop stop-color="white"/>
<stop offset="1" stop-color="white" stop-opacity="0"/>
</linearGradient>
<linearGradient id="paint58_linear_225_296" x1="168.404" y1="290.012" x2="168.404" y2="292.853" gradientUnits="userSpaceOnUse">
<stop stop-color="white"/>
<stop offset="1" stop-color="white" stop-opacity="0"/>
</linearGradient>
<linearGradient id="paint59_linear_225_296" x1="194.671" y1="290.012" x2="194.671" y2="292.853" gradientUnits="userSpaceOnUse">
<stop stop-color="white"/>
<stop offset="1" stop-color="white" stop-opacity="0"/>
</linearGradient>
<linearGradient id="paint60_linear_225_296" x1="216.317" y1="290.012" x2="216.317" y2="292.853" gradientUnits="userSpaceOnUse">
<stop stop-color="white"/>
<stop offset="1" stop-color="white" stop-opacity="0"/>
</linearGradient>
<linearGradient id="paint61_linear_225_296" x1="233.681" y1="290.012" x2="233.681" y2="292.853" gradientUnits="userSpaceOnUse">
<stop stop-color="white"/>
<stop offset="1" stop-color="white" stop-opacity="0"/>
</linearGradient>
<linearGradient id="paint62_linear_225_296" x1="251.046" y1="290.012" x2="251.046" y2="292.853" gradientUnits="userSpaceOnUse">
<stop stop-color="white"/>
<stop offset="1" stop-color="white" stop-opacity="0"/>
</linearGradient>
<linearGradient id="paint63_linear_225_296" x1="268.411" y1="290.012" x2="268.411" y2="292.853" gradientUnits="userSpaceOnUse">
<stop stop-color="white"/>
<stop offset="1" stop-color="white" stop-opacity="0"/>
</linearGradient>
<linearGradient id="paint64_linear_225_296" x1="285.895" y1="290.012" x2="285.895" y2="292.853" gradientUnits="userSpaceOnUse">
<stop stop-color="white"/>
<stop offset="1" stop-color="white" stop-opacity="0"/>
</linearGradient>
<linearGradient id="paint65_linear_225_296" x1="303.28" y1="290.012" x2="303.28" y2="292.853" gradientUnits="userSpaceOnUse">
<stop stop-color="white"/>
<stop offset="1" stop-color="white" stop-opacity="0"/>
</linearGradient>
<linearGradient id="paint66_linear_225_296" x1="320.624" y1="290.012" x2="320.624" y2="292.853" gradientUnits="userSpaceOnUse">
<stop stop-color="white"/>
<stop offset="1" stop-color="white" stop-opacity="0"/>
</linearGradient>
<linearGradient id="paint67_linear_225_296" x1="337.989" y1="290.012" x2="337.989" y2="292.853" gradientUnits="userSpaceOnUse">
<stop stop-color="white"/>
<stop offset="1" stop-color="white" stop-opacity="0"/>
</linearGradient>
<linearGradient id="paint68_linear_225_296" x1="355.353" y1="290.012" x2="355.353" y2="292.853" gradientUnits="userSpaceOnUse">
<stop stop-color="white"/>
<stop offset="1" stop-color="white" stop-opacity="0"/>
</linearGradient>
<linearGradient id="paint69_linear_225_296" x1="372.338" y1="290.012" x2="372.338" y2="292.833" gradientUnits="userSpaceOnUse">
<stop stop-color="white"/>
<stop offset="1" stop-color="white" stop-opacity="0"/>
</linearGradient>
<linearGradient id="paint70_linear_225_296" x1="394.083" y1="290.013" x2="394.083" y2="292.853" gradientUnits="userSpaceOnUse">
<stop stop-color="white"/>
<stop offset="1" stop-color="white" stop-opacity="0"/>
</linearGradient>
<linearGradient id="paint71_linear_225_296" x1="168.244" y1="293.673" x2="168.244" y2="296.754" gradientUnits="userSpaceOnUse">
<stop stop-color="white"/>
<stop offset="1" stop-color="white" stop-opacity="0"/>
</linearGradient>
<linearGradient id="paint72_linear_225_296" x1="195.511" y1="293.673" x2="195.511" y2="296.754" gradientUnits="userSpaceOnUse">
<stop stop-color="white"/>
<stop offset="1" stop-color="white" stop-opacity="0"/>
</linearGradient>
<linearGradient id="paint73_linear_225_296" x1="213.616" y1="293.673" x2="213.616" y2="296.754" gradientUnits="userSpaceOnUse">
<stop stop-color="white"/>
<stop offset="1" stop-color="white" stop-opacity="0"/>
</linearGradient>
<linearGradient id="paint74_linear_225_296" x1="231.721" y1="293.673" x2="231.721" y2="296.754" gradientUnits="userSpaceOnUse">
<stop stop-color="white"/>
<stop offset="1" stop-color="white" stop-opacity="0"/>
</linearGradient>
<linearGradient id="paint75_linear_225_296" x1="249.806" y1="293.673" x2="249.806" y2="296.754" gradientUnits="userSpaceOnUse">
<stop stop-color="white"/>
<stop offset="1" stop-color="white" stop-opacity="0"/>
</linearGradient>
<linearGradient id="paint76_linear_225_296" x1="267.91" y1="293.673" x2="267.91" y2="296.754" gradientUnits="userSpaceOnUse">
<stop stop-color="white"/>
<stop offset="1" stop-color="white" stop-opacity="0"/>
</linearGradient>
<linearGradient id="paint77_linear_225_296" x1="286.135" y1="293.673" x2="286.135" y2="296.754" gradientUnits="userSpaceOnUse">
<stop stop-color="white"/>
<stop offset="1" stop-color="white" stop-opacity="0"/>
</linearGradient>
<linearGradient id="paint78_linear_225_296" x1="304.24" y1="293.673" x2="304.24" y2="296.754" gradientUnits="userSpaceOnUse">
<stop stop-color="white"/>
<stop offset="1" stop-color="white" stop-opacity="0"/>
</linearGradient>
<linearGradient id="paint79_linear_225_296" x1="322.345" y1="293.673" x2="322.345" y2="296.754" gradientUnits="userSpaceOnUse">
<stop stop-color="white"/>
<stop offset="1" stop-color="white" stop-opacity="0"/>
</linearGradient>
<linearGradient id="paint80_linear_225_296" x1="340.429" y1="293.673" x2="340.429" y2="296.754" gradientUnits="userSpaceOnUse">
<stop stop-color="white"/>
<stop offset="1" stop-color="white" stop-opacity="0"/>
</linearGradient>
<linearGradient id="paint81_linear_225_296" x1="358.534" y1="293.673" x2="358.534" y2="296.754" gradientUnits="userSpaceOnUse">
<stop stop-color="white"/>
<stop offset="1" stop-color="white" stop-opacity="0"/>
</linearGradient>
<linearGradient id="paint82_linear_225_296" x1="390.042" y1="293.673" x2="390.042" y2="296.754" gradientUnits="userSpaceOnUse">
<stop stop-color="white"/>
<stop offset="1" stop-color="white" stop-opacity="0"/>
</linearGradient>
<linearGradient id="paint83_linear_225_296" x1="142.117" y1="90.9627" x2="239.183" y2="90.9627" gradientUnits="userSpaceOnUse">
<stop stop-color="#FFD71D"/>
<stop offset="1" stop-color="#FEA000"/>
</linearGradient>
<linearGradient id="paint84_linear_225_296" x1="199.41" y1="142.859" x2="203.782" y2="173.775" gradientUnits="userSpaceOnUse">
<stop stop-color="#FC9D00"/>
<stop offset="1" stop-color="#F3510F"/>
</linearGradient>
<linearGradient id="paint85_linear_225_296" x1="187.009" y1="266.887" x2="197.872" y2="266.887" gradientUnits="userSpaceOnUse">
<stop stop-color="#343A44"/>
<stop offset="0.3" stop-color="#232D3E"/>
<stop offset="0.64" stop-color="#182439"/>
<stop offset="1" stop-color="#142138"/>
</linearGradient>
<linearGradient id="paint86_linear_225_296" x1="174.386" y1="266.887" x2="185.249" y2="266.887" gradientUnits="userSpaceOnUse">
<stop stop-color="#343A44"/>
<stop offset="0.3" stop-color="#232D3E"/>
<stop offset="0.64" stop-color="#182439"/>
<stop offset="1" stop-color="#142138"/>
</linearGradient>
<linearGradient id="paint87_linear_225_296" x1="177.267" y1="146.757" x2="191.31" y2="146.757" gradientUnits="userSpaceOnUse">
<stop stop-color="#343A44"/>
<stop offset="0.3" stop-color="#232D3E"/>
<stop offset="0.64" stop-color="#182439"/>
<stop offset="1" stop-color="#142138"/>
</linearGradient>
<linearGradient id="paint88_linear_225_296" x1="180.427" y1="226.277" x2="194.651" y2="226.277" gradientUnits="userSpaceOnUse">
<stop stop-color="#343A44"/>
<stop offset="0.3" stop-color="#232D3E"/>
<stop offset="0.64" stop-color="#182439"/>
<stop offset="1" stop-color="#142138"/>
</linearGradient>
<linearGradient id="paint89_linear_225_296" x1="165.365" y1="135.299" x2="173.835" y2="174.607" gradientUnits="userSpaceOnUse">
<stop stop-color="#FC9D00"/>
<stop offset="1" stop-color="#F3510F"/>
</linearGradient>
<linearGradient id="paint90_linear_225_296" x1="170.465" y1="225.856" x2="186.649" y2="225.856" gradientUnits="userSpaceOnUse">
<stop stop-color="#343A44"/>
<stop offset="0.3" stop-color="#232D3E"/>
<stop offset="0.64" stop-color="#182439"/>
<stop offset="1" stop-color="#142138"/>
</linearGradient>
<linearGradient id="paint91_linear_225_296" x1="182.288" y1="158.9" x2="182.288" y2="205.011" gradientUnits="userSpaceOnUse">
<stop stop-color="#FC9D00"/>
<stop offset="1" stop-color="#F3510F"/>
</linearGradient>
<linearGradient id="paint92_linear_225_296" x1="186.229" y1="136.014" x2="186.229" y2="149.217" gradientUnits="userSpaceOnUse">
<stop stop-color="#FC9D00"/>
<stop offset="1" stop-color="#F3510F"/>
</linearGradient>
<linearGradient id="paint93_linear_225_296" x1="173.826" y1="261.205" x2="179.187" y2="261.205" gradientUnits="userSpaceOnUse">
<stop stop-color="#343A44"/>
<stop offset="0.3" stop-color="#232D3E"/>
<stop offset="0.64" stop-color="#182439"/>
<stop offset="1" stop-color="#142138"/>
</linearGradient>
<linearGradient id="paint94_linear_225_296" x1="187.009" y1="260.665" x2="192.431" y2="260.665" gradientUnits="userSpaceOnUse">
<stop stop-color="#343A44"/>
<stop offset="0.3" stop-color="#232D3E"/>
<stop offset="0.64" stop-color="#182439"/>
<stop offset="1" stop-color="#142138"/>
</linearGradient>
<linearGradient id="paint95_linear_225_296" x1="464.522" y1="217.254" x2="464.522" y2="304.236" gradientUnits="userSpaceOnUse">
<stop stop-color="#FC9D00"/>
<stop offset="1" stop-color="#F3510F"/>
</linearGradient>
<linearGradient id="paint96_linear_225_296" x1="464.082" y1="301.855" x2="464.082" y2="312.198" gradientUnits="userSpaceOnUse">
<stop stop-color="#FC9D00"/>
<stop offset="1" stop-color="#F3510F"/>
</linearGradient>
</defs>
</svg>
