<svg width="533" height="320" viewBox="0 0 533 320" fill="none" xmlns="http://www.w3.org/2000/svg">
<g clip-path="url(#clip0_225_295)">
<path d="M533 322.04H0L39.6304 304.816H493.37L533 322.04Z" fill="url(#paint0_linear_225_295)"/>
<mask id="mask0_225_295" style="mask-type:luminance" maskUnits="userSpaceOnUse" x="56" y="219" width="52" height="88">
<path d="M107.728 306.236H56.4748L79.6009 221.155C79.7535 220.609 80.0805 220.128 80.5319 219.784C80.9833 219.441 81.5345 219.255 82.1015 219.254C82.6694 219.252 83.2222 219.437 83.6743 219.78C84.1264 220.124 84.4525 220.607 84.6022 221.155L107.728 306.236Z" fill="white"/>
</mask>
<g mask="url(#mask0_225_295)">
<path d="M107.728 306.236H56.4748L79.6009 221.155C79.7535 220.609 80.0805 220.128 80.5319 219.784C80.9833 219.441 81.5345 219.255 82.1015 219.254C82.6694 219.252 83.2222 219.437 83.6743 219.78C84.1264 220.124 84.4525 220.607 84.6022 221.155L107.728 306.236Z" fill="url(#paint1_linear_225_295)"/>
<path d="M99.9663 236.679H63.3566V248.302H99.9663V236.679Z" fill="white"/>
<path d="M99.9663 259.304H63.3566V270.927H99.9663V259.304Z" fill="white"/>
<path d="M107.468 281.91H55.8547V293.533H107.468V281.91Z" fill="white"/>
</g>
<path d="M118.911 303.855H44.4117V314.218H118.911V303.855Z" fill="url(#paint2_linear_225_295)"/>
<path d="M339.729 298.514H223.539L234.702 256.444H328.566L339.729 298.514Z" fill="url(#paint3_linear_225_295)"/>
<path style="mix-blend-mode:multiply" d="M339.729 298.514H223.539L234.702 256.444H328.566L339.729 298.514Z" fill="url(#paint4_linear_225_295)"/>
<path d="M367.917 300.415H195.331L200.433 288.712H362.815L367.917 300.415Z" fill="url(#paint5_linear_225_295)"/>
<path d="M450.018 262.645H112.57C110.072 262.64 107.679 261.645 105.913 259.88C104.147 258.114 103.152 255.72 103.147 253.223L103.787 11.4423C103.803 8.93947 104.806 6.54394 106.577 4.77599C108.349 3.00804 110.747 2.01049 113.25 2H450.698C453.198 2.01056 455.591 3.00939 457.356 4.77847C459.122 6.54754 460.116 8.94314 460.121 11.4423L459.481 253.223C459.46 255.722 458.455 258.113 456.684 259.876C454.912 261.64 452.518 262.635 450.018 262.645Z" fill="#4E5683"/>
<path d="M450.278 262.645H112.83C110.332 262.64 107.939 261.645 106.173 259.88C104.407 258.114 103.412 255.72 103.407 253.223L103.527 213.373H459.841V253.223C459.82 255.74 458.801 258.145 457.008 259.912C455.215 261.678 452.795 262.661 450.278 262.645Z" fill="url(#paint6_linear_225_295)"/>
<path style="mix-blend-mode:overlay" opacity="0.7" d="M450.278 263.245H112.83C110.332 263.24 107.939 262.246 106.173 260.48C104.407 258.714 103.412 256.32 103.407 253.823L103.527 213.973H459.841V253.823C459.82 256.34 458.801 258.745 457.008 260.512C455.215 262.278 452.795 263.261 450.278 263.245Z" fill="url(#paint7_radial_225_295)"/>
<mask id="mask1_225_295" style="mask-type:luminance" maskUnits="userSpaceOnUse" x="115" y="14" width="333" height="188">
<path d="M115.61 201.99L116.11 14.4431H447.658L447.157 201.99H115.61Z" fill="white"/>
</mask>
<g mask="url(#mask1_225_295)">
<path d="M115.61 201.99L116.09 14.4231H447.658L447.157 201.99H115.61Z" fill="white"/>
<path d="M184.949 205.311H56.1348C56.3282 200.528 57.9985 195.922 60.916 192.128C63.2192 188.872 66.2462 186.194 69.7591 184.306C73.272 182.417 77.175 181.37 81.1613 181.245C93.6246 180.945 106.548 189.647 117.771 184.226C122.552 181.925 125.773 177.424 129.774 173.803C133.775 170.182 139.137 167.221 144.158 168.982C150.56 171.242 152.82 180.885 158.722 184.246C163.603 187.006 173.205 181.925 182.488 186.886C184.026 187.799 185.337 189.049 186.323 190.541C187.31 192.033 187.945 193.73 188.182 195.502C188.418 197.275 188.25 199.079 187.691 200.778C187.131 202.476 186.193 204.026 184.949 205.311Z" fill="url(#paint8_linear_225_295)"/>
<path d="M121.152 210.632C122.262 211.228 123.467 211.627 124.713 211.812H270.431C270.239 207.37 268.682 203.094 265.97 199.569C263.831 196.548 261.023 194.062 257.764 192.306C254.505 190.55 250.885 189.572 247.185 189.447C235.622 189.187 223.619 197.269 213.176 192.228C208.715 190.087 205.654 185.926 202.053 182.545C198.452 179.164 193.351 176.424 188.69 178.064C182.688 180.165 180.888 188.067 175.406 191.187C170.865 193.748 165.163 192.368 160.322 190.407C155.481 188.447 150.58 185.926 145.378 186.406C142.673 186.703 140.116 187.794 138.029 189.542C135.943 191.29 134.421 193.617 133.655 196.229C132.395 201.41 116.751 207.411 121.152 210.632Z" fill="url(#paint9_linear_225_295)"/>
<path d="M491.629 201.77C491.629 201.77 482.247 185.346 480.726 183.645C471.064 172.963 458.26 172.843 445.237 175.543C441.456 176.324 431.473 181.545 427.852 180.845C425.032 180.285 421.631 169.542 412.608 170.122C403.586 170.702 403.026 181.405 403.026 181.405C403.026 181.405 397.364 168.942 388.342 170.102C379.32 171.262 379.3 179.664 386.081 185.886C376.628 183.457 366.631 184.296 357.714 188.267C343.71 194.948 350.412 203.73 350.412 203.73L491.629 201.77Z" fill="url(#paint10_linear_225_295)"/>
<path d="M493.13 205.271H242.904C242.904 205.271 270.011 193.408 293.297 194.268C316.583 195.128 340.709 196.269 365.316 194.268C389.922 192.268 402.146 181.185 433.054 186.266C463.962 191.347 463.962 197.269 472.844 197.269C481.727 197.269 493.13 205.271 493.13 205.271Z" fill="url(#paint11_linear_225_295)"/>
<path d="M233.601 205.271H95.5652C95.5652 205.271 111.229 195.048 129.854 195.088C148.479 195.128 145.858 199.409 165.003 197.749C184.148 196.089 187.009 188.347 208.195 192.988C217.445 195.215 226.11 199.404 233.601 205.271Z" fill="url(#paint12_linear_225_295)"/>
<path d="M109.789 188.627C106.288 184.826 100.927 181.565 96.1653 183.585C92.6444 185.086 90.7239 188.967 87.423 190.847C82.4017 193.688 76.12 191.127 70.3585 191.567C63.9568 192.027 56.1348 205.111 56.1348 205.111H134.995C134.995 205.111 125.853 200.91 120.672 198.829C116.01 196.929 113.07 192.148 109.789 188.627Z" fill="url(#paint13_linear_225_295)"/>
<path d="M325.385 210.392H241.824C241.94 207.291 243.024 204.304 244.924 201.85C246.414 199.734 248.374 197.992 250.652 196.763C252.929 195.534 255.461 194.851 258.048 194.768C266.05 194.588 274.532 200.23 281.794 196.769C284.915 195.268 287.055 192.368 289.576 190.007C292.097 187.646 295.578 185.726 298.919 186.886C303.06 188.347 304.52 194.608 308.361 196.789C311.522 198.569 317.743 195.288 323.785 198.489C324.772 199.085 325.612 199.894 326.245 200.858C326.877 201.821 327.285 202.915 327.439 204.057C327.592 205.199 327.488 206.361 327.132 207.458C326.777 208.554 326.18 209.557 325.385 210.392Z" fill="url(#paint14_linear_225_295)"/>
</g>
<path d="M433.814 306.276H126.753L159.802 284.271H400.785L433.834 306.276H433.814Z" fill="url(#paint15_linear_225_295)"/>
<path d="M433.814 306.276H126.753V315.458H433.814V306.276Z" fill="url(#paint16_linear_225_295)"/>
<path style="mix-blend-mode:multiply" d="M433.814 306.276H126.753V315.458H433.814V306.276Z" fill="url(#paint17_linear_225_295)"/>
<g style="mix-blend-mode:overlay" opacity="0.7">
<path d="M176.506 287.931H166.404C165.744 287.931 165.484 287.731 165.824 287.491L166.944 286.691C167.476 286.395 168.076 286.243 168.684 286.251H178.687C179.327 286.251 179.607 286.451 179.327 286.691L178.347 287.491C177.788 287.811 177.149 287.964 176.506 287.931Z" fill="url(#paint18_linear_225_295)"/>
<path d="M192.811 287.932H182.668C182.028 287.932 181.728 287.731 182.008 287.491L182.968 286.691C183.468 286.388 184.044 286.235 184.629 286.251H194.631C195.271 286.251 195.591 286.451 195.351 286.691L194.531 287.491C194.017 287.813 193.416 287.967 192.811 287.932Z" fill="url(#paint19_linear_225_295)"/>
<path d="M209.095 287.931H198.972C198.312 287.931 197.972 287.731 198.212 287.491L199.012 286.691C199.48 286.382 200.033 286.228 200.593 286.251H210.595C211.236 286.251 211.596 286.451 211.396 286.691L210.735 287.491C210.258 287.828 209.677 287.984 209.095 287.931Z" fill="url(#paint20_linear_225_295)"/>
<path d="M225.379 287.931H215.257C214.616 287.931 214.236 287.731 214.436 287.491L215.057 286.691C215.498 286.374 216.035 286.218 216.577 286.251H226.42C227.08 286.251 227.46 286.451 227.32 286.691L226.8 287.491C226.395 287.805 225.89 287.961 225.379 287.931Z" fill="url(#paint21_linear_225_295)"/>
<path d="M241.683 287.931H231.561C230.901 287.931 230.481 287.731 230.641 287.491L231.121 286.691C231.52 286.367 232.029 286.21 232.541 286.251H242.544C243.184 286.251 243.604 286.451 243.504 286.691L243.144 287.491C242.964 287.731 242.424 287.931 241.683 287.931Z" fill="url(#paint22_linear_225_295)"/>
<path d="M257.968 287.931H247.845C247.205 287.931 246.745 287.731 246.845 287.491L247.165 286.691C247.165 286.451 247.865 286.251 248.505 286.251H258.508C259.148 286.251 259.608 286.451 259.548 286.691L259.348 287.491C259.208 287.731 258.628 287.931 257.968 287.931Z" fill="url(#paint23_linear_225_295)"/>
<path d="M274.272 287.931H264.149C263.489 287.931 262.989 287.731 263.049 287.491L263.209 286.691C263.209 286.451 263.829 286.251 264.47 286.251H274.472C275.112 286.251 275.612 286.451 275.612 286.691V287.491C275.472 287.731 274.932 287.931 274.272 287.931Z" fill="url(#paint24_linear_225_295)"/>
<path d="M290.556 287.931H280.434C279.773 287.931 279.253 287.731 279.253 287.491V286.651C279.253 286.411 279.773 286.211 280.414 286.211H290.416C291.056 286.211 291.597 286.411 291.637 286.651V287.451C291.717 287.731 291.216 287.931 290.556 287.931Z" fill="url(#paint25_linear_225_295)"/>
<path d="M306.861 287.931H296.738C296.078 287.931 295.518 287.731 295.458 287.491L295.318 286.691C295.318 286.451 295.758 286.251 296.398 286.251H306.4C307.041 286.251 307.621 286.451 307.701 286.691L307.981 287.491C307.981 287.731 307.501 287.931 306.861 287.931Z" fill="url(#paint26_linear_225_295)"/>
<path d="M323.145 287.931H313.022C312.362 287.931 311.762 287.731 311.662 287.491L311.362 286.691C311.362 286.451 311.722 286.251 312.362 286.251H322.365C322.87 286.215 323.371 286.372 323.765 286.691L324.185 287.491C324.225 287.731 323.805 287.931 323.145 287.931Z" fill="url(#paint27_linear_225_295)"/>
<path d="M339.449 287.932H329.326C328.807 287.978 328.29 287.82 327.886 287.491L327.426 286.691C327.286 286.451 327.686 286.251 328.326 286.251H338.329C338.859 286.214 339.385 286.37 339.809 286.691L340.389 287.491C340.449 287.731 340.089 287.932 339.449 287.932Z" fill="url(#paint28_linear_225_295)"/>
<path d="M355.733 287.931H345.611C345.068 287.971 344.528 287.815 344.09 287.491L343.47 286.691C343.29 286.451 343.65 286.251 344.29 286.251H354.293C354.847 286.223 355.395 286.378 355.854 286.691L356.594 287.491C356.734 287.731 356.454 287.931 355.733 287.931Z" fill="url(#paint29_linear_225_295)"/>
<path d="M375.759 287.932H361.895C361.329 287.955 360.769 287.801 360.295 287.491L359.515 286.691C359.294 286.451 359.614 286.251 360.275 286.251H373.838C374.423 286.235 374.999 286.388 375.499 286.691L376.439 287.491C376.719 287.731 376.459 287.932 375.759 287.932Z" fill="url(#paint30_linear_225_295)"/>
<path d="M395.864 287.931H381.86C381.258 287.943 380.663 287.791 380.14 287.491L379.18 286.691C378.899 286.451 379.18 286.251 379.82 286.251H393.483C394.098 286.243 394.705 286.395 395.244 286.691L396.384 287.491C396.784 287.731 396.464 287.931 395.864 287.931Z" fill="url(#paint31_linear_225_295)"/>
<path d="M156.401 304.116H144.398C143.618 304.116 143.358 303.815 143.838 303.475L148.299 300.235C148.955 299.854 149.701 299.654 150.46 299.654H161.983C162.743 299.654 163.023 299.914 162.623 300.235L158.622 303.475C157.956 303.892 157.187 304.114 156.401 304.116Z" fill="url(#paint32_linear_225_295)"/>
<path d="M175.926 304.116H163.923C163.143 304.116 162.843 303.815 163.263 303.475L167.084 300.235C167.682 299.856 168.376 299.654 169.084 299.654H180.627C181.368 299.654 181.708 299.914 181.368 300.235L178.027 303.475C177.413 303.908 176.677 304.133 175.926 304.116Z" fill="url(#paint33_linear_225_295)"/>
<path d="M195.351 304.116H183.348C182.568 304.116 182.208 303.815 182.548 303.475L185.749 300.235C186.332 299.822 187.036 299.618 187.749 299.654H199.292C200.033 299.654 200.433 299.914 200.153 300.235L197.452 303.475C196.858 303.946 196.107 304.175 195.351 304.116Z" fill="url(#paint34_linear_225_295)"/>
<path d="M214.796 304.116H202.793C202.013 304.116 201.613 303.815 201.893 303.475L204.454 300.235C204.962 299.825 205.603 299.619 206.254 299.654H217.797C218.537 299.654 218.978 299.914 218.778 300.235L216.777 303.475C216.513 303.719 216.199 303.903 215.857 304.013C215.515 304.124 215.153 304.159 214.796 304.116Z" fill="url(#paint35_linear_225_295)"/>
<path d="M292.017 304.116H222.679C221.618 304.116 220.858 303.895 221.018 303.655L223.139 300.074C223.786 299.722 224.526 299.575 225.259 299.654H291.497C292.517 299.654 293.377 299.834 293.497 300.074L293.997 303.655C293.937 303.895 293.097 304.116 292.017 304.116Z" fill="url(#paint36_linear_225_295)"/>
<path d="M311.982 304.116H299.979C299.199 304.116 298.518 303.815 298.458 303.475L297.858 300.235C297.858 299.914 298.358 299.654 299.099 299.654H310.642C311.382 299.654 312.082 299.914 312.182 300.235L313.262 303.475C313.302 303.815 312.762 304.116 311.982 304.116Z" fill="url(#paint37_linear_225_295)"/>
<path d="M331.407 304.116H319.404C318.624 304.116 317.884 303.815 317.744 303.475L316.523 300.235C316.403 299.914 316.903 299.654 317.663 299.654H329.187C329.489 299.618 329.796 299.652 330.084 299.752C330.372 299.853 330.633 300.018 330.847 300.235L332.547 303.475C332.687 303.815 332.187 304.116 331.407 304.116Z" fill="url(#paint38_linear_225_295)"/>
<path d="M350.852 304.116H338.849C338.524 304.139 338.198 304.094 337.891 303.983C337.585 303.873 337.304 303.7 337.069 303.475L335.228 300.235C335.048 299.914 335.488 299.654 336.248 299.654H347.791C348.431 299.617 349.06 299.825 349.552 300.235L351.892 303.475C352.052 303.815 351.632 304.116 350.852 304.116Z" fill="url(#paint39_linear_225_295)"/>
<path d="M395.224 304.116H381.66C380.942 304.12 380.242 303.896 379.66 303.475L379.14 302.955C378.799 302.615 379.139 302.335 379.92 302.335H393.243C393.996 302.327 394.734 302.543 395.364 302.955L395.944 303.475C396.324 303.815 396.024 304.116 395.224 304.116Z" fill="url(#paint40_linear_225_295)"/>
<path d="M416.609 304.116H403.046C402.272 304.117 401.515 303.895 400.865 303.475L400.245 302.955C399.825 302.615 400.105 302.335 400.885 302.335H414.209C414.997 302.344 415.769 302.558 416.449 302.955L417.15 303.475C417.63 303.815 417.39 304.116 416.609 304.116Z" fill="url(#paint41_linear_225_295)"/>
<path d="M373.858 304.116H360.295C359.571 304.161 358.857 303.933 358.294 303.475L357.894 302.955C357.634 302.615 358.034 302.335 358.794 302.335H372.118C372.836 302.307 373.542 302.526 374.118 302.955L374.618 303.475C374.999 303.815 374.638 304.116 373.858 304.116Z" fill="url(#paint42_linear_225_295)"/>
<path d="M392.023 301.315H378.84C378.125 301.341 377.421 301.13 376.839 300.715L376.359 300.235C376.039 299.914 376.359 299.654 377.119 299.654H390.082C390.791 299.654 391.485 299.856 392.083 300.235L392.643 300.715C393.083 301.055 392.783 301.315 392.023 301.315Z" fill="url(#paint43_linear_225_295)"/>
<path d="M172.405 291.252H161.882C161.202 291.252 160.942 291.032 161.302 290.772L163.603 289.092C164.159 288.782 164.787 288.623 165.423 288.632H175.646C176.306 288.632 176.586 288.832 176.286 289.092L174.286 290.772C173.716 291.105 173.065 291.272 172.405 291.252Z" fill="url(#paint44_linear_225_295)"/>
<path d="M189.33 291.252H178.807C178.127 291.252 177.827 291.032 178.147 290.772L180.147 289.092C180.671 288.773 181.275 288.613 181.888 288.632H192.091C192.751 288.632 193.071 288.832 192.811 289.092L191.09 290.772C190.566 291.107 189.952 291.275 189.33 291.252Z" fill="url(#paint45_linear_225_295)"/>
<path d="M206.274 291.252H195.751C195.071 291.252 194.731 291.032 194.991 290.772L196.652 289.092C197.134 288.764 197.71 288.603 198.292 288.632H208.415C209.075 288.632 209.455 288.832 209.235 289.092L207.835 290.772C207.38 291.097 206.833 291.265 206.274 291.252Z" fill="url(#paint46_linear_225_295)"/>
<path d="M223.219 291.252H212.696C212.016 291.252 211.636 291.032 211.836 290.772L213.156 289.092C213.604 288.757 214.158 288.593 214.716 288.632H224.919C225.599 288.632 225.999 288.832 225.839 289.092L224.759 290.772C224.326 291.123 223.775 291.295 223.219 291.252Z" fill="url(#paint47_linear_225_295)"/>
<path d="M240.143 291.252H229.62C228.94 291.252 228.52 291.032 228.68 290.772L229.68 289.092C229.882 288.923 230.114 288.795 230.365 288.716C230.615 288.638 230.879 288.609 231.141 288.632H241.363C242.023 288.632 242.464 288.832 242.344 289.092L241.603 290.772C241.483 291.032 240.823 291.252 240.143 291.252Z" fill="url(#paint48_linear_225_295)"/>
<path d="M257.088 291.252H246.565C245.885 291.252 245.424 291.032 245.524 290.772L246.205 289.092C246.305 288.832 246.925 288.632 247.585 288.632H257.788C258.448 288.632 258.928 288.832 258.868 289.092L258.448 290.772C258.428 291.032 257.768 291.252 257.088 291.252Z" fill="url(#paint49_linear_225_295)"/>
<path d="M274.032 291.252H263.509C262.829 291.252 262.309 291.032 262.369 290.772L262.709 289.092C262.709 288.832 263.349 288.632 264.009 288.632H274.212C274.872 288.632 275.392 288.832 275.392 289.092L275.292 290.772C275.272 291.032 274.712 291.252 274.032 291.252Z" fill="url(#paint50_linear_225_295)"/>
<path d="M290.976 291.252H280.434C279.753 291.252 279.213 291.032 279.213 290.772V289.092C279.213 288.832 279.753 288.632 280.414 288.632H290.616C291.297 288.632 291.857 288.832 291.877 289.092L292.117 290.772C292.177 291.032 291.657 291.252 290.976 291.252Z" fill="url(#paint51_linear_225_295)"/>
<path d="M307.901 291.252H297.378C296.698 291.252 296.118 291.032 296.058 290.772L295.758 289.092C295.758 288.832 296.198 288.632 296.858 288.632H307.081C307.741 288.632 308.341 288.832 308.421 289.092L308.981 290.772C309.061 291.032 308.581 291.252 307.901 291.252Z" fill="url(#paint52_linear_225_295)"/>
<path d="M324.845 291.252H314.323C313.642 291.252 313.002 291.032 312.902 290.772L312.282 289.092C312.282 288.832 312.642 288.632 313.302 288.632H323.505C323.764 288.604 324.025 288.631 324.273 288.711C324.521 288.79 324.75 288.92 324.945 289.092L325.826 290.772C325.966 291.032 325.526 291.252 324.845 291.252Z" fill="url(#paint53_linear_225_295)"/>
<path d="M341.79 291.252H331.267C330.994 291.281 330.719 291.253 330.457 291.17C330.195 291.088 329.954 290.952 329.747 290.772L328.786 289.092C328.646 288.832 329.067 288.632 329.727 288.632H339.929C340.476 288.588 341.019 288.753 341.45 289.092L342.67 290.772C342.87 291.032 342.45 291.252 341.79 291.252Z" fill="url(#paint54_linear_225_295)"/>
<path d="M358.714 291.252H348.191C347.618 291.289 347.05 291.119 346.591 290.772L345.311 289.092C345.111 288.832 345.491 288.632 346.151 288.632H356.454C357.031 288.595 357.603 288.757 358.074 289.092L359.615 290.772C359.755 291.032 359.394 291.252 358.714 291.252Z" fill="url(#paint55_linear_225_295)"/>
<path d="M379.54 291.252H365.136C364.533 291.276 363.937 291.108 363.435 290.772L361.835 289.092C361.575 288.832 361.835 288.632 362.595 288.632H376.599C377.205 288.613 377.803 288.773 378.319 289.092L380.32 290.772C380.46 291.032 380.22 291.252 379.54 291.252Z" fill="url(#paint56_linear_225_295)"/>
<path d="M400.465 291.252H385.961C385.328 291.264 384.704 291.098 384.161 290.772L382.16 289.092C381.86 288.832 382.16 288.632 382.821 288.632H396.824C397.467 288.623 398.101 288.782 398.665 289.092L401.005 290.772C401.385 291.032 401.125 291.252 400.465 291.252Z" fill="url(#paint57_linear_225_295)"/>
<path d="M176.066 294.853H157.461C156.501 294.853 155.941 294.673 156.221 294.473L159.102 292.373C159.801 292.097 160.552 291.975 161.302 292.012H179.307C180.247 292.012 180.827 292.173 180.607 292.373L178.227 294.473C177.548 294.774 176.807 294.904 176.066 294.853Z" fill="url(#paint58_linear_225_295)"/>
<path d="M202.753 294.853H184.148C183.168 294.853 182.568 294.693 182.788 294.473L185.049 292.373C185.68 292.103 186.364 291.98 187.049 292.012H205.054C205.994 292.012 206.614 292.173 206.454 292.373L204.714 294.473C204.1 294.756 203.428 294.886 202.753 294.853Z" fill="url(#paint59_linear_225_295)"/>
<path d="M220.858 294.853H209.895C209.195 294.853 208.795 294.613 209.035 294.333L210.475 292.513C210.935 292.151 211.512 291.973 212.096 292.012H222.719C223.399 292.012 223.819 292.232 223.639 292.513L222.478 294.333C222.028 294.713 221.445 294.9 220.858 294.853Z" fill="url(#paint60_linear_225_295)"/>
<path d="M238.423 294.853H227.46C226.74 294.853 226.319 294.613 226.479 294.333L227.56 292.513C227.767 292.326 228.012 292.186 228.277 292.1C228.542 292.014 228.823 291.984 229.1 292.012H239.723C240.403 292.012 240.863 292.233 240.743 292.513L239.923 294.333C239.883 294.653 239.203 294.853 238.423 294.853Z" fill="url(#paint61_linear_225_295)"/>
<path d="M256.127 294.853H245.184C244.464 294.853 243.984 294.613 244.104 294.333L244.824 292.513C244.944 292.233 245.584 292.012 246.265 292.012H256.887C257.568 292.012 258.068 292.233 258.008 292.513L257.548 294.333C257.468 294.653 256.847 294.853 256.127 294.853Z" fill="url(#paint62_linear_225_295)"/>
<path d="M273.772 294.853H262.809C262.109 294.853 261.569 294.613 261.629 294.333L262.009 292.513C262.009 292.233 262.669 292.012 263.349 292.012H273.972C274.652 292.012 275.212 292.233 275.192 292.513V294.333C275.072 294.653 274.432 294.853 273.772 294.853Z" fill="url(#paint63_linear_225_295)"/>
<path d="M291.417 294.853H280.434C279.713 294.853 279.153 294.613 279.153 294.333V292.513C279.153 292.233 279.713 292.012 280.414 292.012H291.016C291.717 292.012 292.297 292.233 292.337 292.513L292.577 294.333C292.657 294.653 292.117 294.853 291.417 294.853Z" fill="url(#paint64_linear_225_295)"/>
<path d="M309.041 294.853H298.078C297.378 294.853 296.758 294.613 296.698 294.333L296.378 292.513C296.378 292.233 296.838 292.012 297.538 292.012H308.141C308.841 292.012 309.461 292.233 309.561 292.513L310.161 294.333C310.241 294.653 309.761 294.853 309.041 294.853Z" fill="url(#paint65_linear_225_295)"/>
<path d="M326.686 294.853H315.723C315.023 294.853 314.343 294.613 314.243 294.333L313.562 292.513C313.562 292.233 313.923 292.012 314.623 292.012H325.225C325.926 292.012 326.586 292.233 326.726 292.513L327.686 294.333C327.846 294.653 327.386 294.853 326.686 294.853Z" fill="url(#paint66_linear_225_295)"/>
<path d="M344.31 294.853H333.368C333.082 294.885 332.793 294.855 332.521 294.765C332.248 294.675 331.998 294.528 331.787 294.333L330.747 292.513C330.587 292.233 331.007 292.012 331.707 292.012H342.31C342.888 291.968 343.461 292.147 343.91 292.513L345.231 294.333C345.431 294.653 345.031 294.853 344.31 294.853Z" fill="url(#paint67_linear_225_295)"/>
<path d="M361.955 294.853H350.992C350.388 294.885 349.792 294.701 349.312 294.333L347.911 292.513C347.711 292.233 348.091 292.012 348.792 292.012H359.394C360.002 291.978 360.603 292.155 361.095 292.513L362.755 294.333C363.015 294.653 362.655 294.853 361.955 294.853Z" fill="url(#paint68_linear_225_295)"/>
<path d="M379.2 294.833H368.237C367.602 294.862 366.975 294.679 366.456 294.313L364.716 292.493C364.456 292.233 364.716 292.012 365.496 292.012H376.099C376.733 291.995 377.358 292.162 377.899 292.493L379.9 294.313C380.22 294.653 379.9 294.833 379.2 294.833Z" fill="url(#paint69_linear_225_295)"/>
<path d="M404.926 294.853H386.602C385.848 294.904 385.093 294.774 384.401 294.473L381.98 292.473C381.76 292.273 382.34 292.113 383.281 292.113H401.025C401.776 292.075 402.526 292.197 403.226 292.473L406.147 294.573C406.467 294.653 405.887 294.853 404.926 294.853Z" fill="url(#paint70_linear_225_295)"/>
<path d="M181.508 298.754H151.68C150.94 298.754 150.7 298.494 151.12 298.194L153.84 296.194C154.448 295.841 155.138 295.655 155.841 295.653H184.689C185.409 295.653 185.749 295.893 185.429 296.194L183.428 298.194C182.861 298.574 182.19 298.769 181.508 298.754Z" fill="url(#paint71_linear_225_295)"/>
<path d="M199.913 298.754H188.41C187.689 298.754 187.329 298.494 187.629 298.194L189.63 296.194C190.16 295.817 190.8 295.627 191.45 295.653H202.513C203.213 295.653 203.593 295.893 203.353 296.194L201.693 298.194C201.182 298.58 200.553 298.778 199.913 298.754Z" fill="url(#paint72_linear_225_295)"/>
<path d="M218.297 298.754H206.874C206.134 298.754 205.734 298.494 205.974 298.194L207.555 296.193C208.035 295.809 208.641 295.616 209.255 295.653H220.418C221.138 295.653 221.558 295.893 221.378 296.193L220.098 298.194C219.852 298.405 219.565 298.564 219.255 298.66C218.946 298.756 218.62 298.788 218.297 298.754Z" fill="url(#paint73_linear_225_295)"/>
<path d="M236.702 298.754H225.279C224.539 298.754 224.079 298.494 224.259 298.194L225.439 296.193C225.658 295.998 225.915 295.849 226.194 295.756C226.472 295.664 226.767 295.629 227.06 295.653H238.122C238.843 295.653 239.303 295.893 239.183 296.193L238.283 298.194C238.143 298.494 237.442 298.754 236.702 298.754Z" fill="url(#paint74_linear_225_295)"/>
<path d="M255.087 298.754H243.664C242.924 298.754 242.424 298.494 242.544 298.194L243.344 296.194C243.464 295.893 244.144 295.653 244.864 295.653H255.907C256.627 295.653 257.148 295.893 257.067 296.194L256.567 298.194C256.427 298.494 255.827 298.754 255.087 298.754Z" fill="url(#paint75_linear_225_295)"/>
<path d="M273.492 298.754H262.069C261.329 298.754 260.769 298.494 260.829 298.194L261.249 296.194C261.249 295.893 261.929 295.653 262.649 295.653H273.712C274.432 295.653 274.992 295.893 274.972 296.194L274.852 298.194C274.852 298.494 274.232 298.754 273.492 298.754Z" fill="url(#paint76_linear_225_295)"/>
<path d="M291.877 298.754H280.434C279.693 298.754 279.093 298.494 279.113 298.194V296.194C279.113 295.893 279.693 295.653 280.414 295.653H291.477C292.177 295.653 292.797 295.893 292.837 296.194L293.117 298.194C293.197 298.494 292.617 298.754 291.877 298.754Z" fill="url(#paint77_linear_225_295)"/>
<path d="M310.281 298.754H298.859C298.118 298.754 297.458 298.494 297.418 298.194L297.058 296.194C297.058 295.893 297.538 295.653 298.238 295.653H309.301C310.021 295.653 310.682 295.893 310.782 296.194L311.442 298.194C311.542 298.494 311.022 298.754 310.281 298.754Z" fill="url(#paint78_linear_225_295)"/>
<path d="M328.666 298.754H317.243C316.503 298.754 315.803 298.494 315.703 298.194L314.943 296.193C314.943 295.893 315.323 295.653 316.043 295.653H327.106C327.393 295.624 327.682 295.657 327.955 295.751C328.228 295.844 328.477 295.995 328.686 296.193L329.727 298.194C329.887 298.494 329.406 298.754 328.666 298.754Z" fill="url(#paint79_linear_225_295)"/>
<path d="M347.071 298.754H335.648C335.348 298.779 335.045 298.743 334.76 298.646C334.474 298.55 334.211 298.396 333.988 298.194L332.847 296.193C332.687 295.893 333.127 295.653 333.848 295.653H344.89C345.499 295.609 346.102 295.803 346.571 296.193L348.011 298.194C348.231 298.494 347.811 298.754 347.071 298.754Z" fill="url(#paint80_linear_225_295)"/>
<path d="M365.476 298.754H354.033C353.398 298.787 352.772 298.588 352.272 298.194L350.752 296.193C350.532 295.893 350.912 295.653 351.632 295.653H362.695C363.333 295.622 363.963 295.813 364.476 296.193L366.296 298.194C366.576 298.494 366.216 298.754 365.476 298.754Z" fill="url(#paint81_linear_225_295)"/>
<path d="M410.788 298.754H372.458C371.787 298.773 371.128 298.577 370.577 298.194L368.677 296.194C368.377 295.893 368.677 295.653 369.457 295.653H406.467C407.169 295.655 407.859 295.841 408.467 296.194L411.228 298.194C411.768 298.494 411.528 298.754 410.788 298.754Z" fill="url(#paint82_linear_225_295)"/>
</g>
<path d="M146.398 135.013L235.382 130.472C236.1 130.446 236.797 130.227 237.402 129.839C238.006 129.45 238.494 128.906 238.816 128.263C239.137 127.62 239.279 126.903 239.228 126.187C239.176 125.47 238.933 124.781 238.523 124.191L190.21 52.5926C189.825 52.0127 189.296 51.5431 188.675 51.2302C188.053 50.9172 187.361 50.7718 186.666 50.8081C185.971 50.8445 185.298 51.0614 184.713 51.4375C184.127 51.8136 183.65 52.3359 183.328 52.9527L142.597 128.972C142.217 129.606 142.02 130.333 142.028 131.072C142.036 131.811 142.249 132.534 142.642 133.16C143.036 133.786 143.595 134.29 144.258 134.617C144.922 134.945 145.662 135.082 146.398 135.013Z" fill="url(#paint83_linear_225_295)"/>
<path d="M171.045 158.179C168.609 155.602 166.437 152.787 164.563 149.777C161.943 145.215 160.46 140.089 160.242 134.833L156.241 135.953C156.241 135.953 158.242 150.177 160.402 155.678C162.563 161.18 170.405 166.221 170.405 166.221L171.045 158.179Z" fill="#F8D2A1"/>
<path d="M200.573 156.419C203.495 154.371 206.075 151.872 208.215 149.017C210.665 144.445 212.803 139.713 214.616 134.853L218.417 136.614C218.417 136.614 214.416 150.417 211.476 155.538C208.535 160.66 200.173 164.581 200.173 164.581L200.573 156.419Z" fill="#F8D2A1"/>
<path d="M200.673 155.958C206.387 150.631 210.92 144.164 213.976 136.974L217.977 138.974C217.557 151.817 206.594 165.081 197.972 169.882C192.851 172.703 190.49 171.042 190.49 171.042L189.07 161.34C193.339 160.585 197.338 158.73 200.673 155.958Z" fill="url(#paint84_linear_225_295)"/>
<path d="M214.196 131.952C214.316 129.832 214.636 128.412 215.397 128.312C216.157 128.212 215.517 130.132 215.857 131.092C216.667 130.266 217.204 129.212 217.397 128.072C217.617 126.611 218.257 125.651 219.198 126.071C220.138 126.491 221.558 127.431 221.438 128.372C221.318 129.312 220.198 132.793 219.978 134.053C219.758 135.313 218.537 136.173 218.337 136.854C218.137 137.534 214.796 136.854 214.796 136.854C214.796 136.534 214.616 134.853 214.616 134.853C214.539 134.311 214.419 133.776 214.256 133.253C214.171 132.825 214.151 132.386 214.196 131.952Z" fill="#F8D2A1"/>
<path d="M187.009 266.406H191.81C191.81 266.406 191.81 267.266 194.531 267.806C195.354 268.043 196.098 268.497 196.686 269.12C197.274 269.743 197.683 270.512 197.872 271.347H187.009V266.406Z" fill="url(#paint85_linear_225_295)"/>
<path d="M174.406 260.925C174.606 261.265 174.406 267.806 174.406 267.806H179.207V260.645L174.406 260.925Z" fill="#F8D2A1"/>
<path d="M174.406 266.406H179.207C179.207 266.406 179.207 267.266 181.928 267.806C182.751 268.043 183.495 268.497 184.083 269.12C184.67 269.743 185.08 270.512 185.269 271.347H174.406V266.406Z" fill="url(#paint86_linear_225_295)"/>
<path d="M193.071 152.618C193.071 153.758 191.79 153.138 191.65 153.578C191.51 154.018 192.531 156.199 191.65 156.939C190.77 157.679 188.349 157.839 187.989 158.619C188.004 160.194 188.281 161.756 188.81 163.24L179.947 163.6L180.367 156.299C180.043 154.024 180.2 151.707 180.828 149.497C181.888 145.636 189.03 143.155 189.03 143.155C189.35 142.955 189.77 141.415 190.33 141.995C191.21 142.875 191.53 145.996 191.81 147.496C192.09 148.997 193.011 151.437 193.071 152.618Z" fill="#F8D2A1"/>
<path d="M193.071 152.618C193.071 153.758 191.79 153.138 191.65 153.578L191.81 147.576C192.09 148.997 193.011 151.437 193.071 152.618Z" fill="#DBA87B"/>
<path d="M191.31 142.855C191.15 143.595 188.99 144.155 188.85 145.836C188.788 146.841 188.981 147.846 189.41 148.757C189.293 149.621 189.119 150.476 188.89 151.317C188.89 151.317 188.67 149.217 187.729 149.157C186.789 149.097 186.009 149.777 186.949 151.417C187.372 152.008 187.584 152.723 187.551 153.449C187.518 154.174 187.243 154.868 186.769 155.418C186.29 156.204 186.079 157.123 186.169 158.039L180.167 158.319C179.227 155.478 178.047 153.558 177.167 151.037C177.511 149.391 177.771 147.729 177.947 146.056C177.947 144.896 176.746 144.756 177.427 143.415C178.331 142.053 179.589 140.961 181.065 140.256C182.541 139.552 184.18 139.261 185.809 139.414C187.954 139.966 189.876 141.168 191.31 142.855Z" fill="url(#paint87_linear_225_295)"/>
<path d="M180.407 198.989C180.283 204.721 181.303 210.42 183.408 215.753C186.429 224.556 186.989 257.544 186.989 257.544H192.411C192.411 257.544 193.091 236.159 194.171 223.275C194.801 215.192 194.801 207.072 194.171 198.989H180.407Z" fill="url(#paint88_linear_225_295)"/>
<path d="M181.168 162.4C181.168 162.4 170.065 158.499 166.184 151.857C163.615 147.738 161.97 143.111 161.362 138.294L156.641 139.134C156.641 139.134 156.141 150.897 162.223 159.919C168.304 168.942 182.468 174.723 182.468 174.723L181.168 162.4Z" fill="url(#paint89_linear_225_295)"/>
<path d="M155.041 133.293C155.041 132.032 154.401 128.392 154.421 127.471C154.441 126.551 155.961 125.811 156.961 125.471C157.962 125.131 158.442 126.211 158.462 127.691C158.471 128.963 158.932 130.189 159.762 131.152C160.282 130.012 160.202 128.792 160.762 129.152C161.322 129.512 161.302 130.492 161.062 132.073C161.057 132.51 160.975 132.943 160.822 133.353C160.588 133.843 160.394 134.352 160.242 134.873C160.242 134.873 159.842 136.514 159.782 136.874C159.782 136.874 156.361 137.074 156.261 136.374C156.161 135.673 155.081 134.613 155.041 133.293Z" fill="#F8D2A1"/>
<path d="M170.505 198.149C170.279 204.032 170.573 209.923 171.385 215.753C173.045 228.036 173.826 257.544 173.826 257.544H179.187C179.187 257.544 181.068 236.159 182.128 223.275C182.878 215.057 184.391 206.927 186.649 198.989L170.505 198.149Z" fill="url(#paint90_linear_225_295)"/>
<path d="M169.344 202.63C169.344 202.63 170.005 195.508 170.965 184.086C171.883 176.103 173.902 168.287 176.967 160.86C176.967 160.86 179.447 160.86 180.968 160.86C183.208 160.86 189.37 160.86 189.37 160.86C191.374 163.684 192.69 166.938 193.211 170.362C193.791 175.543 195.211 203.79 195.211 203.79C190.464 205.923 185.311 207.001 180.107 206.951C171.045 207.051 169.344 202.63 169.344 202.63Z" fill="url(#paint91_linear_225_295)"/>
<path d="M177.447 151.177C177.447 151.177 173.446 142.435 179.927 139.174C185.449 136.374 189.77 139.714 191.93 141.915L196.172 143.275C196.172 143.275 194.311 146.956 182.168 150.577C180.651 151.094 179.045 151.298 177.447 151.177Z" fill="url(#paint92_linear_225_295)"/>
<path d="M176.786 268.867L179.187 266.406V257.544H173.826L174.386 266.406L176.786 268.867Z" fill="url(#paint93_linear_225_295)"/>
<path d="M187.009 257.544V267.806H191.81L192.431 257.544H187.009Z" fill="url(#paint94_linear_225_295)"/>
<path d="M165.464 315.678H222.478V273.408H165.464V315.678Z" stroke="#97A3CC" stroke-width="1.11" stroke-miterlimit="10"/>
<path d="M165.463 315.678L222.478 273.408" stroke="#97A3CC" stroke-width="1.11" stroke-miterlimit="10"/>
<path d="M165.463 273.408L222.478 315.678" stroke="#97A3CC" stroke-width="1.11" stroke-miterlimit="10"/>
<path d="M142.517 315.678H165.463V273.408H142.517V315.678Z" stroke="#97A3CC" stroke-width="1.11" stroke-miterlimit="10"/>
<path d="M142.537 315.678L165.463 273.408" stroke="#97A3CC" stroke-width="1.11" stroke-miterlimit="10"/>
<path d="M142.537 273.408L165.463 315.678" stroke="#97A3CC" stroke-width="1.11" stroke-miterlimit="10"/>
<path d="M165.463 273.408V315.678" stroke="#97A3CC" stroke-width="2.23" stroke-miterlimit="10"/>
<path d="M222.939 316.559L222.478 273.408H142.537V316.559" stroke="#97A3CC" stroke-width="2.23" stroke-miterlimit="10"/>
<path d="M188.135 80.4853C189.307 80.4267 190.182 80.6767 190.76 81.2351C191.337 81.757 191.657 82.6405 191.719 83.8856C191.787 85.2406 191.697 88.2187 191.45 92.8202C191.201 97.385 190.912 102.264 190.585 107.457L188.387 107.566C187.543 102.432 186.77 97.6065 186.067 93.0893C185.362 88.5355 184.975 85.5811 184.907 84.2261C184.845 82.981 185.075 82.0701 185.597 81.4933C186.117 80.8799 186.963 80.5439 188.135 80.4853ZM189.684 111.467C190.856 111.408 191.788 111.692 192.48 112.318C193.17 112.908 193.545 113.807 193.606 115.015C193.666 116.224 193.383 117.174 192.757 117.866C192.129 118.522 191.229 118.879 190.057 118.937C188.885 118.996 187.954 118.73 187.264 118.141C186.572 117.515 186.196 116.597 186.135 115.389C186.075 114.18 186.359 113.248 186.987 112.593C187.613 111.901 188.512 111.525 189.684 111.467Z" fill="#231F20"/>
<path d="M155.081 125.511L225.679 121.91L187.389 65.1758L155.081 125.511Z" stroke="#231F20" stroke-width="1.43" stroke-linecap="round" stroke-linejoin="round"/>
<path d="M410.682 67H254.921C253.308 67 252 68.3077 252 69.9207V128.375C252 129.988 253.308 131.296 254.921 131.296H410.682C412.295 131.296 413.602 129.988 413.602 128.375V69.9207C413.602 68.3077 412.295 67 410.682 67Z" fill="#4E5683"/>
<path d="M287.574 101.287L280.387 99.5648L282.993 76.5037L308.555 76.517L308.552 83.7983L290.395 83.7888L289.265 93.882C289.869 93.5281 290.786 93.1536 292.016 92.7584C293.245 92.3424 294.62 92.1348 296.141 92.1356C298.349 92.1367 300.307 92.4815 302.015 93.1699C303.723 93.8583 305.171 94.859 306.358 96.1722C307.565 97.4853 308.481 99.0899 309.105 100.986C309.729 102.882 310.04 105.028 310.039 107.424C310.038 109.445 309.725 111.372 309.099 113.205C308.473 115.017 307.524 116.642 306.252 118.078C304.981 119.494 303.387 120.608 301.469 121.42C299.552 122.231 297.281 122.636 294.656 122.635C292.698 122.634 290.802 122.341 288.969 121.757C287.157 121.173 285.522 120.307 284.064 119.16C282.627 118.014 281.472 116.628 280.598 115.002C279.744 113.356 279.298 111.481 279.257 109.377L288.194 109.381C288.319 110.673 288.652 111.788 289.193 112.726C289.755 113.643 290.494 114.351 291.41 114.852C292.327 115.352 293.4 115.603 294.629 115.604C295.775 115.604 296.754 115.386 297.567 114.949C298.379 114.512 299.036 113.908 299.536 113.137C300.037 112.346 300.402 111.429 300.631 110.388C300.882 109.326 301.008 108.18 301.008 106.951C301.009 105.721 300.864 104.607 300.572 103.607C300.281 102.606 299.834 101.742 299.23 101.012C298.626 100.283 297.856 99.7198 296.918 99.3235C296.002 98.9271 294.929 98.7287 293.7 98.728C292.033 98.7272 290.742 98.9869 289.825 99.5072C288.929 100.028 288.178 100.621 287.574 101.287ZM346.483 95.2869L346.479 103.162C346.477 106.579 346.111 109.526 345.381 112.005C344.65 114.463 343.597 116.483 342.221 118.066C340.866 119.628 339.251 120.783 337.376 121.532C335.5 122.281 333.417 122.655 331.125 122.654C329.292 122.653 327.583 122.423 326 121.964C324.417 121.484 322.991 120.743 321.72 119.743C320.471 118.742 319.388 117.481 318.472 115.96C317.577 114.418 316.891 112.584 316.413 110.459C315.935 108.333 315.696 105.896 315.698 103.146L315.702 95.2708C315.704 91.8541 316.07 88.9272 316.8 86.4901C317.551 84.0322 318.605 82.0223 319.96 80.4605C321.335 78.8987 322.961 77.7538 324.836 77.0256C326.712 76.2766 328.795 75.9026 331.087 75.9038C332.92 75.9048 334.618 76.1453 336.18 76.6253C337.763 77.0844 339.19 77.8039 340.46 78.7838C341.731 79.7636 342.813 81.0246 343.709 82.5667C344.604 84.088 345.29 85.9113 345.768 88.0365C346.246 90.141 346.485 92.5577 346.483 95.2869ZM337.447 104.345L337.452 94.0634C337.453 92.4176 337.36 90.98 337.174 89.7508C337.007 88.5215 336.748 87.4797 336.394 86.6254C336.04 85.7502 335.603 85.0416 335.083 84.4997C334.562 83.9577 333.968 83.5616 333.302 83.3113C332.635 83.0609 331.896 82.9355 331.083 82.9351C330.062 82.9346 329.156 83.132 328.364 83.5274C327.593 83.9229 326.937 84.5579 326.395 85.4326C325.852 86.2865 325.435 87.4321 325.143 88.8695C324.871 90.286 324.735 92.0151 324.734 94.0568L324.728 104.338C324.728 105.984 324.81 107.432 324.976 108.682C325.163 109.932 325.433 111.005 325.787 111.901C326.161 112.776 326.599 113.495 327.098 114.058C327.619 114.6 328.212 114.996 328.879 115.246C329.566 115.497 330.316 115.622 331.129 115.623C332.129 115.623 333.014 115.426 333.785 115.03C334.577 114.614 335.244 113.969 335.786 113.094C336.349 112.198 336.767 111.032 337.038 109.594C337.31 108.157 337.446 106.407 337.447 104.345ZM383.233 95.3062L383.229 103.181C383.227 106.598 382.861 109.546 382.131 112.024C381.4 114.482 380.347 116.503 378.971 118.085C377.616 119.647 376.001 120.802 374.126 121.551C372.25 122.3 370.167 122.674 367.875 122.673C366.042 122.672 364.333 122.442 362.75 121.983C361.167 121.503 359.741 120.763 358.47 119.762C357.221 118.761 356.138 117.5 355.222 115.979C354.327 114.437 353.641 112.603 353.163 110.478C352.685 108.353 352.446 105.915 352.448 103.165L352.452 95.29C352.454 91.8734 352.82 88.9465 353.55 86.5094C354.301 84.0514 355.355 82.0416 356.71 80.4798C358.085 78.918 359.711 77.773 361.586 77.0448C363.462 76.2958 365.545 75.9219 367.837 75.9231C369.67 75.924 371.368 76.1645 372.93 76.6445C374.513 77.1037 375.94 77.8232 377.21 78.803C378.481 79.7828 379.563 81.0438 380.459 82.5859C381.354 84.1072 382.04 85.9305 382.518 88.0558C382.996 90.1602 383.235 92.577 383.233 95.3062ZM374.197 104.364L374.202 94.0827C374.203 92.4368 374.11 90.9993 373.923 89.77C373.757 88.5408 373.498 87.499 373.144 86.6446C372.79 85.7694 372.353 85.0609 371.832 84.5189C371.312 83.977 370.718 83.5808 370.052 83.3305C369.385 83.0801 368.646 82.9548 367.833 82.9543C366.812 82.9538 365.906 83.1512 365.114 83.5467C364.343 83.9421 363.687 84.5772 363.145 85.4519C362.602 86.3058 362.185 87.4514 361.893 88.8887C361.621 90.3053 361.485 92.0343 361.484 94.076L361.478 104.357C361.477 106.003 361.56 107.451 361.726 108.701C361.913 109.951 362.183 111.024 362.537 111.92C362.911 112.796 363.349 113.514 363.848 114.077C364.369 114.619 364.962 115.015 365.629 115.266C366.316 115.516 367.066 115.641 367.879 115.642C368.879 115.642 369.764 115.445 370.535 115.05C371.327 114.633 371.994 113.988 372.536 113.113C373.099 112.218 373.517 111.051 373.788 109.614C374.06 108.176 374.196 106.426 374.197 104.364Z" fill="white"/>
<path d="M408.507 73.958C409.623 73.958 410.528 73.0534 410.528 71.9375C410.528 70.8216 409.623 69.917 408.507 69.917C407.391 69.917 406.487 70.8216 406.487 71.9375C406.487 73.0534 407.391 73.958 408.507 73.958Z" fill="white"/>
<path d="M408.507 127.791C409.623 127.791 410.528 126.887 410.528 125.771C410.528 124.655 409.623 123.75 408.507 123.75C407.391 123.75 406.487 124.655 406.487 125.771C406.487 126.887 407.391 127.791 408.507 127.791Z" fill="white"/>
<path d="M259.708 71.9375C259.708 72.3332 259.591 72.7199 259.371 73.0489C259.151 73.3778 258.839 73.6343 258.473 73.7857C258.108 73.9371 257.705 73.9767 257.317 73.8995C256.929 73.8223 256.573 73.6318 256.293 73.352C256.013 73.0723 255.823 72.7158 255.746 72.3277C255.668 71.9397 255.708 71.5375 255.859 71.1719C256.011 70.8064 256.267 70.4939 256.596 70.2741C256.925 70.0543 257.312 69.937 257.708 69.937C258.238 69.937 258.747 70.1477 259.122 70.5229C259.497 70.8981 259.708 71.4069 259.708 71.9375Z" fill="white"/>
<path d="M259.708 125.771C259.708 126.167 259.591 126.553 259.371 126.882C259.151 127.211 258.839 127.468 258.473 127.619C258.108 127.771 257.705 127.81 257.317 127.733C256.929 127.656 256.573 127.465 256.293 127.185C256.013 126.906 255.823 126.549 255.746 126.161C255.668 125.773 255.708 125.371 255.859 125.005C256.011 124.64 256.267 124.327 256.596 124.108C256.925 123.888 257.312 123.77 257.708 123.77C258.238 123.77 258.747 123.981 259.122 124.356C259.497 124.732 259.708 125.24 259.708 125.771Z" fill="white"/>
<mask id="mask2_225_295" style="mask-type:luminance" maskUnits="userSpaceOnUse" x="438" y="219" width="53" height="88">
<path d="M490.149 306.236H438.895L462.021 221.155C462.171 220.607 462.497 220.124 462.949 219.78C463.401 219.437 463.954 219.252 464.522 219.254C465.088 219.258 465.638 219.446 466.089 219.788C466.539 220.131 466.867 220.61 467.023 221.155L490.149 306.236Z" fill="white"/>
</mask>
<g mask="url(#mask2_225_295)">
<path d="M490.149 306.236H438.895L462.021 221.155C462.171 220.607 462.497 220.124 462.949 219.78C463.401 219.437 463.954 219.252 464.522 219.254C465.088 219.258 465.638 219.446 466.089 219.788C466.539 220.131 466.867 220.61 467.023 221.155L490.149 306.236Z" fill="url(#paint95_linear_225_295)"/>
<path d="M482.387 236.679H445.777V248.302H482.387V236.679Z" fill="white"/>
<path d="M482.387 259.304H445.777V270.927H482.387V259.304Z" fill="white"/>
<path d="M489.889 281.91H438.275V293.533H489.889V281.91Z" fill="white"/>
</g>
<path d="M501.332 303.855H426.832V314.218H501.332V303.855Z" fill="url(#paint96_linear_225_295)"/>
</g>
<defs>
<linearGradient id="paint0_linear_225_295" x1="0" y1="313.418" x2="533" y2="313.418" gradientUnits="userSpaceOnUse">
<stop stop-color="#EEF4FB"/>
<stop offset="0.31" stop-color="#E3EDF8"/>
<stop offset="1" stop-color="#CFE1F3"/>
</linearGradient>
<linearGradient id="paint1_linear_225_295" x1="82.1015" y1="219.254" x2="82.1015" y2="306.236" gradientUnits="userSpaceOnUse">
<stop stop-color="#FC9D00"/>
<stop offset="1" stop-color="#F3510F"/>
</linearGradient>
<linearGradient id="paint2_linear_225_295" x1="81.6614" y1="303.855" x2="81.6614" y2="314.198" gradientUnits="userSpaceOnUse">
<stop stop-color="#FC9D00"/>
<stop offset="1" stop-color="#F3510F"/>
</linearGradient>
<linearGradient id="paint3_linear_225_295" x1="282.154" y1="307.836" x2="279.694" y2="264.386" gradientUnits="userSpaceOnUse">
<stop stop-color="#EEF4FB"/>
<stop offset="0.31" stop-color="#E3EDF8"/>
<stop offset="1" stop-color="#CFE1F3"/>
</linearGradient>
<linearGradient id="paint4_linear_225_295" x1="282.354" y1="252.503" x2="281.534" y2="304.296" gradientUnits="userSpaceOnUse">
<stop stop-color="#75769A"/>
<stop offset="0.97" stop-color="white" stop-opacity="0"/>
</linearGradient>
<linearGradient id="paint5_linear_225_295" x1="281.634" y1="287.251" x2="281.634" y2="297.854" gradientUnits="userSpaceOnUse">
<stop stop-color="#EEF4FB"/>
<stop offset="0.31" stop-color="#E3EDF8"/>
<stop offset="1" stop-color="#CFE1F3"/>
</linearGradient>
<linearGradient id="paint6_linear_225_295" x1="282.534" y1="188.467" x2="281.094" y2="260.004" gradientUnits="userSpaceOnUse">
<stop stop-color="#EEF4FB"/>
<stop offset="0.31" stop-color="#E3EDF8"/>
<stop offset="1" stop-color="#CFE1F3"/>
</linearGradient>
<radialGradient id="paint7_radial_225_295" cx="0" cy="0" r="1" gradientUnits="userSpaceOnUse" gradientTransform="translate(255.26 199.342) scale(224.579 53.8982)">
<stop stop-color="white"/>
<stop offset="1" stop-color="white" stop-opacity="0"/>
</radialGradient>
<linearGradient id="paint8_linear_225_295" x1="128.934" y1="165.261" x2="118.591" y2="220.095" gradientUnits="userSpaceOnUse">
<stop stop-color="#ACED86"/>
<stop offset="0.05" stop-color="#96ED8D"/>
<stop offset="0.16" stop-color="#5EED9F"/>
<stop offset="0.21" stop-color="#41EDA9"/>
<stop offset="1" stop-color="#4D6191"/>
</linearGradient>
<linearGradient id="paint9_linear_225_295" x1="189.25" y1="177.144" x2="198.852" y2="228.057" gradientUnits="userSpaceOnUse">
<stop stop-color="#ACED86"/>
<stop offset="0.05" stop-color="#96ED8D"/>
<stop offset="0.16" stop-color="#5EED9F"/>
<stop offset="0.21" stop-color="#41EDA9"/>
<stop offset="1" stop-color="#4D6191"/>
</linearGradient>
<linearGradient id="paint10_linear_225_295" x1="420.23" y1="170.022" x2="420.23" y2="203.73" gradientUnits="userSpaceOnUse">
<stop stop-color="#ACED86"/>
<stop offset="0.05" stop-color="#96ED8D"/>
<stop offset="0.16" stop-color="#5EED9F"/>
<stop offset="0.21" stop-color="#41EDA9"/>
<stop offset="1" stop-color="#4D6191"/>
</linearGradient>
<linearGradient id="paint11_linear_225_295" x1="368.017" y1="184.886" x2="368.017" y2="205.271" gradientUnits="userSpaceOnUse">
<stop stop-color="#ACED86"/>
<stop offset="0.05" stop-color="#96ED8D"/>
<stop offset="0.16" stop-color="#5EED9F"/>
<stop offset="0.21" stop-color="#41EDA9"/>
<stop offset="1" stop-color="#4D6191"/>
</linearGradient>
<linearGradient id="paint12_linear_225_295" x1="164.583" y1="191.527" x2="164.583" y2="205.271" gradientUnits="userSpaceOnUse">
<stop stop-color="#ACED86"/>
<stop offset="0.05" stop-color="#96ED8D"/>
<stop offset="0.16" stop-color="#5EED9F"/>
<stop offset="0.21" stop-color="#41EDA9"/>
<stop offset="1" stop-color="#4D6191"/>
</linearGradient>
<linearGradient id="paint13_linear_225_295" x1="92.7043" y1="182.865" x2="96.1251" y2="209.352" gradientUnits="userSpaceOnUse">
<stop stop-color="#ACED86"/>
<stop offset="0.05" stop-color="#96ED8D"/>
<stop offset="0.16" stop-color="#5EED9F"/>
<stop offset="0.21" stop-color="#41EDA9"/>
<stop offset="1" stop-color="#4D6191"/>
</linearGradient>
<linearGradient id="paint14_linear_225_295" x1="289.036" y1="184.406" x2="282.334" y2="219.975" gradientUnits="userSpaceOnUse">
<stop stop-color="#ACED86"/>
<stop offset="0.05" stop-color="#96ED8D"/>
<stop offset="0.16" stop-color="#5EED9F"/>
<stop offset="0.21" stop-color="#41EDA9"/>
<stop offset="1" stop-color="#4D6191"/>
</linearGradient>
<linearGradient id="paint15_linear_225_295" x1="280.294" y1="284.291" x2="280.294" y2="306.276" gradientUnits="userSpaceOnUse">
<stop stop-color="#EEF4FB"/>
<stop offset="0.31" stop-color="#E3EDF8"/>
<stop offset="1" stop-color="#CFE1F3"/>
</linearGradient>
<linearGradient id="paint16_linear_225_295" x1="280.294" y1="315.458" x2="280.294" y2="306.276" gradientUnits="userSpaceOnUse">
<stop stop-color="#EEF4FB"/>
<stop offset="0.31" stop-color="#E3EDF8"/>
<stop offset="1" stop-color="#CFE1F3"/>
</linearGradient>
<linearGradient id="paint17_linear_225_295" x1="280.734" y1="280.49" x2="279.954" y2="333.183" gradientUnits="userSpaceOnUse">
<stop stop-color="#75769A"/>
<stop offset="0.97" stop-color="white" stop-opacity="0"/>
</linearGradient>
<linearGradient id="paint18_linear_225_295" x1="172.505" y1="286.251" x2="172.505" y2="287.931" gradientUnits="userSpaceOnUse">
<stop stop-color="white"/>
<stop offset="1" stop-color="white" stop-opacity="0"/>
</linearGradient>
<linearGradient id="paint19_linear_225_295" x1="188.63" y1="286.251" x2="188.63" y2="287.932" gradientUnits="userSpaceOnUse">
<stop stop-color="white"/>
<stop offset="1" stop-color="white" stop-opacity="0"/>
</linearGradient>
<linearGradient id="paint20_linear_225_295" x1="204.754" y1="286.251" x2="204.754" y2="287.931" gradientUnits="userSpaceOnUse">
<stop stop-color="white"/>
<stop offset="1" stop-color="white" stop-opacity="0"/>
</linearGradient>
<linearGradient id="paint21_linear_225_295" x1="220.898" y1="286.251" x2="220.898" y2="287.931" gradientUnits="userSpaceOnUse">
<stop stop-color="white"/>
<stop offset="1" stop-color="white" stop-opacity="0"/>
</linearGradient>
<linearGradient id="paint22_linear_225_295" x1="237.022" y1="286.251" x2="237.022" y2="287.931" gradientUnits="userSpaceOnUse">
<stop stop-color="white"/>
<stop offset="1" stop-color="white" stop-opacity="0"/>
</linearGradient>
<linearGradient id="paint23_linear_225_295" x1="253.147" y1="286.251" x2="253.147" y2="287.931" gradientUnits="userSpaceOnUse">
<stop stop-color="white"/>
<stop offset="1" stop-color="white" stop-opacity="0"/>
</linearGradient>
<linearGradient id="paint24_linear_225_295" x1="269.291" y1="286.251" x2="269.291" y2="287.931" gradientUnits="userSpaceOnUse">
<stop stop-color="white"/>
<stop offset="1" stop-color="white" stop-opacity="0"/>
</linearGradient>
<linearGradient id="paint25_linear_225_295" x1="285.475" y1="286.251" x2="285.475" y2="287.931" gradientUnits="userSpaceOnUse">
<stop stop-color="white"/>
<stop offset="1" stop-color="white" stop-opacity="0"/>
</linearGradient>
<linearGradient id="paint26_linear_225_295" x1="301.599" y1="286.251" x2="301.599" y2="287.931" gradientUnits="userSpaceOnUse">
<stop stop-color="white"/>
<stop offset="1" stop-color="white" stop-opacity="0"/>
</linearGradient>
<linearGradient id="paint27_linear_225_295" x1="317.743" y1="286.251" x2="317.743" y2="287.931" gradientUnits="userSpaceOnUse">
<stop stop-color="white"/>
<stop offset="1" stop-color="white" stop-opacity="0"/>
</linearGradient>
<linearGradient id="paint28_linear_225_295" x1="333.868" y1="286.251" x2="333.868" y2="287.932" gradientUnits="userSpaceOnUse">
<stop stop-color="white"/>
<stop offset="1" stop-color="white" stop-opacity="0"/>
</linearGradient>
<linearGradient id="paint29_linear_225_295" x1="349.992" y1="286.251" x2="349.992" y2="287.931" gradientUnits="userSpaceOnUse">
<stop stop-color="white"/>
<stop offset="1" stop-color="white" stop-opacity="0"/>
</linearGradient>
<linearGradient id="paint30_linear_225_295" x1="367.997" y1="286.251" x2="367.997" y2="287.932" gradientUnits="userSpaceOnUse">
<stop stop-color="white"/>
<stop offset="1" stop-color="white" stop-opacity="0"/>
</linearGradient>
<linearGradient id="paint31_linear_225_295" x1="387.862" y1="286.251" x2="387.862" y2="287.931" gradientUnits="userSpaceOnUse">
<stop stop-color="white"/>
<stop offset="1" stop-color="white" stop-opacity="0"/>
</linearGradient>
<linearGradient id="paint32_linear_225_295" x1="153.22" y1="299.654" x2="153.22" y2="304.116" gradientUnits="userSpaceOnUse">
<stop stop-color="white"/>
<stop offset="1" stop-color="white" stop-opacity="0"/>
</linearGradient>
<linearGradient id="paint33_linear_225_295" x1="172.225" y1="299.654" x2="172.225" y2="304.116" gradientUnits="userSpaceOnUse">
<stop stop-color="white"/>
<stop offset="1" stop-color="white" stop-opacity="0"/>
</linearGradient>
<linearGradient id="paint34_linear_225_295" x1="191.23" y1="299.654" x2="191.23" y2="304.115" gradientUnits="userSpaceOnUse">
<stop stop-color="white"/>
<stop offset="1" stop-color="white" stop-opacity="0"/>
</linearGradient>
<linearGradient id="paint35_linear_225_295" x1="210.235" y1="299.654" x2="210.235" y2="304.116" gradientUnits="userSpaceOnUse">
<stop stop-color="white"/>
<stop offset="1" stop-color="white" stop-opacity="0"/>
</linearGradient>
<linearGradient id="paint36_linear_225_295" x1="257.448" y1="299.654" x2="257.448" y2="304.116" gradientUnits="userSpaceOnUse">
<stop stop-color="white"/>
<stop offset="1" stop-color="white" stop-opacity="0"/>
</linearGradient>
<linearGradient id="paint37_linear_225_295" x1="305.48" y1="299.654" x2="305.48" y2="304.116" gradientUnits="userSpaceOnUse">
<stop stop-color="white"/>
<stop offset="1" stop-color="white" stop-opacity="0"/>
</linearGradient>
<linearGradient id="paint38_linear_225_295" x1="324.485" y1="299.654" x2="324.485" y2="304.116" gradientUnits="userSpaceOnUse">
<stop stop-color="white"/>
<stop offset="1" stop-color="white" stop-opacity="0"/>
</linearGradient>
<linearGradient id="paint39_linear_225_295" x1="343.49" y1="299.654" x2="343.49" y2="304.116" gradientUnits="userSpaceOnUse">
<stop stop-color="white"/>
<stop offset="1" stop-color="white" stop-opacity="0"/>
</linearGradient>
<linearGradient id="paint40_linear_225_295" x1="387.542" y1="302.335" x2="387.542" y2="304.116" gradientUnits="userSpaceOnUse">
<stop stop-color="white"/>
<stop offset="1" stop-color="white" stop-opacity="0"/>
</linearGradient>
<linearGradient id="paint41_linear_225_295" x1="408.727" y1="302.335" x2="408.727" y2="304.116" gradientUnits="userSpaceOnUse">
<stop stop-color="white"/>
<stop offset="1" stop-color="white" stop-opacity="0"/>
</linearGradient>
<linearGradient id="paint42_linear_225_295" x1="366.336" y1="302.335" x2="366.336" y2="304.116" gradientUnits="userSpaceOnUse">
<stop stop-color="white"/>
<stop offset="1" stop-color="white" stop-opacity="0"/>
</linearGradient>
<linearGradient id="paint43_linear_225_295" x1="384.561" y1="299.654" x2="384.561" y2="301.315" gradientUnits="userSpaceOnUse">
<stop stop-color="white"/>
<stop offset="1" stop-color="white" stop-opacity="0"/>
</linearGradient>
<linearGradient id="paint44_linear_225_295" x1="168.764" y1="288.632" x2="168.764" y2="291.252" gradientUnits="userSpaceOnUse">
<stop stop-color="white"/>
<stop offset="1" stop-color="white" stop-opacity="0"/>
</linearGradient>
<linearGradient id="paint45_linear_225_295" x1="185.449" y1="288.632" x2="185.449" y2="291.252" gradientUnits="userSpaceOnUse">
<stop stop-color="white"/>
<stop offset="1" stop-color="white" stop-opacity="0"/>
</linearGradient>
<linearGradient id="paint46_linear_225_295" x1="202.133" y1="288.632" x2="202.133" y2="291.252" gradientUnits="userSpaceOnUse">
<stop stop-color="white"/>
<stop offset="1" stop-color="white" stop-opacity="0"/>
</linearGradient>
<linearGradient id="paint47_linear_225_295" x1="218.818" y1="288.632" x2="218.818" y2="291.252" gradientUnits="userSpaceOnUse">
<stop stop-color="white"/>
<stop offset="1" stop-color="white" stop-opacity="0"/>
</linearGradient>
<linearGradient id="paint48_linear_225_295" x1="235.502" y1="288.632" x2="235.502" y2="291.252" gradientUnits="userSpaceOnUse">
<stop stop-color="white"/>
<stop offset="1" stop-color="white" stop-opacity="0"/>
</linearGradient>
<linearGradient id="paint49_linear_225_295" x1="252.186" y1="288.632" x2="252.186" y2="291.252" gradientUnits="userSpaceOnUse">
<stop stop-color="white"/>
<stop offset="1" stop-color="white" stop-opacity="0"/>
</linearGradient>
<linearGradient id="paint50_linear_225_295" x1="268.871" y1="288.632" x2="268.871" y2="291.252" gradientUnits="userSpaceOnUse">
<stop stop-color="white"/>
<stop offset="1" stop-color="white" stop-opacity="0"/>
</linearGradient>
<linearGradient id="paint51_linear_225_295" x1="285.675" y1="288.632" x2="285.675" y2="291.252" gradientUnits="userSpaceOnUse">
<stop stop-color="white"/>
<stop offset="1" stop-color="white" stop-opacity="0"/>
</linearGradient>
<linearGradient id="paint52_linear_225_295" x1="302.379" y1="288.632" x2="302.379" y2="291.252" gradientUnits="userSpaceOnUse">
<stop stop-color="white"/>
<stop offset="1" stop-color="white" stop-opacity="0"/>
</linearGradient>
<linearGradient id="paint53_linear_225_295" x1="319.064" y1="288.632" x2="319.064" y2="291.252" gradientUnits="userSpaceOnUse">
<stop stop-color="white"/>
<stop offset="1" stop-color="white" stop-opacity="0"/>
</linearGradient>
<linearGradient id="paint54_linear_225_295" x1="335.748" y1="288.632" x2="335.748" y2="291.252" gradientUnits="userSpaceOnUse">
<stop stop-color="white"/>
<stop offset="1" stop-color="white" stop-opacity="0"/>
</linearGradient>
<linearGradient id="paint55_linear_225_295" x1="352.433" y1="288.632" x2="352.433" y2="291.252" gradientUnits="userSpaceOnUse">
<stop stop-color="white"/>
<stop offset="1" stop-color="white" stop-opacity="0"/>
</linearGradient>
<linearGradient id="paint56_linear_225_295" x1="371.037" y1="288.632" x2="371.037" y2="291.252" gradientUnits="userSpaceOnUse">
<stop stop-color="white"/>
<stop offset="1" stop-color="white" stop-opacity="0"/>
</linearGradient>
<linearGradient id="paint57_linear_225_295" x1="391.583" y1="288.632" x2="391.583" y2="291.252" gradientUnits="userSpaceOnUse">
<stop stop-color="white"/>
<stop offset="1" stop-color="white" stop-opacity="0"/>
</linearGradient>
<linearGradient id="paint58_linear_225_295" x1="168.404" y1="292.012" x2="168.404" y2="294.853" gradientUnits="userSpaceOnUse">
<stop stop-color="white"/>
<stop offset="1" stop-color="white" stop-opacity="0"/>
</linearGradient>
<linearGradient id="paint59_linear_225_295" x1="194.671" y1="292.012" x2="194.671" y2="294.853" gradientUnits="userSpaceOnUse">
<stop stop-color="white"/>
<stop offset="1" stop-color="white" stop-opacity="0"/>
</linearGradient>
<linearGradient id="paint60_linear_225_295" x1="216.317" y1="292.012" x2="216.317" y2="294.853" gradientUnits="userSpaceOnUse">
<stop stop-color="white"/>
<stop offset="1" stop-color="white" stop-opacity="0"/>
</linearGradient>
<linearGradient id="paint61_linear_225_295" x1="233.681" y1="292.012" x2="233.681" y2="294.853" gradientUnits="userSpaceOnUse">
<stop stop-color="white"/>
<stop offset="1" stop-color="white" stop-opacity="0"/>
</linearGradient>
<linearGradient id="paint62_linear_225_295" x1="251.046" y1="292.012" x2="251.046" y2="294.853" gradientUnits="userSpaceOnUse">
<stop stop-color="white"/>
<stop offset="1" stop-color="white" stop-opacity="0"/>
</linearGradient>
<linearGradient id="paint63_linear_225_295" x1="268.411" y1="292.012" x2="268.411" y2="294.853" gradientUnits="userSpaceOnUse">
<stop stop-color="white"/>
<stop offset="1" stop-color="white" stop-opacity="0"/>
</linearGradient>
<linearGradient id="paint64_linear_225_295" x1="285.895" y1="292.012" x2="285.895" y2="294.853" gradientUnits="userSpaceOnUse">
<stop stop-color="white"/>
<stop offset="1" stop-color="white" stop-opacity="0"/>
</linearGradient>
<linearGradient id="paint65_linear_225_295" x1="303.28" y1="292.012" x2="303.28" y2="294.853" gradientUnits="userSpaceOnUse">
<stop stop-color="white"/>
<stop offset="1" stop-color="white" stop-opacity="0"/>
</linearGradient>
<linearGradient id="paint66_linear_225_295" x1="320.624" y1="292.012" x2="320.624" y2="294.853" gradientUnits="userSpaceOnUse">
<stop stop-color="white"/>
<stop offset="1" stop-color="white" stop-opacity="0"/>
</linearGradient>
<linearGradient id="paint67_linear_225_295" x1="337.989" y1="292.012" x2="337.989" y2="294.853" gradientUnits="userSpaceOnUse">
<stop stop-color="white"/>
<stop offset="1" stop-color="white" stop-opacity="0"/>
</linearGradient>
<linearGradient id="paint68_linear_225_295" x1="355.353" y1="292.012" x2="355.353" y2="294.853" gradientUnits="userSpaceOnUse">
<stop stop-color="white"/>
<stop offset="1" stop-color="white" stop-opacity="0"/>
</linearGradient>
<linearGradient id="paint69_linear_225_295" x1="372.338" y1="292.012" x2="372.338" y2="294.833" gradientUnits="userSpaceOnUse">
<stop stop-color="white"/>
<stop offset="1" stop-color="white" stop-opacity="0"/>
</linearGradient>
<linearGradient id="paint70_linear_225_295" x1="394.083" y1="292.013" x2="394.083" y2="294.853" gradientUnits="userSpaceOnUse">
<stop stop-color="white"/>
<stop offset="1" stop-color="white" stop-opacity="0"/>
</linearGradient>
<linearGradient id="paint71_linear_225_295" x1="168.244" y1="295.673" x2="168.244" y2="298.754" gradientUnits="userSpaceOnUse">
<stop stop-color="white"/>
<stop offset="1" stop-color="white" stop-opacity="0"/>
</linearGradient>
<linearGradient id="paint72_linear_225_295" x1="195.511" y1="295.673" x2="195.511" y2="298.754" gradientUnits="userSpaceOnUse">
<stop stop-color="white"/>
<stop offset="1" stop-color="white" stop-opacity="0"/>
</linearGradient>
<linearGradient id="paint73_linear_225_295" x1="213.616" y1="295.673" x2="213.616" y2="298.754" gradientUnits="userSpaceOnUse">
<stop stop-color="white"/>
<stop offset="1" stop-color="white" stop-opacity="0"/>
</linearGradient>
<linearGradient id="paint74_linear_225_295" x1="231.721" y1="295.673" x2="231.721" y2="298.754" gradientUnits="userSpaceOnUse">
<stop stop-color="white"/>
<stop offset="1" stop-color="white" stop-opacity="0"/>
</linearGradient>
<linearGradient id="paint75_linear_225_295" x1="249.806" y1="295.673" x2="249.806" y2="298.754" gradientUnits="userSpaceOnUse">
<stop stop-color="white"/>
<stop offset="1" stop-color="white" stop-opacity="0"/>
</linearGradient>
<linearGradient id="paint76_linear_225_295" x1="267.91" y1="295.673" x2="267.91" y2="298.754" gradientUnits="userSpaceOnUse">
<stop stop-color="white"/>
<stop offset="1" stop-color="white" stop-opacity="0"/>
</linearGradient>
<linearGradient id="paint77_linear_225_295" x1="286.135" y1="295.673" x2="286.135" y2="298.754" gradientUnits="userSpaceOnUse">
<stop stop-color="white"/>
<stop offset="1" stop-color="white" stop-opacity="0"/>
</linearGradient>
<linearGradient id="paint78_linear_225_295" x1="304.24" y1="295.673" x2="304.24" y2="298.754" gradientUnits="userSpaceOnUse">
<stop stop-color="white"/>
<stop offset="1" stop-color="white" stop-opacity="0"/>
</linearGradient>
<linearGradient id="paint79_linear_225_295" x1="322.345" y1="295.673" x2="322.345" y2="298.754" gradientUnits="userSpaceOnUse">
<stop stop-color="white"/>
<stop offset="1" stop-color="white" stop-opacity="0"/>
</linearGradient>
<linearGradient id="paint80_linear_225_295" x1="340.429" y1="295.673" x2="340.429" y2="298.754" gradientUnits="userSpaceOnUse">
<stop stop-color="white"/>
<stop offset="1" stop-color="white" stop-opacity="0"/>
</linearGradient>
<linearGradient id="paint81_linear_225_295" x1="358.534" y1="295.673" x2="358.534" y2="298.754" gradientUnits="userSpaceOnUse">
<stop stop-color="white"/>
<stop offset="1" stop-color="white" stop-opacity="0"/>
</linearGradient>
<linearGradient id="paint82_linear_225_295" x1="390.042" y1="295.673" x2="390.042" y2="298.754" gradientUnits="userSpaceOnUse">
<stop stop-color="white"/>
<stop offset="1" stop-color="white" stop-opacity="0"/>
</linearGradient>
<linearGradient id="paint83_linear_225_295" x1="142.117" y1="92.9627" x2="239.183" y2="92.9627" gradientUnits="userSpaceOnUse">
<stop stop-color="#FFD71D"/>
<stop offset="1" stop-color="#FEA000"/>
</linearGradient>
<linearGradient id="paint84_linear_225_295" x1="199.41" y1="144.859" x2="203.782" y2="175.775" gradientUnits="userSpaceOnUse">
<stop stop-color="#FC9D00"/>
<stop offset="1" stop-color="#F3510F"/>
</linearGradient>
<linearGradient id="paint85_linear_225_295" x1="187.009" y1="268.887" x2="197.872" y2="268.887" gradientUnits="userSpaceOnUse">
<stop stop-color="#343A44"/>
<stop offset="0.3" stop-color="#232D3E"/>
<stop offset="0.64" stop-color="#182439"/>
<stop offset="1" stop-color="#142138"/>
</linearGradient>
<linearGradient id="paint86_linear_225_295" x1="174.386" y1="268.887" x2="185.249" y2="268.887" gradientUnits="userSpaceOnUse">
<stop stop-color="#343A44"/>
<stop offset="0.3" stop-color="#232D3E"/>
<stop offset="0.64" stop-color="#182439"/>
<stop offset="1" stop-color="#142138"/>
</linearGradient>
<linearGradient id="paint87_linear_225_295" x1="177.267" y1="148.757" x2="191.31" y2="148.757" gradientUnits="userSpaceOnUse">
<stop stop-color="#343A44"/>
<stop offset="0.3" stop-color="#232D3E"/>
<stop offset="0.64" stop-color="#182439"/>
<stop offset="1" stop-color="#142138"/>
</linearGradient>
<linearGradient id="paint88_linear_225_295" x1="180.427" y1="228.277" x2="194.651" y2="228.277" gradientUnits="userSpaceOnUse">
<stop stop-color="#343A44"/>
<stop offset="0.3" stop-color="#232D3E"/>
<stop offset="0.64" stop-color="#182439"/>
<stop offset="1" stop-color="#142138"/>
</linearGradient>
<linearGradient id="paint89_linear_225_295" x1="165.365" y1="137.299" x2="173.835" y2="176.607" gradientUnits="userSpaceOnUse">
<stop stop-color="#FC9D00"/>
<stop offset="1" stop-color="#F3510F"/>
</linearGradient>
<linearGradient id="paint90_linear_225_295" x1="170.465" y1="227.856" x2="186.649" y2="227.856" gradientUnits="userSpaceOnUse">
<stop stop-color="#343A44"/>
<stop offset="0.3" stop-color="#232D3E"/>
<stop offset="0.64" stop-color="#182439"/>
<stop offset="1" stop-color="#142138"/>
</linearGradient>
<linearGradient id="paint91_linear_225_295" x1="182.288" y1="160.9" x2="182.288" y2="207.011" gradientUnits="userSpaceOnUse">
<stop stop-color="#FC9D00"/>
<stop offset="1" stop-color="#F3510F"/>
</linearGradient>
<linearGradient id="paint92_linear_225_295" x1="186.229" y1="138.014" x2="186.229" y2="151.217" gradientUnits="userSpaceOnUse">
<stop stop-color="#FC9D00"/>
<stop offset="1" stop-color="#F3510F"/>
</linearGradient>
<linearGradient id="paint93_linear_225_295" x1="173.826" y1="263.205" x2="179.187" y2="263.205" gradientUnits="userSpaceOnUse">
<stop stop-color="#343A44"/>
<stop offset="0.3" stop-color="#232D3E"/>
<stop offset="0.64" stop-color="#182439"/>
<stop offset="1" stop-color="#142138"/>
</linearGradient>
<linearGradient id="paint94_linear_225_295" x1="187.009" y1="262.665" x2="192.431" y2="262.665" gradientUnits="userSpaceOnUse">
<stop stop-color="#343A44"/>
<stop offset="0.3" stop-color="#232D3E"/>
<stop offset="0.64" stop-color="#182439"/>
<stop offset="1" stop-color="#142138"/>
</linearGradient>
<linearGradient id="paint95_linear_225_295" x1="464.522" y1="219.254" x2="464.522" y2="306.236" gradientUnits="userSpaceOnUse">
<stop stop-color="#FC9D00"/>
<stop offset="1" stop-color="#F3510F"/>
</linearGradient>
<linearGradient id="paint96_linear_225_295" x1="464.082" y1="303.855" x2="464.082" y2="314.198" gradientUnits="userSpaceOnUse">
<stop stop-color="#FC9D00"/>
<stop offset="1" stop-color="#F3510F"/>
</linearGradient>
<clipPath id="clip0_225_295">
<rect width="533" height="320" fill="white"/>
</clipPath>
</defs>
</svg>
