<svg xmlns="http://www.w3.org/2000/svg" xmlns:xlink="http://www.w3.org/1999/xlink" viewBox="0 0 266.43 159.96"><defs><style>.cls-1,.cls-105,.cls-106,.cls-108{fill:none;}.cls-2{isolation:isolate;}.cls-3{fill:url(#linear-gradient);}.cls-4{clip-path:url(#clip-path);}.cls-5{fill:url(#linear-gradient-2);}.cls-109,.cls-110,.cls-6{fill:#fff;}.cls-7{fill:url(#linear-gradient-3);}.cls-8{fill:url(#linear-gradient-4);}.cls-24,.cls-9{mix-blend-mode:multiply;}.cls-9{fill:url(#linear-gradient-5);}.cls-10{fill:url(#linear-gradient-6);}.cls-11{fill:#4e5683;}.cls-12{fill:url(#linear-gradient-7);}.cls-13,.cls-25{mix-blend-mode:overlay;opacity:0.7;}.cls-13{fill:url(#radial-gradient);}.cls-14{clip-path:url(#clip-path-2);}.cls-15{fill:url(#linear-gradient-8);}.cls-16{fill:url(#linear-gradient-9);}.cls-17{fill:url(#linear-gradient-10);}.cls-18{fill:url(#linear-gradient-11);}.cls-19{fill:url(#linear-gradient-12);}.cls-20{fill:url(#linear-gradient-13);}.cls-21{fill:url(#linear-gradient-14);}.cls-22{fill:url(#linear-gradient-15);}.cls-23{fill:url(#linear-gradient-16);}.cls-24{fill:url(#linear-gradient-17);}.cls-26{fill:url(#linear-gradient-18);}.cls-27{fill:url(#linear-gradient-19);}.cls-28{fill:url(#linear-gradient-20);}.cls-29{fill:url(#linear-gradient-21);}.cls-30{fill:url(#linear-gradient-22);}.cls-31{fill:url(#linear-gradient-23);}.cls-32{fill:url(#linear-gradient-24);}.cls-33{fill:url(#linear-gradient-25);}.cls-34{fill:url(#linear-gradient-26);}.cls-35{fill:url(#linear-gradient-27);}.cls-36{fill:url(#linear-gradient-28);}.cls-37{fill:url(#linear-gradient-29);}.cls-38{fill:url(#linear-gradient-30);}.cls-39{fill:url(#linear-gradient-31);}.cls-40{fill:url(#linear-gradient-32);}.cls-41{fill:url(#linear-gradient-33);}.cls-42{fill:url(#linear-gradient-34);}.cls-43{fill:url(#linear-gradient-35);}.cls-44{fill:url(#linear-gradient-36);}.cls-45{fill:url(#linear-gradient-37);}.cls-46{fill:url(#linear-gradient-38);}.cls-47{fill:url(#linear-gradient-39);}.cls-48{fill:url(#linear-gradient-40);}.cls-49{fill:url(#linear-gradient-41);}.cls-50{fill:url(#linear-gradient-42);}.cls-51{fill:url(#linear-gradient-43);}.cls-52{fill:url(#linear-gradient-44);}.cls-53{fill:url(#linear-gradient-45);}.cls-54{fill:url(#linear-gradient-46);}.cls-55{fill:url(#linear-gradient-47);}.cls-56{fill:url(#linear-gradient-48);}.cls-57{fill:url(#linear-gradient-49);}.cls-58{fill:url(#linear-gradient-50);}.cls-59{fill:url(#linear-gradient-51);}.cls-60{fill:url(#linear-gradient-52);}.cls-61{fill:url(#linear-gradient-53);}.cls-62{fill:url(#linear-gradient-54);}.cls-63{fill:url(#linear-gradient-55);}.cls-64{fill:url(#linear-gradient-56);}.cls-65{fill:url(#linear-gradient-57);}.cls-66{fill:url(#linear-gradient-58);}.cls-67{fill:url(#linear-gradient-59);}.cls-68{fill:url(#linear-gradient-60);}.cls-69{fill:url(#linear-gradient-61);}.cls-70{fill:url(#linear-gradient-62);}.cls-71{fill:url(#linear-gradient-63);}.cls-72{fill:url(#linear-gradient-64);}.cls-73{fill:url(#linear-gradient-65);}.cls-74{fill:url(#linear-gradient-66);}.cls-75{fill:url(#linear-gradient-67);}.cls-76{fill:url(#linear-gradient-68);}.cls-77{fill:url(#linear-gradient-69);}.cls-78{fill:url(#linear-gradient-70);}.cls-79{fill:url(#linear-gradient-71);}.cls-80{fill:url(#linear-gradient-72);}.cls-81{fill:url(#linear-gradient-73);}.cls-82{fill:url(#linear-gradient-74);}.cls-83{fill:url(#linear-gradient-75);}.cls-84{fill:url(#linear-gradient-76);}.cls-85{fill:url(#linear-gradient-77);}.cls-86{fill:url(#linear-gradient-78);}.cls-87{fill:url(#linear-gradient-79);}.cls-88{fill:url(#linear-gradient-80);}.cls-89{fill:url(#linear-gradient-81);}.cls-90{fill:url(#linear-gradient-82);}.cls-91{fill:url(#linear-gradient-83);}.cls-92{fill:#f8d2a1;}.cls-93{fill:url(#linear-gradient-84);}.cls-94{fill:url(#linear-gradient-85);}.cls-95{fill:url(#linear-gradient-86);}.cls-96{fill:#dba87b;}.cls-97{fill:url(#linear-gradient-87);}.cls-98{fill:url(#linear-gradient-88);}.cls-99{fill:url(#linear-gradient-89);}.cls-100{fill:url(#linear-gradient-90);}.cls-101{fill:url(#linear-gradient-91);}.cls-102{fill:url(#linear-gradient-92);}.cls-103{fill:url(#linear-gradient-93);}.cls-104{fill:url(#linear-gradient-94);}.cls-105,.cls-106{stroke:#97a3cc;stroke-miterlimit:10;}.cls-105{stroke-width:1.11px;}.cls-106{stroke-width:2.23px;}.cls-107{font-size:22.99px;fill:#231f20;}.cls-107,.cls-109,.cls-110{font-family:Roboto-Bold, Roboto;font-weight:700;}.cls-108{stroke:#231f20;stroke-linecap:round;stroke-linejoin:round;stroke-width:1.43px;}.cls-109{font-size:19.57px;}.cls-110{font-size:7.78px;}.cls-111{letter-spacing:0.01em;}.cls-112{letter-spacing:-0.01em;}.cls-113{letter-spacing:0.01em;}.cls-114{clip-path:url(#clip-path-3);}.cls-115{fill:url(#linear-gradient-95);}.cls-116{fill:url(#linear-gradient-96);}</style><linearGradient id="linear-gradient" y1="155.65" x2="266.43" y2="155.65" gradientUnits="userSpaceOnUse"><stop offset="0" stop-color="#eef4fb"/><stop offset="0.31" stop-color="#e3edf8"/><stop offset="1" stop-color="#cfe1f3"/></linearGradient><clipPath id="clip-path" transform="translate(-561.82 -227.73)"><path class="cls-1" d="M615.67,379.79H590.05l11.56-42.53a1.3,1.3,0,0,1,1.25-.95h0a1.29,1.29,0,0,1,1.25.95Z"/></clipPath><linearGradient id="linear-gradient-2" x1="602.86" y1="336.31" x2="602.86" y2="379.79" gradientUnits="userSpaceOnUse"><stop offset="0" stop-color="#fc9d00"/><stop offset="1" stop-color="#f3510f"/></linearGradient><linearGradient id="linear-gradient-3" x1="40.82" y1="150.87" x2="40.82" y2="156.04" xlink:href="#linear-gradient-2"/><linearGradient id="linear-gradient-4" x1="141.04" y1="152.86" x2="139.81" y2="131.14" xlink:href="#linear-gradient"/><linearGradient id="linear-gradient-5" x1="141.14" y1="125.2" x2="140.73" y2="151.09" gradientUnits="userSpaceOnUse"><stop offset="0" stop-color="#75769a"/><stop offset="0.97" stop-color="#fff" stop-opacity="0"/></linearGradient><linearGradient id="linear-gradient-6" x1="140.78" y1="142.57" x2="140.78" y2="147.87" xlink:href="#linear-gradient"/><linearGradient id="linear-gradient-7" x1="703.05" y1="320.92" x2="702.33" y2="356.68" xlink:href="#linear-gradient"/><radialGradient id="radial-gradient" cx="642.68" cy="325.36" r="112.26" gradientTransform="matrix(1, 0, -0.01, 0.24, 49.99, 248.27)" gradientUnits="userSpaceOnUse"><stop offset="0" stop-color="#fff"/><stop offset="1" stop-color="#fff" stop-opacity="0"/></radialGradient><clipPath id="clip-path-2" transform="translate(-561.82 -227.73)"><polygon class="cls-1" points="619.61 327.68 619.86 233.93 785.59 233.93 785.34 327.68 619.61 327.68"/></clipPath><linearGradient id="linear-gradient-8" x1="135.97" y1="309.32" x2="141.14" y2="336.73" gradientTransform="matrix(-1, 0, 0, 1, 762.24, 0)" gradientUnits="userSpaceOnUse"><stop offset="0" stop-color="#aced86"/><stop offset="0.05" stop-color="#96ed8d"/><stop offset="0.16" stop-color="#5eed9f"/><stop offset="0.21" stop-color="#41eda9"/><stop offset="1" stop-color="#4d6191"/></linearGradient><linearGradient id="linear-gradient-9" x1="656.42" y1="315.26" x2="661.22" y2="340.71" gradientTransform="matrix(1, 0, 0, 1, 0, 0)" xlink:href="#linear-gradient-8"/><linearGradient id="linear-gradient-10" x1="68.83" y1="311.7" x2="68.83" y2="328.55" gradientTransform="matrix(-1, 0, 0, 1, 840.71, 0)" xlink:href="#linear-gradient-8"/><linearGradient id="linear-gradient-11" x1="745.78" y1="319.13" x2="745.78" y2="329.32" gradientTransform="matrix(1, 0, 0, 1, 0, 0)" xlink:href="#linear-gradient-8"/><linearGradient id="linear-gradient-12" x1="644.09" y1="322.45" x2="644.09" y2="329.32" gradientTransform="matrix(1, 0, 0, 1, 0, 0)" xlink:href="#linear-gradient-8"/><linearGradient id="linear-gradient-13" x1="608.16" y1="318.12" x2="609.87" y2="331.36" gradientTransform="matrix(1, 0, 0, 1, 0, 0)" xlink:href="#linear-gradient-8"/><linearGradient id="linear-gradient-14" x1="55.94" y1="318.89" x2="59.29" y2="336.67" xlink:href="#linear-gradient-8"/><linearGradient id="linear-gradient-15" x1="701.93" y1="368.82" x2="701.93" y2="379.81" xlink:href="#linear-gradient"/><linearGradient id="linear-gradient-16" x1="701.93" y1="384.4" x2="701.93" y2="379.81" xlink:href="#linear-gradient"/><linearGradient id="linear-gradient-17" x1="702.15" y1="366.92" x2="701.76" y2="393.26" xlink:href="#linear-gradient-5"/><linearGradient id="linear-gradient-18" x1="648.05" y1="369.8" x2="648.05" y2="370.64" gradientTransform="matrix(1, 0, 0, 1, 0, 0)" xlink:href="#radial-gradient"/><linearGradient id="linear-gradient-19" x1="656.11" y1="369.8" x2="656.11" y2="370.64" gradientTransform="matrix(1, 0, 0, 1, 0, 0)" xlink:href="#radial-gradient"/><linearGradient id="linear-gradient-20" x1="664.17" y1="369.8" x2="664.17" y2="370.64" gradientTransform="matrix(1, 0, 0, 1, 0, 0)" xlink:href="#radial-gradient"/><linearGradient id="linear-gradient-21" x1="672.24" y1="369.8" x2="672.24" y2="370.64" gradientTransform="matrix(1, 0, 0, 1, 0, 0)" xlink:href="#radial-gradient"/><linearGradient id="linear-gradient-22" x1="680.3" y1="369.8" x2="680.3" y2="370.64" gradientTransform="matrix(1, 0, 0, 1, 0, 0)" xlink:href="#radial-gradient"/><linearGradient id="linear-gradient-23" x1="688.36" y1="369.8" x2="688.36" y2="370.64" gradientTransform="matrix(1, 0, 0, 1, 0, 0)" xlink:href="#radial-gradient"/><linearGradient id="linear-gradient-24" x1="696.43" y1="369.8" x2="696.43" y2="370.64" gradientTransform="matrix(1, 0, 0, 1, 0, 0)" xlink:href="#radial-gradient"/><linearGradient id="linear-gradient-25" x1="704.52" y1="369.8" x2="704.52" y2="370.64" gradientTransform="matrix(1, 0, 0, 1, 0, 0)" xlink:href="#radial-gradient"/><linearGradient id="linear-gradient-26" x1="712.58" y1="369.8" x2="712.58" y2="370.64" gradientTransform="matrix(1, 0, 0, 1, 0, 0)" xlink:href="#radial-gradient"/><linearGradient id="linear-gradient-27" x1="720.65" y1="369.8" x2="720.65" y2="370.64" gradientTransform="matrix(1, 0, 0, 1, 0, 0)" xlink:href="#radial-gradient"/><linearGradient id="linear-gradient-28" x1="728.71" y1="369.8" x2="728.71" y2="370.64" gradientTransform="matrix(1, 0, 0, 1, 0, 0)" xlink:href="#radial-gradient"/><linearGradient id="linear-gradient-29" x1="736.77" y1="369.8" x2="736.77" y2="370.64" gradientTransform="matrix(1, 0, 0, 1, 0, 0)" xlink:href="#radial-gradient"/><linearGradient id="linear-gradient-30" x1="745.77" y1="369.8" x2="745.77" y2="370.64" gradientTransform="matrix(1, 0, 0, 1, 0, 0)" xlink:href="#radial-gradient"/><linearGradient id="linear-gradient-31" x1="755.7" y1="369.8" x2="755.7" y2="370.64" gradientTransform="matrix(1, 0, 0, 1, 0, 0)" xlink:href="#radial-gradient"/><linearGradient id="linear-gradient-32" x1="638.41" y1="376.5" x2="638.41" y2="378.73" gradientTransform="matrix(1, 0, 0, 1, 0, 0)" xlink:href="#radial-gradient"/><linearGradient id="linear-gradient-33" x1="647.91" y1="376.5" x2="647.91" y2="378.73" gradientTransform="matrix(1, 0, 0, 1, 0, 0)" xlink:href="#radial-gradient"/><linearGradient id="linear-gradient-34" x1="657.41" y1="376.5" x2="657.41" y2="378.73" gradientTransform="matrix(1, 0, 0, 1, 0, 0)" xlink:href="#radial-gradient"/><linearGradient id="linear-gradient-35" x1="666.91" y1="376.5" x2="666.91" y2="378.73" gradientTransform="matrix(1, 0, 0, 1, 0, 0)" xlink:href="#radial-gradient"/><linearGradient id="linear-gradient-36" x1="690.51" y1="376.5" x2="690.51" y2="378.73" gradientTransform="matrix(1, 0, 0, 1, 0, 0)" xlink:href="#radial-gradient"/><linearGradient id="linear-gradient-37" x1="714.52" y1="376.5" x2="714.52" y2="378.73" gradientTransform="matrix(1, 0, 0, 1, 0, 0)" xlink:href="#radial-gradient"/><linearGradient id="linear-gradient-38" x1="724.02" y1="376.5" x2="724.02" y2="378.73" gradientTransform="matrix(1, 0, 0, 1, 0, 0)" xlink:href="#radial-gradient"/><linearGradient id="linear-gradient-39" x1="733.52" y1="376.5" x2="733.52" y2="378.73" gradientTransform="matrix(1, 0, 0, 1, 0, 0)" xlink:href="#radial-gradient"/><linearGradient id="linear-gradient-40" x1="755.54" y1="377.84" x2="755.54" y2="378.73" gradientTransform="matrix(1, 0, 0, 1, 0, 0)" xlink:href="#radial-gradient"/><linearGradient id="linear-gradient-41" x1="766.13" y1="377.84" x2="766.13" y2="378.73" gradientTransform="matrix(1, 0, 0, 1, 0, 0)" xlink:href="#radial-gradient"/><linearGradient id="linear-gradient-42" x1="744.94" y1="377.84" x2="744.94" y2="378.73" gradientTransform="matrix(1, 0, 0, 1, 0, 0)" xlink:href="#radial-gradient"/><linearGradient id="linear-gradient-43" x1="754.05" y1="376.5" x2="754.05" y2="377.33" gradientTransform="matrix(1, 0, 0, 1, 0, 0)" xlink:href="#radial-gradient"/><linearGradient id="linear-gradient-44" x1="646.18" y1="370.99" x2="646.18" y2="372.3" gradientTransform="matrix(1, 0, 0, 1, 0, 0)" xlink:href="#radial-gradient"/><linearGradient id="linear-gradient-45" x1="654.52" y1="370.99" x2="654.52" y2="372.3" gradientTransform="matrix(1, 0, 0, 1, 0, 0)" xlink:href="#radial-gradient"/><linearGradient id="linear-gradient-46" x1="662.86" y1="370.99" x2="662.86" y2="372.3" gradientTransform="matrix(1, 0, 0, 1, 0, 0)" xlink:href="#radial-gradient"/><linearGradient id="linear-gradient-47" x1="671.2" y1="370.99" x2="671.2" y2="372.3" gradientTransform="matrix(1, 0, 0, 1, 0, 0)" xlink:href="#radial-gradient"/><linearGradient id="linear-gradient-48" x1="679.54" y1="370.99" x2="679.54" y2="372.3" gradientTransform="matrix(1, 0, 0, 1, 0, 0)" xlink:href="#radial-gradient"/><linearGradient id="linear-gradient-49" x1="687.88" y1="370.99" x2="687.88" y2="372.3" gradientTransform="matrix(1, 0, 0, 1, 0, 0)" xlink:href="#radial-gradient"/><linearGradient id="linear-gradient-50" x1="696.22" y1="370.99" x2="696.22" y2="372.3" gradientTransform="matrix(1, 0, 0, 1, 0, 0)" xlink:href="#radial-gradient"/><linearGradient id="linear-gradient-51" x1="704.62" y1="370.99" x2="704.62" y2="372.3" gradientTransform="matrix(1, 0, 0, 1, 0, 0)" xlink:href="#radial-gradient"/><linearGradient id="linear-gradient-52" x1="712.97" y1="370.99" x2="712.97" y2="372.3" gradientTransform="matrix(1, 0, 0, 1, 0, 0)" xlink:href="#radial-gradient"/><linearGradient id="linear-gradient-53" x1="721.31" y1="370.99" x2="721.31" y2="372.3" gradientTransform="matrix(1, 0, 0, 1, 0, 0)" xlink:href="#radial-gradient"/><linearGradient id="linear-gradient-54" x1="729.65" y1="370.99" x2="729.65" y2="372.3" gradientTransform="matrix(1, 0, 0, 1, 0, 0)" xlink:href="#radial-gradient"/><linearGradient id="linear-gradient-55" x1="737.99" y1="370.99" x2="737.99" y2="372.3" gradientTransform="matrix(1, 0, 0, 1, 0, 0)" xlink:href="#radial-gradient"/><linearGradient id="linear-gradient-56" x1="747.29" y1="370.99" x2="747.29" y2="372.3" gradientTransform="matrix(1, 0, 0, 1, 0, 0)" xlink:href="#radial-gradient"/><linearGradient id="linear-gradient-57" x1="757.56" y1="370.99" x2="757.56" y2="372.3" gradientTransform="matrix(1, 0, 0, 1, 0, 0)" xlink:href="#radial-gradient"/><linearGradient id="linear-gradient-58" x1="646" y1="372.68" x2="646" y2="374.1" gradientTransform="matrix(1, 0, 0, 1, 0, 0)" xlink:href="#radial-gradient"/><linearGradient id="linear-gradient-59" x1="659.13" y1="372.68" x2="659.13" y2="374.1" gradientTransform="matrix(1, 0, 0, 1, 0, 0)" xlink:href="#radial-gradient"/><linearGradient id="linear-gradient-60" x1="669.95" y1="372.68" x2="669.95" y2="374.1" gradientTransform="matrix(1, 0, 0, 1, 0, 0)" xlink:href="#radial-gradient"/><linearGradient id="linear-gradient-61" x1="678.63" y1="372.68" x2="678.63" y2="374.1" gradientTransform="matrix(1, 0, 0, 1, 0, 0)" xlink:href="#radial-gradient"/><linearGradient id="linear-gradient-62" x1="687.31" y1="372.68" x2="687.31" y2="374.1" gradientTransform="matrix(1, 0, 0, 1, 0, 0)" xlink:href="#radial-gradient"/><linearGradient id="linear-gradient-63" x1="695.99" y1="372.68" x2="695.99" y2="374.1" gradientTransform="matrix(1, 0, 0, 1, 0, 0)" xlink:href="#radial-gradient"/><linearGradient id="linear-gradient-64" x1="704.73" y1="372.68" x2="704.73" y2="374.1" gradientTransform="matrix(1, 0, 0, 1, 0, 0)" xlink:href="#radial-gradient"/><linearGradient id="linear-gradient-65" x1="713.42" y1="372.68" x2="713.42" y2="374.1" gradientTransform="matrix(1, 0, 0, 1, 0, 0)" xlink:href="#radial-gradient"/><linearGradient id="linear-gradient-66" x1="722.09" y1="372.68" x2="722.09" y2="374.1" gradientTransform="matrix(1, 0, 0, 1, 0, 0)" xlink:href="#radial-gradient"/><linearGradient id="linear-gradient-67" x1="730.77" y1="372.68" x2="730.77" y2="374.1" gradientTransform="matrix(1, 0, 0, 1, 0, 0)" xlink:href="#radial-gradient"/><linearGradient id="linear-gradient-68" x1="739.45" y1="372.68" x2="739.45" y2="374.1" gradientTransform="matrix(1, 0, 0, 1, 0, 0)" xlink:href="#radial-gradient"/><linearGradient id="linear-gradient-69" x1="747.94" y1="372.68" x2="747.94" y2="374.09" gradientTransform="matrix(1, 0, 0, 1, 0, 0)" xlink:href="#radial-gradient"/><linearGradient id="linear-gradient-70" x1="758.81" y1="372.68" x2="758.81" y2="374.1" gradientTransform="matrix(1, 0, 0, 1, 0, 0)" xlink:href="#radial-gradient"/><linearGradient id="linear-gradient-71" x1="645.92" y1="374.51" x2="645.92" y2="376.05" gradientTransform="matrix(1, 0, 0, 1, 0, 0)" xlink:href="#radial-gradient"/><linearGradient id="linear-gradient-72" x1="659.55" y1="374.51" x2="659.55" y2="376.05" gradientTransform="matrix(1, 0, 0, 1, 0, 0)" xlink:href="#radial-gradient"/><linearGradient id="linear-gradient-73" x1="668.6" y1="374.51" x2="668.6" y2="376.05" gradientTransform="matrix(1, 0, 0, 1, 0, 0)" xlink:href="#radial-gradient"/><linearGradient id="linear-gradient-74" x1="677.65" y1="374.51" x2="677.65" y2="376.05" gradientTransform="matrix(1, 0, 0, 1, 0, 0)" xlink:href="#radial-gradient"/><linearGradient id="linear-gradient-75" x1="686.69" y1="374.51" x2="686.69" y2="376.05" gradientTransform="matrix(1, 0, 0, 1, 0, 0)" xlink:href="#radial-gradient"/><linearGradient id="linear-gradient-76" x1="695.74" y1="374.51" x2="695.74" y2="376.05" gradientTransform="matrix(1, 0, 0, 1, 0, 0)" xlink:href="#radial-gradient"/><linearGradient id="linear-gradient-77" x1="704.85" y1="374.51" x2="704.85" y2="376.05" gradientTransform="matrix(1, 0, 0, 1, 0, 0)" xlink:href="#radial-gradient"/><linearGradient id="linear-gradient-78" x1="713.9" y1="374.51" x2="713.9" y2="376.05" gradientTransform="matrix(1, 0, 0, 1, 0, 0)" xlink:href="#radial-gradient"/><linearGradient id="linear-gradient-79" x1="722.95" y1="374.51" x2="722.95" y2="376.05" gradientTransform="matrix(1, 0, 0, 1, 0, 0)" xlink:href="#radial-gradient"/><linearGradient id="linear-gradient-80" x1="731.99" y1="374.51" x2="731.99" y2="376.05" gradientTransform="matrix(1, 0, 0, 1, 0, 0)" xlink:href="#radial-gradient"/><linearGradient id="linear-gradient-81" x1="741.04" y1="374.51" x2="741.04" y2="376.05" gradientTransform="matrix(1, 0, 0, 1, 0, 0)" xlink:href="#radial-gradient"/><linearGradient id="linear-gradient-82" x1="756.79" y1="374.51" x2="756.79" y2="376.05" gradientTransform="matrix(1, 0, 0, 1, 0, 0)" xlink:href="#radial-gradient"/><linearGradient id="linear-gradient-83" x1="632.86" y1="273.18" x2="681.38" y2="273.18" gradientUnits="userSpaceOnUse"><stop offset="0" stop-color="#ffd71d"/><stop offset="1" stop-color="#fea000"/></linearGradient><linearGradient id="linear-gradient-84" x1="655.51" y1="346.67" x2="655.51" y2="362.28" gradientTransform="matrix(0.99, -0.14, 0.14, 0.99, -35.99, 47.69)" xlink:href="#linear-gradient-2"/><linearGradient id="linear-gradient-85" x1="655.3" y1="361.12" x2="660.73" y2="361.12" gradientUnits="userSpaceOnUse"><stop offset="0" stop-color="#343a44"/><stop offset="0.3" stop-color="#232d3e"/><stop offset="0.64" stop-color="#182439"/><stop offset="1" stop-color="#142138"/></linearGradient><linearGradient id="linear-gradient-86" x1="648.99" y1="361.12" x2="654.42" y2="361.12" xlink:href="#linear-gradient-85"/><linearGradient id="linear-gradient-87" x1="650.43" y1="301.07" x2="657.45" y2="301.07" xlink:href="#linear-gradient-85"/><linearGradient id="linear-gradient-88" x1="652.01" y1="340.82" x2="659.12" y2="340.82" xlink:href="#linear-gradient-85"/><linearGradient id="linear-gradient-89" x1="630.1" y1="369.1" x2="630.1" y2="389.2" gradientTransform="translate(-49.23 67.25) rotate(-12.16)" xlink:href="#linear-gradient-2"/><linearGradient id="linear-gradient-90" x1="647.03" y1="340.61" x2="655.12" y2="340.61" xlink:href="#linear-gradient-85"/><linearGradient id="linear-gradient-91" x1="652.94" y1="307.14" x2="652.94" y2="330.19" xlink:href="#linear-gradient-2"/><linearGradient id="linear-gradient-92" x1="654.91" y1="295.7" x2="654.91" y2="302.3" xlink:href="#linear-gradient-2"/><linearGradient id="linear-gradient-93" x1="86.89" y1="130.55" x2="89.57" y2="130.55" xlink:href="#linear-gradient-85"/><linearGradient id="linear-gradient-94" x1="93.48" y1="130.28" x2="96.19" y2="130.28" xlink:href="#linear-gradient-85"/><clipPath id="clip-path-3" transform="translate(-561.82 -227.73)"><path class="cls-1" d="M806.83,379.79H781.21l11.56-42.53a1.29,1.29,0,0,1,1.25-.95h0a1.31,1.31,0,0,1,1.25.95Z"/></clipPath><linearGradient id="linear-gradient-95" x1="794.02" y1="336.31" x2="794.02" y2="379.79" xlink:href="#linear-gradient-2"/><linearGradient id="linear-gradient-96" x1="231.98" y1="150.87" x2="231.98" y2="156.04" xlink:href="#linear-gradient-2"/></defs><g class="cls-2"><g id="OBJECTS"><polygon class="cls-3" points="266.43 159.96 0 159.96 19.81 151.35 246.62 151.35 266.43 159.96"/><g class="cls-4"><path class="cls-5" d="M615.67,379.79H590.05l11.56-42.53a1.3,1.3,0,0,1,1.25-.95h0a1.29,1.29,0,0,1,1.25.95Z" transform="translate(-561.82 -227.73)"/><rect class="cls-6" x="31.67" y="117.29" width="18.3" height="5.81"/><rect class="cls-6" x="31.67" y="128.6" width="18.3" height="5.81"/><rect class="cls-6" x="27.92" y="139.9" width="25.8" height="5.81"/></g><rect class="cls-7" x="22.2" y="150.87" width="37.24" height="5.18"/><polygon class="cls-8" points="169.82 148.2 111.74 148.2 117.32 127.17 164.24 127.17 169.82 148.2"/><polygon class="cls-9" points="169.82 148.2 111.74 148.2 117.32 127.17 164.24 127.17 169.82 148.2"/><polygon class="cls-10" points="183.91 149.15 97.64 149.15 100.19 143.3 181.36 143.3 183.91 149.15"/><path class="cls-11" d="M786.77,358H618.09a4.72,4.72,0,0,1-4.71-4.71l.32-120.86a4.75,4.75,0,0,1,4.73-4.72H787.11a4.73,4.73,0,0,1,4.71,4.72l-.32,120.86A4.75,4.75,0,0,1,786.77,358Z" transform="translate(-561.82 -227.73)"/><path class="cls-12" d="M786.9,358H618.22a4.72,4.72,0,0,1-4.71-4.71l.06-19.92H791.68l0,19.92A4.75,4.75,0,0,1,786.9,358Z" transform="translate(-561.82 -227.73)"/><path class="cls-13" d="M786.9,358.3H618.22a4.72,4.72,0,0,1-4.71-4.71l.06-19.92H791.68l0,19.92A4.75,4.75,0,0,1,786.9,358.3Z" transform="translate(-561.82 -227.73)"/><g class="cls-14"><polygon class="cls-6" points="57.79 99.95 58.03 6.19 223.77 6.19 223.52 99.95 57.79 99.95"/><path class="cls-15" d="M654.27,329.34H589.88a11.58,11.58,0,0,1,2.39-6.59,12.89,12.89,0,0,1,10.12-5.44c6.23-.15,12.69,4.2,18.3,1.49,2.39-1.15,4-3.4,6-5.21s4.68-3.29,7.19-2.41c3.2,1.13,4.33,5.95,7.28,7.63,2.44,1.38,7.24-1.16,11.88,1.32A5.92,5.92,0,0,1,654.27,329.34Z" transform="translate(-561.82 -227.73)"/><path class="cls-16" d="M622.38,332a5.46,5.46,0,0,0,1.78.59H697a10.8,10.8,0,0,0-2.23-6.12,12,12,0,0,0-9.39-5.06c-5.78-.13-11.78,3.91-17,1.39-2.23-1.07-3.76-3.15-5.56-4.84s-4.35-3.06-6.68-2.24c-3,1.05-3.9,5-6.64,6.56-2.27,1.28-5.12.59-7.54-.39s-4.87-2.24-7.47-2a6.89,6.89,0,0,0-5.86,4.91C628,327.39,620.18,330.39,622.38,332Z" transform="translate(-561.82 -227.73)"/><path class="cls-17" d="M807.57,327.57s-4.69-8.21-5.45-9.06c-4.83-5.34-11.23-5.4-17.74-4.05-1.89.39-6.88,3-8.69,2.65-1.41-.28-3.11-5.65-7.62-5.36s-4.79,5.64-4.79,5.64-2.83-6.23-7.34-5.65-4.52,4.78-1.13,7.89a21.63,21.63,0,0,0-14.18,1.19c-7,3.34-3.65,7.73-3.65,7.73Z" transform="translate(-561.82 -227.73)"/><path class="cls-18" d="M808.32,329.32H683.24s13.55-5.93,25.19-5.5,23.7,1,36,0,18.41-6.54,33.86-4,15.45,5.5,19.89,5.5S808.32,329.32,808.32,329.32Z" transform="translate(-561.82 -227.73)"/><path class="cls-19" d="M678.59,329.32h-69s7.83-5.11,17.14-5.09,8,2.16,17.57,1.33,11-4.7,21.59-2.38A33.21,33.21,0,0,1,678.59,329.32Z" transform="translate(-561.82 -227.73)"/><path class="cls-20" d="M616.7,321c-1.75-1.9-4.43-3.53-6.81-2.52-1.76.75-2.72,2.69-4.37,3.63-2.51,1.42-5.65.14-8.53.36-3.2.23-7.11,6.77-7.11,6.77H629.3s-4.57-2.1-7.16-3.14C619.81,325.15,618.34,322.76,616.7,321Z" transform="translate(-561.82 -227.73)"/><path class="cls-21" d="M724.47,331.88H682.7a7.43,7.43,0,0,1,1.55-4.27,8.35,8.35,0,0,1,6.56-3.54c4-.09,8.24,2.73,11.87,1,1.56-.75,2.63-2.2,3.89-3.38s3-2.14,4.67-1.56c2.07.73,2.8,3.86,4.72,4.95,1.58.89,4.69-.75,7.71.85A3.85,3.85,0,0,1,724.47,331.88Z" transform="translate(-561.82 -227.73)"/></g><path class="cls-22" d="M778.67,379.81H625.18l16.52-11H762.16l16.52,11Z" transform="translate(-561.82 -227.73)"/><path class="cls-23" d="M778.67,379.81H625.18v4.59H778.67v-4.59Z" transform="translate(-561.82 -227.73)"/><path class="cls-24" d="M778.67,379.81H625.18v4.59H778.67v-4.59Z" transform="translate(-561.82 -227.73)"/><g class="cls-25"><path class="cls-26" d="M650.05,370.64H645c-.33,0-.46-.1-.29-.22l.56-.4a1.74,1.74,0,0,1,.87-.22h5c.32,0,.46.1.32.22l-.49.4A1.68,1.68,0,0,1,650.05,370.64Z" transform="translate(-561.82 -227.73)"/><path class="cls-27" d="M658.2,370.64h-5.07c-.32,0-.47-.1-.33-.22l.48-.4a1.52,1.52,0,0,1,.83-.22h5c.32,0,.48.1.36.22l-.41.4A1.46,1.46,0,0,1,658.2,370.64Z" transform="translate(-561.82 -227.73)"/><path class="cls-28" d="M666.34,370.64h-5.06c-.33,0-.5-.1-.38-.22l.4-.4a1.33,1.33,0,0,1,.79-.22h5c.32,0,.5.1.4.22l-.33.4A1.23,1.23,0,0,1,666.34,370.64Z" transform="translate(-561.82 -227.73)"/><path class="cls-29" d="M674.48,370.64h-5.06c-.32,0-.51-.1-.41-.22l.31-.4a1.18,1.18,0,0,1,.76-.22H675c.33,0,.52.1.45.22l-.26.4A1.06,1.06,0,0,1,674.48,370.64Z" transform="translate(-561.82 -227.73)"/><path class="cls-30" d="M682.63,370.64h-5.06c-.33,0-.54-.1-.46-.22l.24-.4a1,1,0,0,1,.71-.22h5c.32,0,.53.1.48.22l-.18.4C683.27,370.54,683,370.64,682.63,370.64Z" transform="translate(-561.82 -227.73)"/><path class="cls-31" d="M690.77,370.64h-5.06c-.32,0-.55-.1-.5-.22l.16-.4c0-.12.35-.22.67-.22h5c.32,0,.55.1.52.22l-.1.4C691.39,370.54,691.1,370.64,690.77,370.64Z" transform="translate(-561.82 -227.73)"/><path class="cls-32" d="M698.92,370.64h-5.06c-.33,0-.58-.1-.55-.22l.08-.4c0-.12.31-.22.63-.22h5c.32,0,.57.1.57.22l0,.4C699.52,370.54,699.25,370.64,698.92,370.64Z" transform="translate(-561.82 -227.73)"/><path class="cls-33" d="M707.06,370.64H702c-.33,0-.59-.1-.59-.22V370c0-.12.26-.22.58-.22h5c.32,0,.59.1.61.22l0,.4C707.64,370.54,707.39,370.64,707.06,370.64Z" transform="translate(-561.82 -227.73)"/><path class="cls-34" d="M715.21,370.64h-5.06c-.33,0-.61-.1-.64-.22l-.07-.4c0-.12.22-.22.54-.22h5c.32,0,.61.1.65.22l.14.4C715.77,370.54,715.53,370.64,715.21,370.64Z" transform="translate(-561.82 -227.73)"/><path class="cls-35" d="M723.35,370.64h-5.06c-.33,0-.63-.1-.68-.22l-.15-.4c0-.12.18-.22.5-.22h5a1,1,0,0,1,.7.22l.21.4C723.89,370.54,723.68,370.64,723.35,370.64Z" transform="translate(-561.82 -227.73)"/><path class="cls-36" d="M731.5,370.64h-5.06a1,1,0,0,1-.72-.22l-.23-.4c-.07-.12.13-.22.45-.22h5a1.1,1.1,0,0,1,.74.22l.29.4C732,370.54,731.82,370.64,731.5,370.64Z" transform="translate(-561.82 -227.73)"/><path class="cls-37" d="M739.64,370.64h-5.06a1.14,1.14,0,0,1-.76-.22l-.31-.4c-.09-.12.09-.22.41-.22h5a1.27,1.27,0,0,1,.78.22l.37.4C740.14,370.54,740,370.64,739.64,370.64Z" transform="translate(-561.82 -227.73)"/><path class="cls-38" d="M749.65,370.64h-6.93a1.36,1.36,0,0,1-.8-.22l-.39-.4c-.11-.12.05-.22.38-.22h6.78a1.52,1.52,0,0,1,.83.22l.47.4C750.13,370.54,750,370.64,749.65,370.64Z" transform="translate(-561.82 -227.73)"/><path class="cls-39" d="M759.7,370.64h-7a1.67,1.67,0,0,1-.86-.22l-.48-.4c-.14-.12,0-.22.32-.22h6.83a1.78,1.78,0,0,1,.88.22l.57.4C760.16,370.54,760,370.64,759.7,370.64Z" transform="translate(-561.82 -227.73)"/><path class="cls-40" d="M640,378.73h-6c-.39,0-.52-.15-.28-.32l2.23-1.62a2.15,2.15,0,0,1,1.08-.29h5.76c.38,0,.52.13.32.29l-2,1.62A2.1,2.1,0,0,1,640,378.73Z" transform="translate(-561.82 -227.73)"/><path class="cls-41" d="M649.76,378.73h-6c-.39,0-.54-.15-.33-.32l1.91-1.62a1.87,1.87,0,0,1,1-.29h5.77c.37,0,.54.13.37.29l-1.67,1.62A1.75,1.75,0,0,1,649.76,378.73Z" transform="translate(-561.82 -227.73)"/><path class="cls-42" d="M659.47,378.73h-6c-.39,0-.57-.15-.4-.32l1.6-1.62a1.59,1.59,0,0,1,1-.29h5.77c.37,0,.57.13.43.29l-1.35,1.62A1.5,1.5,0,0,1,659.47,378.73Z" transform="translate(-561.82 -227.73)"/><path class="cls-43" d="M669.19,378.73h-6c-.39,0-.59-.15-.45-.32l1.28-1.62a1.32,1.32,0,0,1,.9-.29h5.77c.37,0,.59.13.49.29l-1,1.62A1.24,1.24,0,0,1,669.19,378.73Z" transform="translate(-561.82 -227.73)"/><path class="cls-44" d="M707.79,378.73H673.13c-.53,0-.91-.11-.83-.23l1.06-1.79a1.81,1.81,0,0,1,1.06-.21h33.11c.51,0,.94.09,1,.21l.25,1.79C708.75,378.62,708.33,378.73,707.79,378.73Z" transform="translate(-561.82 -227.73)"/><path class="cls-45" d="M717.77,378.73h-6c-.39,0-.73-.15-.76-.32l-.3-1.62c0-.16.25-.29.62-.29h5.77c.37,0,.72.13.77.29l.54,1.62C718.43,378.58,718.16,378.73,717.77,378.73Z" transform="translate(-561.82 -227.73)"/><path class="cls-46" d="M727.48,378.73h-6c-.39,0-.76-.15-.83-.32l-.61-1.62c-.06-.16.19-.29.57-.29h5.76a1,1,0,0,1,.83.29l.85,1.62C728.12,378.58,727.87,378.73,727.48,378.73Z" transform="translate(-561.82 -227.73)"/><path class="cls-47" d="M737.2,378.73h-6a1.17,1.17,0,0,1-.89-.32l-.92-1.62c-.09-.16.13-.29.51-.29h5.77a1.26,1.26,0,0,1,.88.29l1.17,1.62C737.8,378.58,737.59,378.73,737.2,378.73Z" transform="translate(-561.82 -227.73)"/><path class="cls-48" d="M759.38,378.73H752.6a1.69,1.69,0,0,1-1-.32l-.26-.26c-.17-.17,0-.31.39-.31h6.66a1.9,1.9,0,0,1,1.06.31l.29.26C759.93,378.58,759.78,378.73,759.38,378.73Z" transform="translate(-561.82 -227.73)"/><path class="cls-49" d="M770.07,378.73h-6.78a2,2,0,0,1-1.09-.32l-.31-.26c-.21-.17-.07-.31.32-.31h6.66a2.27,2.27,0,0,1,1.12.31l.35.26C770.58,378.58,770.46,378.73,770.07,378.73Z" transform="translate(-561.82 -227.73)"/><path class="cls-50" d="M748.7,378.73h-6.78a1.44,1.44,0,0,1-1-.32l-.2-.26c-.13-.17.07-.31.45-.31h6.66a1.57,1.57,0,0,1,1,.31l.25.26C749.27,378.58,749.09,378.73,748.7,378.73Z" transform="translate(-561.82 -227.73)"/><path class="cls-51" d="M757.78,377.33h-6.59a1.62,1.62,0,0,1-1-.3l-.24-.24c-.16-.16,0-.29.38-.29h6.48a1.87,1.87,0,0,1,1,.29l.28.24C758.31,377.2,758.16,377.33,757.78,377.33Z" transform="translate(-561.82 -227.73)"/><path class="cls-52" d="M648,372.3h-5.26c-.34,0-.47-.11-.29-.24l1.15-.84a1.82,1.82,0,0,1,.91-.23h5.11c.33,0,.47.1.32.23l-1,.84A1.76,1.76,0,0,1,648,372.3Z" transform="translate(-561.82 -227.73)"/><path class="cls-53" d="M656.46,372.3H651.2c-.34,0-.49-.11-.33-.24l1-.84a1.58,1.58,0,0,1,.87-.23h5.1c.33,0,.49.1.36.23l-.86.84A1.53,1.53,0,0,1,656.46,372.3Z" transform="translate(-561.82 -227.73)"/><path class="cls-54" d="M664.93,372.3h-5.26c-.34,0-.51-.11-.38-.24l.83-.84a1.34,1.34,0,0,1,.82-.23H666c.33,0,.52.1.41.23l-.7.84A1.29,1.29,0,0,1,664.93,372.3Z" transform="translate(-561.82 -227.73)"/><path class="cls-55" d="M673.4,372.3h-5.26c-.34,0-.53-.11-.43-.24l.66-.84a1.17,1.17,0,0,1,.78-.23h5.1c.34,0,.54.1.46.23l-.54.84A1.09,1.09,0,0,1,673.4,372.3Z" transform="translate(-561.82 -227.73)"/><path class="cls-56" d="M681.86,372.3H676.6c-.34,0-.55-.11-.47-.24l.5-.84a1,1,0,0,1,.73-.23h5.11c.33,0,.55.1.49.23l-.37.84C682.53,372.19,682.2,372.3,681.86,372.3Z" transform="translate(-561.82 -227.73)"/><path class="cls-57" d="M690.33,372.3h-5.26c-.34,0-.57-.11-.52-.24l.34-.84c.05-.13.36-.23.69-.23h5.1c.33,0,.57.1.54.23l-.21.84C691,372.19,690.67,372.3,690.33,372.3Z" transform="translate(-561.82 -227.73)"/><path class="cls-58" d="M698.8,372.3h-5.26c-.34,0-.6-.11-.57-.24l.17-.84c0-.13.32-.23.65-.23h5.1c.33,0,.59.1.59.23l-.05.84C699.42,372.19,699.14,372.3,698.8,372.3Z" transform="translate(-561.82 -227.73)"/><path class="cls-59" d="M707.27,372.3H702c-.34,0-.61-.11-.61-.24v-.84c0-.13.27-.23.6-.23h5.1c.34,0,.62.1.63.23l.12.84C707.87,372.19,707.61,372.3,707.27,372.3Z" transform="translate(-561.82 -227.73)"/><path class="cls-60" d="M715.73,372.3h-5.26c-.34,0-.63-.11-.66-.24l-.15-.84c0-.13.22-.23.55-.23h5.11c.33,0,.63.1.67.23l.28.84C716.31,372.19,716.07,372.3,715.73,372.3Z" transform="translate(-561.82 -227.73)"/><path class="cls-61" d="M724.2,372.3h-5.26c-.34,0-.66-.11-.71-.24l-.31-.84c0-.13.18-.23.51-.23h5.1a.94.94,0,0,1,.72.23l.44.84C724.76,372.19,724.54,372.3,724.2,372.3Z" transform="translate(-561.82 -227.73)"/><path class="cls-62" d="M732.67,372.3h-5.26a1,1,0,0,1-.76-.24l-.48-.84c-.07-.13.14-.23.47-.23h5.1a1.09,1.09,0,0,1,.76.23l.61.84C733.21,372.19,733,372.3,732.67,372.3Z" transform="translate(-561.82 -227.73)"/><path class="cls-63" d="M741.13,372.3h-5.26a1.2,1.2,0,0,1-.8-.24l-.64-.84c-.1-.13.09-.23.42-.23H740a1.26,1.26,0,0,1,.81.23l.77.84C741.65,372.19,741.47,372.3,741.13,372.3Z" transform="translate(-561.82 -227.73)"/><path class="cls-64" d="M751.54,372.3h-7.2a1.43,1.43,0,0,1-.85-.24l-.8-.84c-.13-.13,0-.23.38-.23h7a1.55,1.55,0,0,1,.86.23l1,.84C752,372.19,751.88,372.3,751.54,372.3Z" transform="translate(-561.82 -227.73)"/><path class="cls-65" d="M762,372.3h-7.25a1.69,1.69,0,0,1-.9-.24l-1-.84c-.15-.13,0-.23.33-.23h7a1.86,1.86,0,0,1,.92.23l1.17.84C762.46,372.19,762.33,372.3,762,372.3Z" transform="translate(-561.82 -227.73)"/><path class="cls-66" d="M649.83,374.1h-9.3c-.48,0-.76-.09-.62-.19l1.44-1.05a2.64,2.64,0,0,1,1.1-.18h9c.47,0,.76.08.65.18l-1.19,1.05A2.28,2.28,0,0,1,649.83,374.1Z" transform="translate(-561.82 -227.73)"/><path class="cls-67" d="M663.17,374.1h-9.3c-.49,0-.79-.08-.68-.19l1.13-1.05a2.27,2.27,0,0,1,1-.18h9c.47,0,.78.08.7.18l-.87,1.05A2.1,2.1,0,0,1,663.17,374.1Z" transform="translate(-561.82 -227.73)"/><path class="cls-68" d="M672.22,374.1h-5.48c-.35,0-.55-.12-.43-.26l.72-.91a1.18,1.18,0,0,1,.81-.25h5.31c.34,0,.55.11.46.25l-.58.91A1.12,1.12,0,0,1,672.22,374.1Z" transform="translate(-561.82 -227.73)"/><path class="cls-69" d="M681,374.1h-5.48c-.36,0-.57-.12-.49-.26l.54-.91a1,1,0,0,1,.77-.25h5.31c.34,0,.57.11.51.25l-.41.91C681.73,374,681.39,374.1,681,374.1Z" transform="translate(-561.82 -227.73)"/><path class="cls-70" d="M689.85,374.1h-5.47c-.36,0-.6-.12-.54-.26l.36-.91c.06-.14.38-.25.72-.25h5.31c.34,0,.59.11.56.25l-.23.91C690.52,374,690.21,374.1,689.85,374.1Z" transform="translate(-561.82 -227.73)"/><path class="cls-71" d="M698.67,374.1h-5.48c-.35,0-.62-.12-.59-.26l.19-.91c0-.14.33-.25.67-.25h5.31c.34,0,.62.11.61.25l0,.91C699.32,374,699,374.1,698.67,374.1Z" transform="translate(-561.82 -227.73)"/><path class="cls-72" d="M707.49,374.1H702c-.36,0-.64-.12-.64-.26v-.91c0-.14.28-.25.63-.25h5.3c.35,0,.64.11.66.25l.12.91C708.11,374,707.84,374.1,707.49,374.1Z" transform="translate(-561.82 -227.73)"/><path class="cls-73" d="M716.3,374.1h-5.48c-.35,0-.66-.12-.69-.26l-.16-.91c0-.14.23-.25.58-.25h5.3c.35,0,.66.11.71.25l.3.91C716.9,374,716.66,374.1,716.3,374.1Z" transform="translate(-561.82 -227.73)"/><path class="cls-74" d="M725.12,374.1h-5.48c-.35,0-.69-.12-.74-.26l-.34-.91c0-.14.18-.25.53-.25h5.3c.35,0,.68.11.75.25l.48.91C725.7,374,725.47,374.1,725.12,374.1Z" transform="translate(-561.82 -227.73)"/><path class="cls-75" d="M733.93,374.1h-5.47a1,1,0,0,1-.79-.26l-.52-.91c-.08-.14.13-.25.48-.25h5.3a1.13,1.13,0,0,1,.8.25l.66.91C734.49,374,734.29,374.1,733.93,374.1Z" transform="translate(-561.82 -227.73)"/><path class="cls-76" d="M742.75,374.1h-5.48a1.27,1.27,0,0,1-.84-.26l-.7-.91c-.1-.14.09-.25.44-.25h5.3a1.32,1.32,0,0,1,.85.25l.83.91C743.28,374,743.1,374.1,742.75,374.1Z" transform="translate(-561.82 -227.73)"/><path class="cls-77" d="M751.37,374.09h-5.48a1.43,1.43,0,0,1-.89-.26l-.87-.91c-.13-.13,0-.24.39-.24h5.3a1.64,1.64,0,0,1,.9.24l1,.91C751.88,374,751.72,374.09,751.37,374.09Z" transform="translate(-561.82 -227.73)"/><path class="cls-78" d="M764.23,374.1h-9.16a2.36,2.36,0,0,1-1.1-.19l-1.21-1c-.11-.1.18-.18.65-.18h8.87a2.64,2.64,0,0,1,1.1.18l1.46,1.05C765,374,764.71,374.1,764.23,374.1Z" transform="translate(-561.82 -227.73)"/><path class="cls-79" d="M652.55,376.05H637.64c-.37,0-.49-.13-.28-.28l1.36-1a2,2,0,0,1,1-.27h14.42c.36,0,.53.12.37.27l-1,1A1.66,1.66,0,0,1,652.55,376.05Z" transform="translate(-561.82 -227.73)"/><path class="cls-80" d="M661.75,376.05H656c-.36,0-.54-.13-.39-.28l1-1a1.47,1.47,0,0,1,.91-.27h5.53c.35,0,.54.12.42.27l-.83,1A1.39,1.39,0,0,1,661.75,376.05Z" transform="translate(-561.82 -227.73)"/><path class="cls-81" d="M670.94,376.05h-5.71c-.37,0-.57-.13-.45-.28l.79-1a1.24,1.24,0,0,1,.85-.27H672c.36,0,.57.12.48.27l-.64,1A1.19,1.19,0,0,1,670.94,376.05Z" transform="translate(-561.82 -227.73)"/><path class="cls-82" d="M680.14,376.05h-5.71c-.37,0-.6-.13-.51-.28l.59-1a1.08,1.08,0,0,1,.81-.27h5.53c.36,0,.59.12.53.27l-.45,1C680.86,375.92,680.51,376.05,680.14,376.05Z" transform="translate(-561.82 -227.73)"/><path class="cls-83" d="M689.33,376.05h-5.71c-.37,0-.62-.13-.56-.28l.4-1c.06-.15.4-.27.76-.27h5.52c.36,0,.62.12.58.27l-.25,1C690,375.92,689.7,376.05,689.33,376.05Z" transform="translate(-561.82 -227.73)"/><path class="cls-84" d="M698.53,376.05h-5.71c-.37,0-.65-.13-.62-.28l.21-1c0-.15.34-.27.7-.27h5.53c.36,0,.64.12.63.27l-.06,1C699.21,375.92,698.9,376.05,698.53,376.05Z" transform="translate(-561.82 -227.73)"/><path class="cls-85" d="M707.72,376.05H702c-.37,0-.67-.13-.66-.28v-1c0-.15.29-.27.65-.27h5.53c.35,0,.66.12.68.27l.14,1C708.38,375.92,708.09,376.05,707.72,376.05Z" transform="translate(-561.82 -227.73)"/><path class="cls-86" d="M716.92,376.05h-5.71c-.37,0-.7-.13-.72-.28l-.18-1c0-.15.24-.27.59-.27h5.53c.36,0,.69.12.74.27l.33,1C717.55,375.92,717.29,376.05,716.92,376.05Z" transform="translate(-561.82 -227.73)"/><path class="cls-87" d="M726.11,376.05H720.4c-.37,0-.72-.13-.77-.28l-.38-1c0-.15.19-.27.55-.27h5.53a1,1,0,0,1,.79.27l.52,1C726.72,375.92,726.48,376.05,726.11,376.05Z" transform="translate(-561.82 -227.73)"/><path class="cls-88" d="M735.31,376.05H729.6a1.1,1.1,0,0,1-.83-.28l-.57-1c-.08-.15.14-.27.5-.27h5.52a1.18,1.18,0,0,1,.84.27l.72,1C735.89,375.92,735.68,376.05,735.31,376.05Z" transform="translate(-561.82 -227.73)"/><path class="cls-89" d="M744.51,376.05h-5.72a1.31,1.31,0,0,1-.88-.28l-.76-1c-.11-.15.08-.27.44-.27h5.53a1.38,1.38,0,0,1,.89.27l.91,1C745.06,375.92,744.88,376.05,744.51,376.05Z" transform="translate(-561.82 -227.73)"/><path class="cls-90" d="M767.16,376.05H748a1.57,1.57,0,0,1-.94-.28l-.95-1c-.15-.15,0-.27.39-.27H765a2,2,0,0,1,1,.27l1.38,1C767.65,375.92,767.53,376.05,767.16,376.05Z" transform="translate(-561.82 -227.73)"/></g><path class="cls-91" d="M635,294.2l44.48-2.27a2,2,0,0,0,1.57-3.14L656.9,253a2,2,0,0,0-3.44.18l-20.36,38A2,2,0,0,0,635,294.2Z" transform="translate(-561.82 -227.73)"/><path class="cls-92" d="M647.32,305.78a26.5,26.5,0,0,1-3.24-4.2,16.36,16.36,0,0,1-2.16-7.47l-2,.56s1,7.11,2.08,9.86,5,5.27,5,5.27Z" transform="translate(-561.82 -227.73)"/><path class="cls-92" d="M662.08,304.9a16.88,16.88,0,0,0,3.82-3.7,57.66,57.66,0,0,0,3.2-7.08L671,295s-2,6.9-3.47,9.46-5.65,4.52-5.65,4.52Z" transform="translate(-561.82 -227.73)"/><path class="cls-93" d="M662.13,304.67a27.89,27.89,0,0,0,6.65-9.49l2,1c-.21,6.42-5.69,13.05-10,15.45-2.56,1.41-3.74.58-3.74.58l-.71-4.85A12.47,12.47,0,0,0,662.13,304.67Z" transform="translate(-561.82 -227.73)"/><path class="cls-92" d="M668.89,292.67c.06-1.06.22-1.77.6-1.82s.06.91.23,1.39a2.83,2.83,0,0,0,.77-1.51c.11-.73.43-1.21.9-1s1.18.68,1.12,1.15-.62,2.21-.73,2.84-.72,1.06-.82,1.4-1.77,0-1.77,0c0-.16-.09-1-.09-1a5.1,5.1,0,0,0-.18-.8A2.18,2.18,0,0,1,668.89,292.67Z" transform="translate(-561.82 -227.73)"/><path class="cls-94" d="M655.3,359.88h2.4s0,.43,1.36.7a2.39,2.39,0,0,1,1.67,1.77H655.3Z" transform="translate(-561.82 -227.73)"/><path class="cls-92" d="M649,357.14c.1.17,0,3.44,0,3.44h2.4V357Z" transform="translate(-561.82 -227.73)"/><path class="cls-95" d="M649,359.88h2.4s0,.43,1.36.7a2.39,2.39,0,0,1,1.67,1.77H649Z" transform="translate(-561.82 -227.73)"/><path class="cls-92" d="M658.33,303c0,.57-.64.26-.71.48s.44,1.31,0,1.68-1.65.45-1.83.84a7.09,7.09,0,0,0,.41,2.31l-4.43.18.21-3.65a8.21,8.21,0,0,1,.23-3.4c.53-1.93,4.1-3.17,4.1-3.17.16-.1.37-.87.65-.58.44.44.6,2,.74,2.75S658.3,302.41,658.33,303Z" transform="translate(-561.82 -227.73)"/><path class="cls-96" d="M658.33,303c0,.57-.64.26-.71.48l.08-3C657.84,301.19,658.3,302.41,658.33,303Z" transform="translate(-561.82 -227.73)"/><path class="cls-97" d="M657.45,298.12c-.08.37-1.16.65-1.23,1.49a3,3,0,0,0,.28,1.46,9.88,9.88,0,0,1-.26,1.28s-.11-1.05-.58-1.08-.86.31-.39,1.13a1.62,1.62,0,0,1-.09,2,2.12,2.12,0,0,0-.3,1.31l-3,.14c-.47-1.42-1.06-2.38-1.5-3.64a24.75,24.75,0,0,0,.39-2.49c0-.58-.6-.65-.26-1.32a4.52,4.52,0,0,1,4.19-2A5.36,5.36,0,0,1,657.45,298.12Z" transform="translate(-561.82 -227.73)"/><path class="cls-98" d="M652,326.18a21.55,21.55,0,0,0,1.5,8.38c1.51,4.4,1.79,20.89,1.79,20.89H658s.34-10.69.88-17.13a78.11,78.11,0,0,0,0-12.14Z" transform="translate(-561.82 -227.73)"/><path class="cls-99" d="M652.38,307.89s-5.55-1.95-7.49-5.27a16.78,16.78,0,0,1-2.41-6.78l-2.36.42s-.25,5.88,2.79,10.39,10.12,7.4,10.12,7.4Z" transform="translate(-561.82 -227.73)"/><path class="cls-92" d="M639.32,293.34c0-.63-.32-2.45-.31-2.91s.77-.83,1.27-1,.74.37.75,1.11a2.68,2.68,0,0,0,.65,1.73c.26-.57.22-1.18.5-1s.27.67.15,1.46a1.9,1.9,0,0,1-.12.64,5,5,0,0,0-.29.76s-.2.82-.23,1c0,0-1.71.1-1.76-.25S639.34,294,639.32,293.34Z" transform="translate(-561.82 -227.73)"/><path class="cls-100" d="M647.05,325.76a49.9,49.9,0,0,0,.44,8.8c.83,6.14,1.22,20.89,1.22,20.89h2.68s.94-10.69,1.47-17.13a66.44,66.44,0,0,1,2.26-12.14Z" transform="translate(-561.82 -227.73)"/><path class="cls-101" d="M646.47,328s.33-3.56.81-9.27a43.46,43.46,0,0,1,3-11.61s1.24,0,2,0c1.12,0,4.2,0,4.2,0a11.09,11.09,0,0,1,1.92,4.75c.29,2.59,1,16.71,1,16.71a18,18,0,0,1-7.55,1.58C647.32,330.21,646.47,328,646.47,328Z" transform="translate(-561.82 -227.73)"/><path class="cls-102" d="M650.52,302.28s-2-4.37,1.24-6c2.76-1.4,4.92.27,6,1.37l2.12.68s-.93,1.84-7,3.65A5.93,5.93,0,0,1,650.52,302.28Z" transform="translate(-561.82 -227.73)"/><polygon class="cls-103" points="88.37 133.38 89.57 132.15 89.57 127.72 86.89 127.72 87.17 132.15 88.37 133.38"/><polygon class="cls-104" points="93.48 127.72 93.48 132.85 95.88 132.85 96.19 127.72 93.48 127.72"/><rect class="cls-105" x="644.54" y="363.38" width="28.5" height="21.13" transform="translate(755.75 520.16) rotate(180)"/><line class="cls-105" x1="82.71" y1="156.78" x2="111.21" y2="135.65"/><line class="cls-105" x1="82.71" y1="135.65" x2="111.21" y2="156.78"/><rect class="cls-105" x="633.07" y="363.38" width="11.47" height="21.13" transform="translate(715.78 520.16) rotate(180)"/><line class="cls-105" x1="71.25" y1="156.78" x2="82.71" y2="135.65"/><line class="cls-105" x1="71.25" y1="135.65" x2="82.71" y2="156.78"/><line class="cls-106" x1="82.71" y1="135.65" x2="82.71" y2="156.78"/><polyline class="cls-106" points="111.44 157.22 111.21 135.65 71.25 135.65 71.25 157.22"/><text class="cls-107" transform="matrix(1, -0.05, 0.05, 1, 91.8, 57.44)">!</text><polygon class="cls-108" points="77.52 61.72 112.81 59.92 93.67 31.56 77.52 61.72"/><rect class="cls-11" x="126.01" y="32.25" width="80.78" height="32.14" rx="1.46"/><text class="cls-109" transform="translate(134.06 51.45) rotate(0.03)">UNDER</text><text id="maintenance" class="cls-110" transform="translate(136.26 59.13) rotate(0.03)"><tspan class="cls-111">M</tspan><tspan x="6.88" y="0">AI</tspan><tspan class="cls-112" x="14.38" y="0">N</tspan><tspan x="19.76" y="0">TE</tspan><tspan class="cls-113" x="28.94" y="0">N</tspan><tspan x="34.5" y="0">ANCE</tspan></text><circle class="cls-6" cx="204.2" cy="34.94" r="1.01"/><circle class="cls-6" cx="204.2" cy="61.85" r="1.01"/><path class="cls-6" d="M691.64,262.67a1,1,0,1,1-1-1A1,1,0,0,1,691.64,262.67Z" transform="translate(-561.82 -227.73)"/><path class="cls-6" d="M691.64,289.58a1,1,0,1,1-1-1A1,1,0,0,1,691.64,289.58Z" transform="translate(-561.82 -227.73)"/><g class="cls-114"><path class="cls-115" d="M806.83,379.79H781.21l11.56-42.53a1.29,1.29,0,0,1,1.25-.95h0a1.31,1.31,0,0,1,1.25.95Z" transform="translate(-561.82 -227.73)"/><rect class="cls-6" x="222.83" y="117.29" width="18.3" height="5.81"/><rect class="cls-6" x="222.83" y="128.6" width="18.3" height="5.81"/><rect class="cls-6" x="219.08" y="139.9" width="25.8" height="5.81"/></g><rect class="cls-116" x="213.36" y="150.87" width="37.24" height="5.18"/></g></g></svg>