<svg id="OBJECTS" xmlns="http://www.w3.org/2000/svg" viewBox="0 0 300.05 184.72"><defs><style>.cls-1{fill:#e3e5ff;}.cls-2{fill:#fff;}.cls-3{fill:#e6e6e6;}.cls-4{fill:#3943b3;}.cls-17,.cls-18,.cls-19,.cls-20,.cls-5,.cls-7,.cls-8{fill:none;stroke-miterlimit:10;}.cls-5{stroke:#fff;}.cls-6{fill:#ffb939;}.cls-7,.cls-8{stroke:#b3b3b3;}.cls-8{stroke-dasharray:6.81 6.81;}.cls-9{fill:#ffa320;}.cls-10{fill:#eb4334;}.cls-11{fill:#ffc69a;}.cls-12{fill:#daa184;}.cls-13{fill:#411809;}.cls-14{fill:#4753de;}.cls-15{fill:#ffb780;}.cls-16{opacity:0.1;}.cls-17,.cls-18,.cls-19,.cls-20{stroke:#3943b3;}.cls-17,.cls-18{stroke-width:2px;}.cls-18,.cls-19{stroke-linecap:round;}</style></defs><path class="cls-1" d="M665.87,185.26c34.67-27.68,79.54-18,81.41-17.55,28.35,6.58,27.08,21.36,58,32.45,45.13,16.19,68.84-7.76,94.71,10.64,20.22,14.39,28.7,45.34,22.88,68.64-10.76,43.1-72.44,68.12-119.18,62.25-44.63-5.61-56.39-37-105.88-36.18-32,.51-42.93,13.88-55.34,5.32C618.65,294.39,622.46,219.94,665.87,185.26Z" transform="translate(-624.61 -165.71)"/><rect class="cls-2" x="49.36" y="28.48" width="203.92" height="137.83" rx="9.6"/><path class="cls-3" d="M870,194.66H683.14c-4.87-.18-8.89,3.14-8.74,8.77v3l203.08-.19v-3.48C877.48,198.5,874.08,194.66,870,194.66Z" transform="translate(-624.61 -165.71)"/><rect class="cls-4" x="66.08" y="102.45" width="71.86" height="25.45" rx="2.33"/><path class="cls-2" d="M712,281.26a6.91,6.91,0,1,1-6.91-6.91A6.91,6.91,0,0,1,712,281.26Z" transform="translate(-624.61 -165.71)"/><line class="cls-5" x1="93.22" y1="116.27" x2="129.58" y2="116.27"/><line class="cls-5" x1="93.22" y1="111.56" x2="110.64" y2="111.56"/><line class="cls-5" x1="93.22" y1="120.63" x2="129.58" y2="120.63"/><path class="cls-6" d="M866.49,221.47V218a4,4,0,0,0-4-4H786.88a4,4,0,0,0-4,4v33.9Z" transform="translate(-624.61 -165.71)"/><rect class="cls-6" x="803.99" y="216.35" width="15.26" height="32.33" transform="translate(-652.94 152.07) rotate(-21.78)"/><rect class="cls-7" x="158.31" y="48.32" width="83.57" height="97.31" rx="5.23"/><rect class="cls-6" x="798.8" y="227.33" width="15.26" height="32.33" transform="translate(-657.38 150.93) rotate(-21.78)"/><rect class="cls-6" x="790.78" y="239.35" width="15.26" height="15.26" transform="translate(-659.25 148.21) rotate(-21.78)"/><rect class="cls-6" x="846.29" y="220.39" width="15.26" height="21.72" transform="translate(-649.45 167.68) rotate(-21.78)"/><rect class="cls-3" x="66.32" y="48.32" width="71.62" height="10.4"/><rect class="cls-3" x="66.32" y="134.44" width="71.62" height="4.01"/><rect class="cls-3" x="66.32" y="141.92" width="71.62" height="4.01"/><path class="cls-8" d="M760.22,261.62H693a2.33,2.33,0,0,1-2.34-2.33V238.51a2.33,2.33,0,0,1,2.34-2.33h67.19a2.33,2.33,0,0,1,2.33,2.33v20.78a2.33,2.33,0,0,1-2.33,2.33Z" transform="translate(-624.61 -165.71)"/><circle class="cls-9" cx="234.92" cy="35.38" r="1.66"/><circle class="cls-10" cx="240.47" cy="35.38" r="1.66"/><circle class="cls-4" cx="246.03" cy="35.38" r="1.66"/><path class="cls-2" d="M850.46,203.84H682.6a3.28,3.28,0,0,1-3.27-3.27h0a3.27,3.27,0,0,1,3.27-3.27H850.46a3.26,3.26,0,0,1,3.27,3.27h0A3.27,3.27,0,0,1,850.46,203.84Z" transform="translate(-624.61 -165.71)"/><rect class="cls-7" x="49.36" y="28.48" width="203.92" height="137.83" rx="9.6"/><rect class="cls-4" x="39.18" y="70.46" width="71.86" height="25.45" rx="2.33"/><path class="cls-2" d="M685.12,249.26a6.91,6.91,0,1,1-6.91-6.9A6.91,6.91,0,0,1,685.12,249.26Z" transform="translate(-624.61 -165.71)"/><line class="cls-5" x1="66.32" y1="84.28" x2="102.68" y2="84.28"/><line class="cls-5" x1="66.32" y1="79.57" x2="83.74" y2="79.57"/><line class="cls-5" x1="66.32" y1="88.64" x2="102.68" y2="88.64"/><path class="cls-9" d="M656.17,342.38a42.25,42.25,0,0,1,6.72,2.51c1.77,1,2,1.8-.2,1.81a61.75,61.75,0,0,1-8.12-.36c-1.35-.21-.79-3.39-.56-3.93Z" transform="translate(-624.61 -165.71)"/><polygon class="cls-11" points="31.17 176.67 31.62 174.92 29.29 175.19 29.4 176.7 31.17 176.67"/><path class="cls-4" d="M664.25,346.29a85.63,85.63,0,0,1-8.87-.62,3.72,3.72,0,0,1-1.67-.85c0,.76.27,1.42.86,1.52a61.75,61.75,0,0,0,8.12.36C663.64,346.7,664.13,346.54,664.25,346.29Z" transform="translate(-624.61 -165.71)"/><path class="cls-12" d="M645.5,281.27s-.56-2.66,4.16-6.19a71.93,71.93,0,0,0,7.28-6.09l4.47-15.5,1.56.74s.09,12.16-.59,15.77S646.73,289.28,645.5,281.27Z" transform="translate(-624.61 -165.71)"/><path class="cls-9" d="M657.77,265.17l5.08.74-.19,4.24s-7.42,11.59-12.26,13.42-7.74-1-6.55-3,12.29-11.45,12.29-11.45Z" transform="translate(-624.61 -165.71)"/><rect class="cls-6" x="658.89" y="262.26" width="2.54" height="6.09" transform="translate(400.54 -511.13) rotate(98.97)"/><path class="cls-12" d="M663,257.75s-2.93-7.18-2.07-8c0,0,2.74,4.62,3.57,6.58" transform="translate(-624.61 -165.71)"/><path class="cls-6" d="M628.33,338a42.5,42.5,0,0,1,4.41,5.65c1,1.77.75,2.59-1.12,1.44a60.79,60.79,0,0,1-6.73-4.56c-1-.88,1.1-3.29,1.58-3.64Z" transform="translate(-624.61 -165.71)"/><polygon class="cls-11" points="3.38 172.06 4.69 170.81 2.55 169.82 1.86 171.16 3.38 172.06"/><path class="cls-4" d="M654.69,299.36l-9.25-5.16s1.55,19.51,7.46,28.14c0,0,.05,15.7,1.08,19.08l2.16-.05s3.31-17.86,3-20.71C658.58,315.43,658,307.88,654.69,299.36Z" transform="translate(-624.61 -165.71)"/><path class="cls-13" d="M644.88,263.41s-3.7,1.82-4,8.64-1.48,7.07-1.48,7.07a11.63,11.63,0,0,0,10.62,0Z" transform="translate(-624.61 -165.71)"/><path class="cls-11" d="M649.35,264.05a8.08,8.08,0,0,1,2.28,5.65c.08,2.26-3.39,2.57-5.36,1.47a5.21,5.21,0,0,1-2.65-5C644.06,263.73,647.37,262.24,649.35,264.05Z" transform="translate(-624.61 -165.71)"/><path class="cls-11" d="M647.33,266.83l-3.65.56,1.37,8.83a2.31,2.31,0,0,0,2.64,1.93h0a2.31,2.31,0,0,0,1.88-2.88Z" transform="translate(-624.61 -165.71)"/><path class="cls-13" d="M647.72,263.59s.9,4.94-4,6.15c-3.45.84-3.35-7.74,1.52-7.92,6.84-.25,5.3,3.68,5.3,3.68S648.85,263.09,647.72,263.59Z" transform="translate(-624.61 -165.71)"/><polygon class="cls-12" points="24.23 106.78 21.45 105.56 24.04 106.03 24.23 106.78"/><path class="cls-4" d="M653,295.31l-11.27,3s-3.17,4.3-2,21c0,0-9.84,8.28-12.59,16.33l1.83,1.19s13.85-12.38,15.8-14.48C647.05,319.87,651.57,311.49,653,295.31Z" transform="translate(-624.61 -165.71)"/><path class="cls-6" d="M651.75,276.13a3.06,3.06,0,0,0-1.92-2.19c-2.09-.76-7.17-.8-7.21,6.06-.1,13.49-.94,18.31-.94,18.31s2.7,2.35,13,1.05l-1.36-8.53,1.21-2.62a8.42,8.42,0,0,0-.22-6.39Z" transform="translate(-624.61 -165.71)"/><path class="cls-11" d="M647.56,281.81s-.56-2.65,4.17-6.18a72.37,72.37,0,0,0,7.27-6.09l4.47-15.5,1.56.73s.1,12.17-.59,15.78S648.79,289.82,647.56,281.81Z" transform="translate(-624.61 -165.71)"/><path class="cls-11" d="M663.12,255.48s-1-4.37-.17-5.19c0,0,.84,1.81,1.67,3.77.26.61,2.91,2.51,1.54,2.31A15.8,15.8,0,0,1,663.12,255.48Z" transform="translate(-624.61 -165.71)"/><path class="cls-11" d="M650,264.9a5.91,5.91,0,0,0,2,1.39,2.06,2.06,0,0,1-.86,1.19Z" transform="translate(-624.61 -165.71)"/><path class="cls-4" d="M633.17,345.54a85.51,85.51,0,0,1-7.24-5.16,3.88,3.88,0,0,1-1-1.61c-.36.67-.52,1.35-.06,1.74a60.79,60.79,0,0,0,6.73,4.56C632.43,345.57,632.93,345.69,633.17,345.54Z" transform="translate(-624.61 -165.71)"/><path class="cls-11" d="M626.64,337s2.46,4.26,3.55,3.16l-1.82-2.72Z" transform="translate(-624.61 -165.71)"/><path class="cls-11" d="M654.27,342.34s4.32,2.42,4.62.9l-3-1.27Z" transform="translate(-624.61 -165.71)"/><path class="cls-6" d="M660.2,265.36l4.64.85-.28,5.35s-6.89,10.37-11.73,12.2-7.73-1-6.55-3,12.3-11.45,12.3-11.45Z" transform="translate(-624.61 -165.71)"/><rect class="cls-6" x="661.32" y="262.45" width="2.54" height="6.09" transform="translate(403.54 -513.31) rotate(98.97)"/><path class="cls-4" d="M654.69,299.36l1.21,3.4-7.79,8.59.73-11.6A38.05,38.05,0,0,0,654.69,299.36Z" transform="translate(-624.61 -165.71)"/><path class="cls-14" d="M645.65,318.08c-1.58,1.63-2.09,2.38-2.31,3.34-.18.78,0,.88-.21,1.36-.6,1.3-2.29,1-4.36,2-1.51.69-2.5,1.8-4.49,4-1,1.1-.9,1.16-2.52,3.2-1.93,2.41-3.09,3.64-3.64,4.38l.79.51s13.85-12.38,15.8-14.48a23.83,23.83,0,0,0,4-7.1C648.42,315.23,647.49,316.19,645.65,318.08Z" transform="translate(-624.61 -165.71)"/><rect class="cls-4" x="653.16" y="340.09" width="3.63" height="1.43" transform="translate(685.35 515.89) rotate(180)"/><rect class="cls-4" x="626.19" y="335.33" width="3.63" height="1.43" transform="translate(379.24 775.37) rotate(-150)"/><path class="cls-6" d="M640.73,268.91l8.31-6.57a5.3,5.3,0,0,0-8.31,6.57" transform="translate(-624.61 -165.71)"/><path class="cls-9" d="M643.39,260.55a5.09,5.09,0,0,0-1.79.92,5.29,5.29,0,0,0-.87,7.44l2.16-1.71A5.28,5.28,0,0,1,643.39,260.55Z" transform="translate(-624.61 -165.71)"/><rect class="cls-9" x="639.42" y="264.33" width="12.29" height="1.51" transform="translate(-654.99 272.92) rotate(-36.72)"/><path class="cls-4" d="M654.54,288.21a8.44,8.44,0,0,0,.13-5.46,12.18,12.18,0,0,1-7.86.29c-1.7-6.09,1-8.81,1.66-9.4a5.93,5.93,0,0,0-2.15.16c-1.06,1.52-2.16,4.27-1.24,8.56a10.56,10.56,0,0,1-2.47-1.62h0c-.12,12.93-1.26,18.16-1.26,18.16s3,1.76,13.34.46l-1.36-8.53Z" transform="translate(-624.61 -165.71)"/><path class="cls-14" d="M659.14,320.66c-.56-5.23-1.11-12.78-4.45-21.3l-1.36-8.53,1.21-2.62a8.44,8.44,0,0,0,.13-5.46,15.19,15.19,0,0,1-1.57.46,10.14,10.14,0,0,1-.77,5.57,9.52,9.52,0,0,0-1.09,3,9.23,9.23,0,0,0,.27,3.82c1.17,4.51,2.32,7.76,2.32,7.76,1.61,4.54,2.41,6.81,2.45,7.91.16,4.13-1.73,6.45-.13,8.58.76,1,1.83,1.35,1.9,2.45s-.86,1.41-1.5,2.73c-.86,1.79-.09,3.1,0,5.72s-.63,3-.95,5.86a24.54,24.54,0,0,0,0,4.77h.56S659.45,323.51,659.14,320.66Z" transform="translate(-624.61 -165.71)"/><polygon class="cls-10" points="89.82 178.76 72 178.76 77.81 149.4 84.02 149.4 89.82 178.76"/><rect class="cls-10" x="67.79" y="177.3" width="25.43" height="3.04"/><polygon class="cls-10" points="89.82 178.76 72 178.76 77.81 149.4 84.02 149.4 89.82 178.76"/><polygon class="cls-2" points="75.35 161.84 86.48 161.84 85.57 157.24 76.26 157.24 75.35 161.84"/><polygon class="cls-2" points="73.22 172.6 88.6 172.6 87.69 168 74.13 168 73.22 172.6"/><path class="cls-4" d="M905.56,340.11s-7,3.84-9.27,3.86-.6,1,1.9,1.25a38.75,38.75,0,0,0,8.26-.83c.18,0,.73-.6.73-.6l.16.55a8.31,8.31,0,0,0,1.2-.1,25.46,25.46,0,0,0-.5-4.15Z" transform="translate(-624.61 -165.71)"/><polygon class="cls-15" points="280.95 174.39 281.04 172.53 283.52 172.65 283.43 174.38 280.95 174.39"/><path class="cls-4" d="M905.48,284.21l8.26,1.41s-2.52,22.08-5.13,30.68c0,0,1.71,14.79-.12,22.79l-3.27.16s-2.79-18.91-3.55-22.11C900.77,313.31,901.89,304.06,905.48,284.21Z" transform="translate(-624.61 -165.71)"/><polygon class="cls-4" points="279.89 171.67 280.13 173.81 284.23 173.72 284.45 171.79 279.89 171.67"/><path class="cls-4" d="M915.31,340.86s-7,3.84-9.27,3.87-.6,1,1.9,1.24a38.77,38.77,0,0,0,8.26-.82,3.82,3.82,0,0,0,.73-.6l.16.54a7.12,7.12,0,0,0,1.19-.09,24.64,24.64,0,0,0-.49-4.15Z" transform="translate(-624.61 -165.71)"/><polygon class="cls-15" points="290.7 175.15 290.79 173.28 293.27 173.41 293.18 175.13 290.7 175.15"/><path class="cls-4" d="M909.49,285.52l8.75,6.82s2.88,4.25-1.52,24.21a49.29,49.29,0,0,1,1.38,23.25l-3.24.49s-3.92-20.34-5-23.44C908.57,313.13,907.53,302.8,909.49,285.52Z" transform="translate(-624.61 -165.71)"/><polygon class="cls-4" points="289.43 172.6 289.85 174.72 293.93 174.29 293.99 172.36 289.43 172.6"/><polygon class="cls-4" points="284.24 126.49 279.48 126.36 278.72 130.93 285.61 142.74 284.24 126.49"/><path class="cls-4" d="M905.69,345.07" transform="translate(-624.61 -165.71)"/><path class="cls-6" d="M913.91,267.61s-3.24-2.94-7.2,3a76.42,76.42,0,0,1-6.55,8.68l-15-8.29-1.56,3.19s13.54,15.49,17.84,14.45S923.62,268.59,913.91,267.61Z" transform="translate(-624.61 -165.71)"/><path class="cls-15" d="M883.65,274.27s-7.28-5.61-3.81-4.62c1.58.45,3,1.65,3.51,1.15s-.61-.93-.81-2,3.25,2.67,3.25,2.67Z" transform="translate(-624.61 -165.71)"/><g class="cls-16"><polygon points="264.12 110.09 270.36 115.92 263.3 112.61 264.12 110.09"/></g><g class="cls-16"><polygon points="275.06 119.22 282.58 112.41 282.58 114.21 278.82 120.23 275.06 119.22"/></g><polygon class="cls-6" points="258.11 108.45 259.65 109.62 262.53 106.11 260.98 104.94 258.11 108.45"/><path class="cls-6" d="M910.78,265.24c2.51-.92,9.63-1.53,10.73,4.55,1,5.55-1.12,10.38-2,14.32a67.9,67.9,0,0,0-.91,7s-4.66,5.51-13.33,3.05l.56-9.44.59-5.22c-.48-5.93-.34-6.65.72-9.64.44-1.25,2.06-3.93,3.24-4.51A2.63,2.63,0,0,1,910.78,265.24Z" transform="translate(-624.61 -165.71)"/><path class="cls-4" d="M907,274.93l-.74-.56c0-3.8,1.56-9,7.66-9.5h.2C906.21,266.39,907,274.83,907,274.93Z" transform="translate(-624.61 -165.71)"/><path class="cls-15" d="M913,255.39l4.51,0-.54,9.41a1,1,0,0,1-.34.78,3.7,3.7,0,0,1-3.42.68c-1.52-.36-.41-1.05-.19-2.77Z" transform="translate(-624.61 -165.71)"/><path class="cls-15" d="M912.45,253.26a10.64,10.64,0,0,0-2.37,7.69c.09,3.19,4.34,3.22,7,1.55a6.39,6.39,0,0,0,2.93-6.83C919.28,252.3,914.81,250.29,912.45,253.26Z" transform="translate(-624.61 -165.71)"/><g class="cls-16"><polygon points="288.21 98.68 290.78 97.64 288.41 97.88 288.21 98.68"/></g><path class="cls-15" d="M911,256.3a11.52,11.52,0,0,0-1.85,1.95,2.25,2.25,0,0,0,1.2,1.09Z" transform="translate(-624.61 -165.71)"/><path class="cls-13" d="M920.53,255.17c-.17-4.34-7.73-4.3-8.63-3.59a1.91,1.91,0,0,0-.34,2.92l.37-.28.21-.09c1.11.17,5,1,3.81,4-.3.77.37,1.13,1.16,1.17a13.19,13.19,0,0,1-.09,2.93C916.91,263,920.8,262.24,920.53,255.17Z" transform="translate(-624.61 -165.71)"/><path class="cls-4" d="M880.64,263.07h1a0,0,0,0,1,0,0V283.6a0,0,0,0,1,0,0H880a0,0,0,0,1,0,0V263.7A.62.62,0,0,1,880.64,263.07Z" transform="translate(-532.24 586.06) rotate(-48.49)"/><path class="cls-2" d="M888.39,275.15a2.06,2.06,0,0,1,.68,1.53l0,2.86-15.38-13.61,4.44.69a2.73,2.73,0,0,1,1.39.66Z" transform="translate(-624.61 -165.71)"/><path class="cls-15" d="M914.55,259.93c.35.52,1.24.54,2,0s1.08-1.33.73-1.85-1.24-.55-2-.05S914.2,259.4,914.55,259.93Z" transform="translate(-624.61 -165.71)"/><path class="cls-4" d="M918.7,293.59a86,86,0,0,1,.86-9.48c.34-1.57.87-3.29,1.33-5.14a41.05,41.05,0,0,1-14.67-4.74,51.08,51.08,0,0,0,.25,5.31l-1.15,5.22-1.6,9.56A22,22,0,0,0,918.7,293.59Z" transform="translate(-624.61 -165.71)"/><path class="cls-17" d="M913,265.52" transform="translate(-624.61 -165.71)"/><path class="cls-4" d="M915.93,299.64l-2.93-.8c3.77-13.9,5.61-26.92,4-28.42-1-.93-1.72-.88-2.14-.77-2.21.62-4.34,5.44-5,7.67l-2.29-.89c.26-.86,2.11-8.47,6.51-9.7a5.15,5.15,0,0,1,5,1.44C923,271.7,918.17,291.35,915.93,299.64Z" transform="translate(-624.61 -165.71)"/><path class="cls-6" d="M915.14,268.64s-3,0-6.15,6.33-4.87,8-4.87,8L889,276.35l-2.62,3.4s16.12,13.76,19.89,11.43C913.33,286.84,924.9,268.42,915.14,268.64Z" transform="translate(-624.61 -165.71)"/><path class="cls-15" d="M886.42,279.75S883,280,882.16,278c-.52-1.31-2.36-4.21-.54-2.87,1.14.85,2.7,2.41,3.17,1.76s-1.93-.89-1.32-2.16l4,2.27Z" transform="translate(-624.61 -165.71)"/><polygon class="cls-6" points="260.62 114.9 262.33 115.8 265.2 110.72 263.49 109.82 260.62 114.9"/><path class="cls-6" d="M921.05,256.61l-9.44-4.8a5.3,5.3,0,1,1,9.44,4.8" transform="translate(-624.61 -165.71)"/><path class="cls-9" d="M916.8,248.93a5.44,5.44,0,0,1,1.93.55,5.3,5.3,0,0,1,2.32,7.13l-2.46-1.25A5.29,5.29,0,0,0,916.8,248.93Z" transform="translate(-624.61 -165.71)"/><rect class="cls-9" x="914.8" y="247.67" width="1.51" height="12.29" transform="translate(-330.57 806.7) rotate(-64.64)"/><polygon class="cls-10" points="271.22 178.76 253.4 178.76 259.2 149.4 265.42 149.4 271.22 178.76"/><rect class="cls-10" x="249.18" y="177.3" width="25.43" height="3.04"/><polygon class="cls-10" points="271.22 178.76 253.4 178.76 259.2 149.4 265.42 149.4 271.22 178.76"/><polygon class="cls-2" points="256.74 161.84 267.87 161.84 266.96 157.24 257.65 157.24 256.74 161.84"/><polygon class="cls-2" points="254.62 172.6 270 172.6 269.09 168 255.53 168 254.62 172.6"/><path class="cls-4" d="M762.59,350.44a.79.79,0,0,0,.76-.62L776.83,284a.76.76,0,0,0-.6-.91.77.77,0,0,0-.92.6L761.82,349.5a.79.79,0,0,0,.61.92Z" transform="translate(-624.61 -165.71)"/><path class="cls-14" d="M775.44,290.37H794.9a.78.78,0,0,0,0-1.56H775.44a.78.78,0,0,0,0,1.56Z" transform="translate(-624.61 -165.71)"/><path class="cls-14" d="M773.54,298.83H793a.78.78,0,0,0,0-1.56H773.54a.78.78,0,0,0,0,1.56Z" transform="translate(-624.61 -165.71)"/><path class="cls-14" d="M771.91,307.29h19.46a.77.77,0,0,0,.77-.78.76.76,0,0,0-.77-.77H771.91a.77.77,0,0,0-.78.77A.78.78,0,0,0,771.91,307.29Z" transform="translate(-624.61 -165.71)"/><path class="cls-14" d="M770.15,315.75h19.46a.78.78,0,0,0,0-1.55H770.15a.78.78,0,1,0,0,1.55Z" transform="translate(-624.61 -165.71)"/><path class="cls-14" d="M768.49,324.21h19.45a.78.78,0,1,0,0-1.55H768.49a.78.78,0,1,0,0,1.55Z" transform="translate(-624.61 -165.71)"/><path class="cls-14" d="M766.84,332.67h19.45a.77.77,0,0,0,.78-.77.78.78,0,0,0-.78-.78H766.84a.78.78,0,0,0-.78.78A.77.77,0,0,0,766.84,332.67Z" transform="translate(-624.61 -165.71)"/><path class="cls-14" d="M765.15,341.13h19.46a.77.77,0,0,0,.78-.77.78.78,0,0,0-.78-.78H765.15a.78.78,0,0,0-.77.78A.77.77,0,0,0,765.15,341.13Z" transform="translate(-624.61 -165.71)"/><path class="cls-4" d="M783.41,350.44a.78.78,0,0,0,.76-.62L797.66,284a.78.78,0,0,0-.61-.91.76.76,0,0,0-.91.6L782.65,349.5a.79.79,0,0,0,.61.92Z" transform="translate(-624.61 -165.71)"/><line class="cls-18" x1="222.92" y1="76.1" x2="226.9" y2="86.23"/><polyline class="cls-19" points="212.43 73.67 213.74 75.94 222.75 75.63 229.36 69.74 228.37 66.42"/><line class="cls-19" x1="229.12" y1="65.8" x2="211.57" y2="73.56"/><path class="cls-9" d="M851.28,236.1,841,240.4a2.93,2.93,0,0,1-3.82-1.56h0a2.93,2.93,0,0,1,1.56-3.82L849,230.71a2.93,2.93,0,0,1,3.82,1.56h0A2.94,2.94,0,0,1,851.28,236.1Z" transform="translate(-624.61 -165.71)"/><path class="cls-6" d="M840.44,239.26,850.7,235a2.33,2.33,0,1,0-1.67-4.24L838.76,235a2.34,2.34,0,1,0,1.68,4.24Z" transform="translate(-624.61 -165.71)"/><polygon class="cls-4" points="213.57 167.63 200.25 167.63 197.79 149.4 216.03 149.4 213.57 167.63"/><path class="cls-20" d="M823.6,315.56a7.92,7.92,0,0,1,15.84,0" transform="translate(-624.61 -165.71)"/><path class="cls-6" d="M836.92,315.71a.7.7,0,0,0,.1-.6h-11c-.21,1.24.3,2.6.75,2.66s.93-1.85,1.61-1.8,1.35,1.34.8,4.44c-.48,2.74,1.19,3.32,1.37,3.29,1.71-.32.6-6.58,2.12-7,.57-.17,1.13.67,1.9.35s.66-1,1.42-1.23C836.48,315.68,836.73,315.88,836.92,315.71Z" transform="translate(-624.61 -165.71)"/><path class="cls-6" d="M848.44,298.72l8.57,1.52,6.46-3.34s-.65-4.56-.61-5.83c.09-3.06,1.56-9.94-.61-14.85-1.6-3.62-4.58-2-8.35-.78l-4.24.46s-6.8-4.11-2,14.83A65.68,65.68,0,0,1,848.44,298.72Z" transform="translate(-624.61 -165.71)"/><path class="cls-11" d="M852,262.32a9.71,9.71,0,0,0-2.34,6.89c.05,2.7,4.22,2.84,6.49,1.4a6.21,6.21,0,0,0,2.83-6.17C858.29,261.59,854.23,260,852,262.32Z" transform="translate(-624.61 -165.71)"/><path class="cls-11" d="M851.1,263.56a5.71,5.71,0,0,1-1.89,1.47,2,2,0,0,0,.91,1.11Z" transform="translate(-624.61 -165.71)"/><path class="cls-6" d="M845.93,277.5l-2.19,8.33-1.36,4.31-8.33,14.65,2.6,1.74,10.52-14.76,1.61-4.58L855,275c.5-1.42-2.55-1.37-4-1.87S847,274.52,845.93,277.5Z" transform="translate(-624.61 -165.71)"/><path class="cls-11" d="M834.41,304.17s-3.16,3.48-1,3.24c1.51-.16.42-.38.42-.38s-2.15,1.89-1.2,1.85,2.94.81,3.43-.49c.59-1.57.86-2.48.86-2.48Z" transform="translate(-624.61 -165.71)"/><rect class="cls-6" x="835.06" y="302.35" width="2.01" height="4.49" transform="translate(-510.91 658.47) rotate(-55.74)"/><polygon class="cls-6" points="231.03 101.6 225.37 85.73 228.24 84.47 236.03 100.82 236.83 105.61 231.63 106.08 231.03 101.6"/><path class="cls-6" d="M860.57,282.85a2.74,2.74,0,0,1-3.15-2.25l-1.18-8.81,5.2-.46,1.65,7.69A3.67,3.67,0,0,1,860.57,282.85Z" transform="translate(-624.61 -165.71)"/><path class="cls-11" d="M850.86,251.72s-3.25-3.45-1.88-4.13l1,1.65s-1.18-4.23-.25-4,2.95,1.38,2.74,2.75c-.25,1.64-.38,3-.38,3Z" transform="translate(-624.61 -165.71)"/><rect class="cls-6" x="850.75" y="249.6" width="2.01" height="3.91" transform="translate(144.63 -798.45) rotate(68.22)"/><polygon class="cls-11" points="226.72 103.58 227.12 112.51 232 110.95 229.7 102.8 226.72 103.58"/><path class="cls-4" d="M852.9,294.74a88.43,88.43,0,0,0-1.88-21.6,2.76,2.76,0,0,0-2.2.54,82.9,82.9,0,0,1,1.81,21Z" transform="translate(-624.61 -165.71)"/><path class="cls-4" d="M864.88,304.45a21.92,21.92,0,0,0-1.91-13c-5,2.79-14.91,2.15-14.91,2.15l-1.4,13.11-.78,14.53a80.28,80.28,0,0,0,3.75,18.94l3.87-.62a98,98,0,0,0-.61-18.61s1.94-7.82,3-11.85c.07-.27,1.22-.69,1.28-.92C857.17,308.17,862.94,307.87,864.88,304.45Z" transform="translate(-624.61 -165.71)"/><path class="cls-4" d="M858.35,340.05l3.39-.5a58.87,58.87,0,0,0,0-18.38,43.13,43.13,0,0,0,2.91-15.35c.09-.47.16-.92.22-1.37-1.94,3.42-7.71,3.72-7.71,3.72l-2.48,13.72S855.71,328.48,858.35,340.05Z" transform="translate(-624.61 -165.71)"/><path class="cls-14" d="M859.09,307.9a13.86,13.86,0,0,1-1.92.27l-2.48,13.72s1,6.52,3.62,18a2.3,2.3,0,0,0,.88-1c.34-.79-.17-1.3-.82-3.81-.4-1.58-.18-1.34-.81-4.5a37.24,37.24,0,0,0-1-4.23c-.64-1.65-1.29-2.36-1-3.27s1.22-1,1.23-1.77-.63-.89-1-1.5c-.78-1.42.78-3.66,1.23-4.36A14.29,14.29,0,0,0,859.09,307.9Z" transform="translate(-624.61 -165.71)"/><polygon class="cls-11" points="225.02 174.46 225.75 176.84 228.45 176.63 228.44 173.95 225.02 174.46"/><path class="cls-6" d="M845.46,346.1s0-1.59,3-2.09c1.59-.27.77-1.44.77-1.44l3-.91-2.83,5Z" transform="translate(-624.61 -165.71)"/><path class="cls-4" d="M852.71,341.62c-2,0-1.86,1.7-2.16,2.78h0a4.93,4.93,0,0,1-4.41,1.78l2.78.38a6.85,6.85,0,0,0,2.74-.17l1.68-.45c1-.53,2-4.21-.47-4.32Z" transform="translate(-624.61 -165.71)"/><path class="cls-9" d="M845.65,346.13a4.28,4.28,0,0,0,.49.05C845.53,346.1,845.23,346.07,845.65,346.13Z" transform="translate(-624.61 -165.71)"/><polygon class="cls-11" points="233.74 174.34 234.44 176.73 237.14 176.52 237.13 173.84 233.74 174.34"/><path class="cls-6" d="M854.14,346s0-1.59,3-2.09c1.59-.27.78-1.44.78-1.44l3-.91-2.82,5Z" transform="translate(-624.61 -165.71)"/><path class="cls-4" d="M861.39,341.51c-2,0-1.85,1.7-2.15,2.78h0a5,5,0,0,1-4.42,1.78l2.78.39a7.09,7.09,0,0,0,2.75-.18l1.68-.45c1-.53,2-4.21-.47-4.32Z" transform="translate(-624.61 -165.71)"/><path class="cls-9" d="M854.33,346a4.28,4.28,0,0,0,.49.05C854.22,346,853.92,346,854.33,346Z" transform="translate(-624.61 -165.71)"/><rect class="cls-4" x="848.82" y="338.6" width="5.05" height="2.13" transform="translate(-656.39 -71.52) rotate(-6.22)"/><rect class="cls-4" x="857.52" y="338.1" width="5.05" height="2.13" transform="translate(-656.28 -70.59) rotate(-6.22)"/><path class="cls-2" d="M851.25,272.59l-.08,1.5a6.62,6.62,0,0,0,3.21.32,2.69,2.69,0,0,0,1.66-1.52l-.41-1.11S854.51,273.53,851.25,272.59Z" transform="translate(-624.61 -165.71)"/><path class="cls-13" d="M852.21,260.21s-2.9,2.62.65,5.29c0,0,1.31,1-.63,3.28a1.28,1.28,0,0,0,0,1.64c1.17,1.39,3.75,3.42,6.5-.86,1.27-2,1.44-4.31.38-5.69a6.87,6.87,0,0,0-3.52-2.6C854.17,260.77,853.42,260.94,852.21,260.21Z" transform="translate(-624.61 -165.71)"/><path class="cls-13" d="M852.22,268.78a9.67,9.67,0,0,0-3.21,7.64c0,3.26,3.3,5.88,3.37,6.65.2,2.09-3.17,6.51-2.68,8.7.69,3.17,6.33,4.32,11.86,2,6.32-2.64,7.13-11.05,1.49-16.83-2.5-2.55-1.68-7.57-2.16-11.22-.28-2.21-.93.12-2-1.51-1.59-2.44-5.51-3.27-6.12-2.53s1.93,2.52,1.38,4.64C853.87,267.41,853.53,267.64,852.22,268.78Z" transform="translate(-624.61 -165.71)"/><path class="cls-11" d="M853.91,266.32a1.13,1.13,0,1,1-1.4-.29A1,1,0,0,1,853.91,266.32Z" transform="translate(-624.61 -165.71)"/><path class="cls-6" d="M860.58,267.31l-8.32-6.57a5.3,5.3,0,0,1,8.32,6.57" transform="translate(-624.61 -165.71)"/><path class="cls-9" d="M857.92,259a5.13,5.13,0,0,1,1.78.92,5.3,5.3,0,0,1,.88,7.44l-2.17-1.71A5.29,5.29,0,0,0,857.92,259Z" transform="translate(-624.61 -165.71)"/><rect class="cls-9" x="854.98" y="257.35" width="1.51" height="12.29" transform="translate(-491.78 626.09) rotate(-53.27)"/></svg>